<svg xmlns="http://www.w3.org/2000/svg" width="10.25" height="10.253" viewBox="0 0 10.25 10.253">
    <path fill="#fff" d="M3490.491 338.883a.555.555 0 0 1-.388-.161l-4.19-4.193-4.189 4.192a.562.562 0 0 1-.774 0 .551.551 0 0 1-.162-.394.526.526 0 0 1 .161-.38l4.191-4.194-4.193-4.2a.524.524 0 0 1-.159-.378.552.552 0 0 1 .163-.4.522.522 0 0 1 .374-.158.564.564 0 0 1 .4.161l4.189 4.193 4.19-4.193a.558.558 0 0 1 .392-.161.526.526 0 0 1 .378.16.546.546 0 0 1 .161.391.531.531 0 0 1-.159.381l-4.193 4.194 4.194 4.2a.53.53 0 0 1 .158.38.548.548 0 0 1-.163.393.523.523 0 0 1-.381.167zm-4.578-4.707l4.368 4.368a.3.3 0 0 0 .416.006.307.307 0 0 0 .091-.218.285.285 0 0 0-.084-.2l-4.372-4.373 4.371-4.371a.286.286 0 0 0 .085-.2.3.3 0 0 0-.088-.215.276.276 0 0 0-.2-.086.3.3 0 0 0-.215.088l-4.368 4.369-4.367-4.369a.3.3 0 0 0-.215-.088.273.273 0 0 0-.2.083.311.311 0 0 0-.091.218.284.284 0 0 0 .084.2l4.372 4.373-4.37 4.372a.285.285 0 0 0-.086.2.309.309 0 0 0 .088.215.29.29 0 0 0 .208.086.3.3 0 0 0 .213-.089z" transform="translate(-3480.788 -328.63)"/>
</svg>
