<svg width="136" height="127" viewBox="0 0 136 127" fill="none" xmlns="http://www.w3.org/2000/svg">
<g clip-path="url(#clip0)">
<path d="M67.313 104.804C79.051 104.648 96.9481 89.552 99.7781 90.429L99.8672 90.456C97.2566 89.7036 94.7192 88.7169 92.2861 87.508C89.2001 85.873 89.2241 78.473 89.2241 78.473C88.1141 75.845 46.4512 78.407 46.4512 78.407C46.4512 78.407 45.517 86.52 42.072 88.114C40.0769 88.9896 38.0262 89.7326 35.9331 90.338L35.9961 90.319C38.3071 89.614 55.576 104.961 67.313 104.804Z" fill="#EDBC94"/>
<path d="M132.497 107.045C130.812 101.438 126.61 99.237 120.956 96.788C115.663 94.494 107.905 92.833 101.183 90.852L100.995 90.797L100.52 90.655L100.336 90.599L99.8672 90.456L99.7781 90.429C96.9481 89.552 79.051 104.648 67.313 104.804C55.575 104.96 38.3071 89.614 35.9961 90.319L35.9331 90.338L35.542 90.455L35.2791 90.534L34.8792 90.654L34.6221 90.729L34.2021 90.851L33.947 90.924L33.5261 91.044L33.2632 91.119L32.8281 91.241L32.5762 91.312C26.3232 93.054 19.2571 94.737 14.5251 96.788C8.87215 99.237 5.12507 101.438 3.44507 107.045C2.87607 108.938 0.21415 126.624 0.00415039 126.623L67.4871 126.75H67.999L135.481 126.623C135.268 126.624 133.066 108.938 132.497 107.045V107.045Z" fill="#A49898"/>
<path d="M98.9241 49.0199C98.0091 48.3519 96.0411 48.6459 95.0081 49.0909C95.0081 49.3599 94.997 49.6279 94.99 49.8969C94.976 50.4136 94.9568 50.9306 94.9321 51.4479C94.8768 52.6212 94.795 53.7919 94.687 54.9599C94.6323 55.5432 94.5715 56.1256 94.5042 56.7069C94.4802 56.9219 94.453 57.1379 94.426 57.3529C94.141 59.2729 93.883 60.7709 93.801 61.4189C93.3822 63.711 92.8483 65.9805 92.2012 68.2189C93.0008 68.0144 93.7279 67.5923 94.302 66.9993C94.8761 66.4063 95.2747 65.6657 95.4531 64.8599C96.0093 61.5401 96.9575 58.2981 98.2781 55.2019C100.056 50.1969 98.9241 49.0199 98.9241 49.0199Z" fill="#F2C498"/>
<path d="M97.1201 56.5208C97.1201 56.5208 98.7901 51.7208 98.2961 51.1708C97.4961 50.2808 95.4201 52.6708 94.7051 54.8138C94.6511 55.3978 94.5903 55.9805 94.5229 56.5618C95.9779 53.0908 97.7781 53.7168 97.1201 56.5208V56.5208Z" fill="#ECB388"/>
<path d="M93.54 63.9219C93.54 63.9219 94.866 63.3379 95.052 62.5279C95.238 61.7179 94.652 61.0589 95.27 60.8029C95.888 60.5469 96.525 59.4599 96.73 59.1529C96.935 58.8459 97.874 55.0869 97.176 54.0129C96.478 52.9389 94.5142 56.2279 94.5142 56.2279L93.54 63.9219Z" fill="#F7D5A9"/>
<path d="M94.353 57.9339C94.535 57.8759 95.9532 56.0149 96.3162 56.2509C96.8512 56.5949 96.4822 58.7799 95.6902 59.8979C95.142 60.4985 94.5048 61.0115 93.801 61.4189L94.353 57.9339Z" fill="#E7A277"/>
<path d="M36.4989 49.0199C37.4139 48.3519 39.382 48.6459 40.415 49.0909C40.42 49.3599 40.426 49.6279 40.433 49.8969C40.447 50.4136 40.4662 50.9306 40.4909 51.4479C40.5462 52.6212 40.628 53.7919 40.736 54.9599C40.7907 55.5432 40.8518 56.1256 40.9191 56.7069C40.9431 56.9219 40.97 57.1379 40.997 57.3529C41.282 59.2729 41.54 60.7709 41.622 61.4189C42.0408 63.711 42.5749 65.9805 43.2221 68.2189C42.4225 68.0145 41.6952 67.5923 41.1213 66.9993C40.5473 66.4063 40.149 65.6657 39.9709 64.8599C39.4141 61.5401 38.4656 58.2981 37.1449 55.2019C35.3669 50.1969 36.4989 49.0199 36.4989 49.0199V49.0199Z" fill="#F2C498"/>
<path d="M38.303 56.5208C38.303 56.5208 36.634 51.7208 37.127 51.1708C37.927 50.2808 40.003 52.6708 40.718 54.8138C40.772 55.3978 40.8328 55.9805 40.9002 56.5618C39.4452 53.0908 37.645 53.7168 38.303 56.5208V56.5208Z" fill="#ECB388"/>
<path d="M41.8831 63.9219C41.8831 63.9219 40.5581 63.3379 40.3711 62.5279C40.1841 61.7179 40.7711 61.0589 40.1531 60.8029C39.5351 60.5469 38.8981 59.4599 38.6931 59.1529C38.4881 58.8459 37.5491 55.0869 38.2471 54.0129C38.9451 52.9389 40.9092 56.2279 40.9092 56.2279L41.8831 63.9219Z" fill="#F7D5A9"/>
<path d="M41.0701 57.9339C40.8881 57.8759 39.4702 56.0149 39.1072 56.2509C38.5722 56.5949 38.9411 58.7799 39.7331 59.8979C40.2812 60.4986 40.9182 61.0116 41.6221 61.4189L41.0701 57.9339Z" fill="#E7A277"/>
<path d="M97.3011 30.4239C96.7661 6.03991 68.4762 6.1019 67.7222 6.1079C66.9682 6.1139 38.6781 6.03991 38.1441 30.4239C37.7711 47.4169 38.056 46.8419 38.636 49.6459C39.216 52.4499 40.5532 58.7369 40.8272 61.9139C41.1012 65.0909 41.0901 74.8719 45.1971 81.6619C47.695 85.8665 50.5382 89.8563 53.6971 93.5899C54.3101 94.2579 55.6852 96.0249 56.3262 96.6019C57.5652 97.7209 62.8261 101.875 67.7261 101.281C72.6261 101.875 77.746 98.1099 79.126 96.6019C79.708 95.9659 81.1412 94.2579 81.7552 93.5899C84.9144 89.8565 87.7575 85.8667 90.2552 81.6619C94.3632 74.8719 94.355 65.0899 94.626 61.9139C94.897 58.7379 96.2362 52.4499 96.8162 49.6459C97.3962 46.8419 97.6741 47.4169 97.3011 30.4239V30.4239Z" fill="#F2C498"/>
<path d="M64.53 78.0329C64.53 78.0329 64.8419 74.1779 61.8979 73.0759C58.9539 71.9739 49.108 70.5679 48.698 70.2759C48.93 70.4429 49.1982 71.2199 49.3582 71.4639C50.6339 73.4643 52.423 75.0857 54.5391 76.1589C56.3661 76.9689 58.4051 76.9589 60.4031 77.1959C60.8631 77.2479 64.545 77.4809 64.53 78.0329V78.0329Z" fill="#EDBC94"/>
<path d="M66.2742 95.697C67.215 95.9637 68.2113 95.9637 69.1521 95.697C71.8291 95.639 74.9402 92.784 74.9402 92.784C73.1817 93.8675 71.2049 94.5481 69.1521 94.777C68.2111 95.0424 67.2151 95.0424 66.2742 94.777C63.5972 94.719 60.157 92.653 60.157 92.653C60.307 92.793 60.457 92.928 60.595 93.059C60.5382 92.9582 60.4679 92.8656 60.386 92.784C60.386 92.784 63.5972 95.643 66.2742 95.697Z" fill="#DB956E"/>
<path d="M66.354 97.018C66.9529 96.9704 67.5546 96.9664 68.1541 97.006C70.6771 97.367 72.828 95.189 73.998 93.937C74.3389 93.5766 74.6542 93.1926 74.9412 92.788C74.9412 92.788 71.8301 95.643 69.1531 95.701C68.2123 95.9677 67.2159 95.9677 66.2751 95.701C63.5981 95.643 60.387 92.788 60.387 92.788C60.4689 92.8696 60.5392 92.9622 60.5959 93.063C60.8793 93.323 61.1496 93.565 61.407 93.789C64.339 96.352 65.612 97.09 66.354 97.018V97.018Z" fill="#E7A277"/>
<path d="M66.561 94.772C65.6219 94.7341 64.6935 94.5589 63.8052 94.252C62.9137 93.9562 62.0426 93.6018 61.198 93.191C60.872 93.034 60.6121 92.9 60.4341 92.806C60.2561 92.712 60.157 92.657 60.157 92.657C60.157 92.657 60.251 92.718 60.426 92.82C60.601 92.922 60.854 93.068 61.175 93.236C62.009 93.679 62.8788 94.0509 63.7751 94.348C64.6704 94.6582 65.6107 94.8184 66.5581 94.822C66.9171 94.848 67.206 94.892 67.405 94.922C67.604 94.952 67.7141 94.977 67.7141 94.977C67.7141 94.977 67.606 94.949 67.408 94.906C67.1282 94.8462 66.8456 94.8015 66.561 94.772V94.772Z" fill="#C68260"/>
<path d="M74.677 92.9339C74.507 93.0249 74.26 93.1559 73.95 93.3059C73.795 93.3829 73.6232 93.4609 73.4402 93.5469C73.2572 93.6329 73.0571 93.7189 72.8401 93.8029C72.6231 93.8869 72.407 93.9759 72.175 94.0649C72.059 94.1079 71.9391 94.1469 71.8191 94.1899C71.7581 94.2099 71.698 94.2329 71.636 94.2519L71.449 94.3089L71.262 94.3669L71.1702 94.3949L71.0771 94.4199L70.7122 94.5199C70.5922 94.5499 70.472 94.5709 70.356 94.5969L70.1831 94.6329C70.1261 94.6449 70.0692 94.6509 70.0132 94.6599L69.6851 94.7089C69.5781 94.7219 69.474 94.7269 69.373 94.7359L69.0801 94.7579C68.9861 94.7649 68.8951 94.7689 68.8091 94.7809C68.4641 94.8199 68.189 94.8809 68 94.9159C67.811 94.9509 67.708 94.9839 67.708 94.9839C67.708 94.9839 67.8082 94.9639 68.0032 94.9309C68.1982 94.8979 68.47 94.8569 68.813 94.8309C68.899 94.8219 68.989 94.8209 69.083 94.8169L69.377 94.8039C69.479 94.7999 69.5851 94.7959 69.6931 94.7859L70.0261 94.7439C70.0831 94.7359 70.141 94.7309 70.198 94.7199L70.374 94.6859C70.491 94.6619 70.6121 94.6429 70.7341 94.6129L71.103 94.5199L71.197 94.4959L71.291 94.4669L71.479 94.4099L71.668 94.3509C71.73 94.3319 71.7911 94.3089 71.8511 94.2869C71.9731 94.2439 72.093 94.2029 72.21 94.1589C72.441 94.0669 72.665 93.9789 72.874 93.8849C73.083 93.7909 73.2801 93.6989 73.4641 93.6129C73.6481 93.5269 73.8161 93.4369 73.9641 93.3539C74.2701 93.1929 74.511 93.0539 74.676 92.9539C74.841 92.8539 74.9312 92.7949 74.9312 92.7949L74.677 92.9339V92.9339Z" fill="#C68260"/>
<path d="M73.5811 85.722C73.4221 85.436 73.2571 85.141 73.1111 84.827C72.9651 84.513 72.8442 84.291 72.7322 84.081C72.478 83.6406 72.2794 83.1703 72.1411 82.681C72.1131 82.581 71.904 81.559 71.814 81.122C71.4863 79.1971 70.9654 77.3102 70.259 75.49C69.6648 74.7071 68.7996 74.1743 67.833 73.996V73.97L67.771 73.982L67.71 73.97V73.995C66.7222 74.1659 65.8338 74.699 65.218 75.49C64.5122 77.3104 63.9913 79.1973 63.6631 81.122C63.5741 81.559 63.3632 82.584 63.3372 82.681C63.1983 83.1701 62.9998 83.6403 62.7461 84.081C62.6341 84.291 62.5062 84.528 62.3672 84.827C62.2282 85.126 62.056 85.436 61.897 85.722C61.35 86.704 60.878 87.553 61.313 88.716C61.7968 89.6931 62.5635 90.5022 63.5132 91.038C64.004 91.3806 64.4755 91.7498 64.926 92.144C65.8048 92.5593 66.7272 92.8753 67.676 93.086C67.6972 93.0936 67.7197 93.0973 67.7422 93.097C67.7643 93.0973 67.7863 93.0936 67.8071 93.086C68.7563 92.8751 69.6789 92.5592 70.5581 92.144C71.0084 91.75 71.4796 91.3808 71.97 91.038C72.9197 90.5023 73.6865 89.6932 74.1702 88.716C74.5992 87.553 74.1271 86.704 73.5811 85.722V85.722Z" fill="url(#paint0_linear)"/>
<path d="M70.9371 78.0329C70.9371 78.0329 70.6242 74.1779 73.5702 73.0759C76.5162 71.9739 86.3651 70.5679 86.7701 70.2759C86.5381 70.4429 86.2702 71.2199 86.1102 71.4639C84.8305 73.4451 83.0398 75.0443 80.9271 76.0929C79.0375 76.7511 77.0598 77.1219 75.0601 77.1929C74.6051 77.2479 70.9201 77.4809 70.9371 78.0329V78.0329Z" fill="#EDBC94"/>
<path d="M50.4922 72.1569C50.4922 72.1569 53.5032 77.6719 58.9922 73.8339C58.9922 73.8339 54.1542 70.8419 50.4922 72.1569Z" fill="#ECB388"/>
<path d="M58.9922 73.8339L58.6592 74.0799C58.6052 74.1179 58.546 74.1639 58.478 74.2089L58.2542 74.3499C58.1732 74.3989 58.0881 74.4499 57.9951 74.5089L57.6951 74.6679C57.1905 74.9271 56.6518 75.1136 56.095 75.2219C55.4049 75.3499 54.6962 75.3376 54.011 75.1859C53.6583 75.103 53.3142 74.9872 52.9832 74.8399C52.6775 74.7012 52.3834 74.538 52.104 74.3519C51.6347 74.0383 51.203 73.6719 50.8171 73.2599C50.5584 72.9845 50.3194 72.6911 50.1021 72.3819C49.9501 72.1619 49.8782 72.0339 49.8782 72.0339C49.8782 72.0339 49.9662 72.1519 50.1392 72.3529C50.3843 72.6346 50.6457 72.9017 50.9221 73.1529C51.3281 73.5235 51.7691 73.8538 52.239 74.1389C52.5145 74.3049 52.8014 74.4516 53.0972 74.5779C53.4149 74.7094 53.7426 74.8154 54.0771 74.8949C54.7262 75.0386 55.3956 75.065 56.054 74.9729C56.596 74.8922 57.126 74.7437 57.6311 74.5309L57.9402 74.3999C58.0402 74.3549 58.125 74.3079 58.209 74.2659L58.4441 74.1489C58.5151 74.1109 58.577 74.0719 58.635 74.0399L58.9922 73.8339Z" fill="#423030"/>
<path d="M63.2701 74.9359C63.2701 74.9359 65.0301 75.1489 64.3871 74.1849C64.0516 73.8088 63.6099 73.5434 63.1202 73.424C63.1202 73.424 52.4201 68.5819 51.1031 68.1669C49.7861 67.7519 46.6432 68.3069 45.9862 66.8989C45.9862 66.8989 45.5433 71.5929 54.5663 72.6259C54.5663 72.6259 62.7661 74.8889 63.2701 74.9359V74.9359Z" fill="#423030"/>
<path d="M54.5662 71.027C54.5662 71.027 60.5072 72.666 62.5862 73.183C60.4082 72.2 52.244 68.526 51.103 68.167C50.077 67.844 47.9521 68.107 46.7471 67.58C47.6991 68.932 49.8262 70.484 54.5662 71.027V71.027Z" fill="#493434"/>
<path d="M84.9951 72.1569C84.9951 72.1569 81.9841 77.6719 76.4951 73.8339C76.4951 73.8339 81.3331 70.8419 84.9951 72.1569Z" fill="#ECB388"/>
<path d="M76.4951 73.834L76.8511 74.039C76.9091 74.072 76.971 74.111 77.042 74.148L77.2751 74.265L77.543 74.398L77.8511 74.528C78.3538 74.7388 78.8815 74.8847 79.4211 74.962C80.076 75.0503 80.7415 75.0164 81.384 74.862C81.7153 74.7771 82.0391 74.665 82.3521 74.527C82.643 74.3939 82.9243 74.2409 83.1941 74.069C83.6544 73.7736 84.0844 73.4336 84.478 73.054C84.7464 72.7966 84.9995 72.5238 85.2361 72.237C85.4031 72.037 85.4871 71.913 85.4871 71.913C85.4871 71.913 85.4189 72.043 85.2729 72.265C85.0658 72.5785 84.8364 72.8766 84.5862 73.157C84.2131 73.5773 83.7928 73.9534 83.334 74.278C83.0601 74.4698 82.7715 74.6396 82.4709 74.786C82.1449 74.9394 81.8051 75.0616 81.4561 75.151C80.7764 75.3146 80.0703 75.3357 79.3821 75.213C78.8278 75.108 78.2915 74.9235 77.79 74.665L77.49 74.508C77.397 74.453 77.312 74.398 77.231 74.349L77.0081 74.209C76.9411 74.164 76.8831 74.119 76.8281 74.081L76.4951 73.834Z" fill="#423030"/>
<path d="M72.217 74.9359C72.217 74.9359 70.457 75.1489 71.1 74.1849C71.4359 73.8087 71.8781 73.5433 72.3681 73.424C72.3681 73.424 83.068 68.5819 84.385 68.1669C85.702 67.7519 88.8439 68.3069 89.5009 66.8989C89.5009 66.8989 89.9451 71.5929 80.9221 72.6259C80.9221 72.6259 72.722 74.8889 72.217 74.9359V74.9359Z" fill="#423030"/>
<path d="M80.969 71.027C80.969 71.027 75.027 72.666 72.949 73.183C75.127 72.2 83.2901 68.526 84.4321 68.167C85.4581 67.844 87.5831 68.107 88.7871 67.58C87.8351 68.932 85.708 70.484 80.969 71.027Z" fill="#493434"/>
<path d="M65.481 97.93C66.9636 98.3 68.5145 98.3 69.9971 97.93C68.5438 97.37 66.9342 97.37 65.481 97.93V97.93Z" fill="#ECB388"/>
<path d="M73.3861 85.257C73.3861 85.257 72.5173 84.815 71.6593 87.114C71.6593 87.114 70.1492 78.286 71.1952 76.381C71.1952 76.381 73.8871 76.661 72.5831 76.898C70.3071 77.312 73.1961 84.317 73.3861 85.257Z" fill="url(#paint1_linear)"/>
<path d="M62.1111 85.257C62.1111 85.257 62.9791 84.815 63.8381 87.114C63.8381 87.114 65.348 78.286 64.302 76.381C64.302 76.381 61.6091 76.661 62.9131 76.898C65.1901 77.312 62.3011 84.317 62.1111 85.257V85.257Z" fill="url(#paint2_linear)"/>
<path d="M67.4991 59.8959C83.1022 59.8959 95.7511 48.3403 95.7511 34.0859C95.7511 19.8314 83.1022 8.27588 67.4991 8.27588C51.8959 8.27588 39.2471 19.8314 39.2471 34.0859C39.2471 48.3403 51.8959 59.8959 67.4991 59.8959Z" fill="url(#paint3_radial)"/>
<path d="M99.152 33.4509C99.1743 33.2236 99.1211 32.9952 99.0009 32.8009C98.9009 32.6699 98.7709 32.5909 98.7199 32.4219C98.5199 31.7589 98.9251 31.1299 98.4301 30.5219C98.3171 30.3829 98.6581 30.1799 98.7221 30.0449C98.8221 29.8279 98.663 29.4449 98.598 29.2449C98.481 28.8779 98.211 28.4899 98.298 28.0889C98.3358 27.9234 98.4218 27.7727 98.5451 27.6559C98.5451 27.4789 98.355 27.3559 98.452 27.1649L98.3051 27.4369L98.2829 27.2009L98.3539 27.2629C98.2179 27.1269 97.8179 26.9139 97.8649 26.6869C97.982 26.1233 97.9591 25.5396 97.798 24.9869C97.464 23.8279 96.67 22.8539 96.392 21.6749C96.839 21.6749 96.9269 22.2629 97.3729 22.2629C96.7888 20.4774 96.0078 18.7625 95.0441 17.1499C95.4161 17.1499 95.564 17.5679 95.902 17.6499C95.3023 16.3773 94.3047 15.3344 93.06 14.6789C92.5376 14.4819 92.0002 14.3275 91.453 14.2169C91.3356 14.1721 91.2339 14.0938 91.1605 13.9918C91.0871 13.8898 91.0451 13.7685 91.0399 13.6429C91.0399 13.1839 91.631 13.6279 91.84 13.6279C91.3461 13.0792 90.7658 12.6151 90.122 12.2539C89.522 11.8979 88.996 11.4419 88.422 11.0469C87.2671 10.2584 86.0524 9.5613 84.789 8.96194C82.4424 7.86102 79.9856 7.01226 77.4599 6.42993C75.4276 5.94922 73.3659 5.6038 71.288 5.39593C70.595 5.32593 69.901 5.26994 69.206 5.23294C68.567 5.19794 67.959 5.03294 67.306 5.05294C66.4661 5.06805 65.6492 5.33066 64.9579 5.80792C65.3179 5.98792 65.7431 5.73894 65.7431 6.31494C63.8358 5.54607 61.7757 5.23177 59.726 5.39694C58.9485 5.42571 58.1941 5.66787 57.5451 6.09692C57.3751 6.27592 57.8259 6.29693 57.9039 6.29693C58.5039 6.31793 59.157 6.15592 59.661 6.58792C57.604 6.90868 55.5135 6.95611 53.444 6.72894C51.944 6.62394 49.7271 6.38494 48.5661 7.59494C49.4407 7.90981 50.2954 8.27715 51.1259 8.69494C51.1859 8.71794 51.6211 8.83893 51.6081 8.85293C51.4781 8.98793 51.1418 9.01992 50.9708 9.06292C50.5898 9.15692 46.3609 9.97992 46.3869 10.1099C46.3869 10.1009 47.255 10.4999 47.31 10.5349C47.919 10.9219 46.5579 11.8939 46.2099 12.0789C45.3999 12.5129 44.5 12.7429 43.685 13.1649C42.747 13.6509 42.3769 14.7019 41.5009 15.2499C41.6499 15.1499 42.607 14.7059 42.474 15.1499C42.359 15.5259 41.944 15.7989 41.642 16.0119C40.7349 16.4989 39.8945 17.1013 39.142 17.8039C40.098 17.8039 40.9151 17.0209 41.8891 17.2149C41.5761 17.4229 41.4329 17.8149 41.1039 17.9999C40.7489 18.1999 40.3921 18.3999 40.0451 18.6159C39.3343 19.0218 38.7238 19.5823 38.2589 20.2559C38.3589 20.1559 39.5469 19.1559 39.6239 19.6359C39.6649 19.8899 39.1621 20.2759 39.0131 20.4239C38.0822 21.1404 37.3221 22.0547 36.788 23.1009C36.903 22.9469 37.7729 22.0829 37.9879 22.4419C38.0879 22.6049 37.951 22.9199 37.9 23.0769C37.628 23.8525 37.3025 24.6083 36.9259 25.3389C36.6513 25.8188 36.4084 26.3163 36.1989 26.8279C35.9399 27.6279 37.4589 28.1399 37.4259 28.9749C36.9299 29.4847 36.5684 30.1098 36.3739 30.7939C36.2954 31.1172 36.2954 31.4546 36.3739 31.7779C36.4695 31.7722 36.5652 31.7865 36.6549 31.8199C36.9749 31.9669 36.6181 32.6679 36.5551 32.8709C35.7751 35.4667 35.6207 38.2101 36.1049 40.8769C36.448 43.0253 36.9543 45.1444 37.619 47.2159C38.2974 49.1329 38.879 51.0827 39.362 53.0579C40.1095 56.4106 40.632 59.8095 40.9259 63.2319C41.4064 59.7582 41.5214 56.2437 41.2689 52.7459C41.1689 51.6039 40.8118 50.4879 40.7518 49.3459C40.7212 47.7498 41.137 46.1767 41.952 44.8039C42.8422 43.5779 43.7446 42.3609 44.6591 41.1529C45.4491 40.3749 46.5149 39.9929 47.2099 39.0979C47.4358 38.8026 47.6322 38.4857 47.796 38.1519C48.6682 39.2385 49.8212 40.0654 51.13 40.5429C51.7596 40.812 52.421 40.9999 53.098 41.1019C52.7374 41.144 52.3731 41.1417 52.0131 41.0949C52.8753 42.8846 54.3525 44.3044 56.1749 45.0949C57.0728 45.4858 58.0204 45.7504 58.9909 45.8809C59.5112 45.9534 60.0356 45.9925 60.5609 45.9979C60.8609 45.9979 61.0431 46.1899 61.3151 46.3139C65.6021 48.2709 70.9499 46.6259 74.7699 44.3349C74.8789 45.3199 74.2609 45.5119 73.3959 45.5119C78.5419 47.1119 84.1611 44.8459 88.6701 42.4049C89.1271 42.1579 89.5888 41.9049 90.0228 41.6229C90.5828 42.1779 91.2139 42.6539 91.7919 43.1879C92.5681 43.9078 93.1926 44.7757 93.6283 45.7405C94.064 46.7053 94.3023 47.7476 94.329 48.8059C94.3544 50.3873 94.2733 51.9685 94.0861 53.5389C93.9861 54.8209 94.0329 56.0799 94.0329 57.3599C94.0329 58.6029 94.2099 59.8679 94.3119 61.1099C94.3699 61.8169 94.4229 62.5269 94.5119 63.2299C95.0224 58.5512 95.8029 53.9057 96.849 49.3169C97.02 48.5659 97.2918 47.8429 97.4708 47.0939C97.7658 45.7124 97.9307 44.3062 97.963 42.8939C98.038 41.2449 98.044 39.5939 98.028 37.9409C98.0271 37.1471 98.1405 36.3574 98.3649 35.5959C98.4542 35.2505 98.5704 34.9124 98.7121 34.5849C98.9421 34.2448 99.0916 33.8566 99.1491 33.4499L99.152 33.4509Z" fill="#423030"/>
<path d="M94.3302 48.8039C94.3035 47.7456 94.0652 46.7033 93.6295 45.7385C93.1938 44.7737 92.5693 43.9058 91.7931 43.1859C91.2151 42.6519 90.5843 42.1759 90.0243 41.6209C89.5903 41.9069 89.1243 42.1559 88.6713 42.4029C84.1623 44.8439 78.5431 47.1029 73.3971 45.5099C74.2621 45.5099 74.8801 45.3179 74.7711 44.3329C70.9511 46.6239 65.6033 48.2689 61.3163 46.3119C61.0443 46.1879 60.8571 45.9999 60.5621 45.9959C60.0368 45.9905 59.5126 45.9514 58.9923 45.8789C58.0218 45.7483 57.074 45.4838 56.1761 45.0929C54.3536 44.3024 52.8765 42.8826 52.0143 41.0929C52.3699 41.1331 52.7283 41.1395 53.0851 41.1119C52.4149 40.9933 51.7598 40.8018 51.1312 40.5409C49.8224 40.0633 48.6694 39.2364 47.7972 38.1499C47.6334 38.4837 47.4372 38.8006 47.2113 39.0959C46.5113 39.9909 45.4503 40.3729 44.6603 41.1509C43.7458 42.3589 42.8434 43.5759 41.9532 44.8019C41.1382 46.1747 40.7227 47.7477 40.7533 49.3439C40.7724 49.6643 40.809 49.9835 40.8631 50.2999C41.0645 49.2691 41.4321 48.2779 41.9513 47.3649C42.3435 46.7429 42.7777 46.1485 43.2511 45.5859C43.6711 44.9283 44.1392 44.3026 44.6512 43.7139C45.4412 42.9359 46.5073 42.5539 47.2023 41.6589C47.4282 41.3636 47.6244 41.0467 47.7882 40.7129C48.6603 41.7994 49.8133 42.6263 51.1222 43.1039C51.7508 43.3648 52.4061 43.5563 53.0763 43.6749C53.0808 43.6727 53.0846 43.6692 53.0873 43.6649L53.0763 43.6749C52.7195 43.7029 52.3608 43.6966 52.0052 43.6559C52.8672 45.4458 54.3444 46.8657 56.1671 47.6559C57.0649 48.0468 58.0128 48.3113 58.9833 48.4419C59.5036 48.5144 60.0278 48.5535 60.5531 48.5589C60.8531 48.5589 61.0352 48.7509 61.3072 48.8749C65.5942 50.8319 70.9421 49.1879 74.7621 46.8959C74.8711 47.8809 74.2533 48.0729 73.3883 48.0729C78.5343 49.6729 84.1532 47.4069 88.6622 44.9659C89.1192 44.7189 89.5812 44.4659 90.0152 44.1839C90.5752 44.7389 91.2063 45.2149 91.7843 45.7499C93.2575 47.1081 94.1547 48.9788 94.2921 50.9779C94.3478 50.2546 94.3606 49.5287 94.3302 48.8039V48.8039Z" fill="#EDBC94"/>
<path d="M95.845 45.8739C96.678 42.6569 91.1311 37.9879 91.1311 37.9879C89.0091 43.3049 74.9441 45.8739 74.9441 45.8739C75.6081 45.9079 76.259 45.9659 76.897 46.0429C80.997 46.0879 85.172 44.2999 88.675 42.4029C89.132 42.1559 89.5941 41.9029 90.0281 41.6209C90.5881 42.1759 91.2191 42.6519 91.7971 43.1859C92.5734 43.9058 93.1976 44.7737 93.6333 45.7385C94.069 46.7033 94.3073 47.7456 94.334 48.8039C94.3594 50.3852 94.2783 51.9665 94.0911 53.5369C94.0841 53.6229 94.08 53.7089 94.074 53.7949C95.4097 51.3783 96.0244 48.6293 95.845 45.8739V45.8739Z" fill="#382828"/>
<path d="M44.645 32.9519C43.617 33.2789 43.8691 35.6259 43.7551 36.4429C43.3841 39.0999 41.302 40.5959 40.438 42.9619C39.8243 44.7475 39.6613 46.657 39.9631 48.5209C40.1691 49.9299 40.1631 50.4839 40.1021 49.3469C40.0171 47.7539 41.193 46.1849 41.957 44.8049C42.8472 43.5789 43.7496 42.3618 44.6641 41.1539C45.4541 40.3759 46.5201 39.9939 47.2151 39.0989C47.2621 39.0379 47.3081 38.9749 47.3521 38.9119L47.801 38.1529C44.557 36.8859 45.529 32.6709 44.645 32.9519V32.9519Z" fill="#382828"/>
<path d="M43.8082 25.1299C43.8082 25.1299 43.3851 25.5299 42.6891 30.1559C42.1891 33.4559 43.4011 36.9479 41.1151 39.2359C40.3229 39.8231 39.6572 40.5639 39.1576 41.414C38.6579 42.2641 38.3347 43.2061 38.2071 44.1839C37.6221 47.2119 34.5712 27.9209 43.8082 25.1299Z" fill="#493434"/>
<path d="M91.935 21.777C91.7547 23.7692 91.7883 25.7749 92.0351 27.76C92.2931 31.086 90.8351 34.483 92.9531 36.93C93.7011 37.5724 94.3119 38.3591 94.7492 39.2429C95.1865 40.1267 95.4411 41.0896 95.498 42.074C95.868 45.136 100.945 25.224 91.935 21.777Z" fill="#493434"/>
<path d="M79.1191 96.597C77.7421 98.105 72.619 101.87 67.719 101.276C62.819 101.87 57.5621 97.716 56.3191 96.597C55.6781 96.02 54.3032 94.253 53.6902 93.585C50.7094 90.0686 48.0139 86.32 45.6292 82.375C45.2045 84.2037 44.3511 85.9052 43.1392 87.339C46.7392 94.846 54.6502 101.891 67.7322 101.891C80.7182 101.891 87.2461 94.846 92.3071 87.517L92.2791 87.503C90.8011 86.72 90.0371 84.615 89.6421 82.634C87.2985 86.4848 84.6572 90.1463 81.7422 93.585C81.1342 94.258 79.7011 95.966 79.1191 96.597V96.597Z" fill="#ECB388"/>
<path d="M75.8311 52.677C79.8412 52.677 83.0921 48.7873 83.0921 43.989C83.0921 39.1908 79.8412 35.301 75.8311 35.301C71.8209 35.301 68.5701 39.1908 68.5701 43.989C68.5701 48.7873 71.8209 52.677 75.8311 52.677Z" fill="url(#paint4_radial)"/>
<path d="M42.7909 102.823C43.5159 100.262 42.9321 97.523 42.2421 94.957C39.3021 84.003 34.4911 73.643 31.0671 62.83C27.6431 52.017 25.6269 40.338 28.4589 29.355C30.2881 22.5927 33.8464 16.4231 38.7834 11.4532C43.7204 6.48325 49.866 2.88417 56.6159 1.00998C63.6599 -0.856016 71.9871 -0.416038 77.1591 4.71796L76.9931 4.93397C81.4595 4.82949 85.8846 5.80945 89.8893 7.78986C93.8941 9.77028 97.3589 12.6921 99.987 16.305C102.126 19.4037 103.748 22.8298 104.787 26.449C108.387 38.349 107.225 51.243 104.128 63.289C101.031 75.335 94.897 88.822 93.622 100.148C90.693 95.522 88.1739 88.816 89.3449 83.468C90.5159 78.12 92.4671 72.868 92.5351 67.395C92.5991 62.246 90.9899 57.241 89.3979 52.344C89.3979 52.344 86.9731 46.019 80.5461 45.477C79.1211 45.356 77.271 45.877 77.31 44.449L77.0949 40.549C74.5079 44.299 72.5759 45.789 67.7079 46.768C62.9969 47.715 58.162 47.581 53.361 47.768C52.3383 47.7621 51.3212 47.9177 50.3471 48.229C48.5083 49.0563 47.0527 50.5516 46.2751 52.412C42.5431 60.06 45.575 69.064 46.518 77.522C47.4823 86.2778 46.1097 95.1329 42.54 103.186" fill="#624444"/>
<path d="M77.345 7.56995C77.345 7.56995 80.928 22.6349 77.345 38.1349" stroke="#FEE0C2" stroke-width="2" stroke-miterlimit="10"/>
<path d="M106.83 47.297C106.83 47.297 101.091 65.297 107.012 92.047C107.012 92.047 98.8411 91.765 94.0911 87.614C89.3411 83.463 106.83 47.297 106.83 47.297Z" fill="#624444"/>
<path d="M28.9561 47.297C28.9561 47.297 34.6939 65.297 28.7729 92.047C28.7729 92.047 36.9441 91.765 41.6941 87.614C46.4441 83.463 28.9561 47.297 28.9561 47.297Z" fill="#624444"/>
<path d="M93.2658 40.9567C94.6906 40.1341 94.7069 37.4948 93.3022 35.0617C91.8974 32.6287 89.6036 31.3231 88.1788 32.1458C86.7539 32.9684 86.7376 35.6077 88.1424 38.0407C89.5471 40.4738 91.8409 41.7793 93.2658 40.9567Z" fill="url(#paint5_radial)"/>
<path d="M57.635 24.794C62.9049 24.794 67.177 22.6432 67.177 19.99C67.177 17.3369 62.9049 15.186 57.635 15.186C52.3651 15.186 48.093 17.3369 48.093 19.99C48.093 22.6432 52.3651 24.794 57.635 24.794Z" fill="url(#paint6_radial)"/>
<path d="M71.0681 75.131C75.2405 72.9189 79.6257 71.1342 84.157 69.8039C84.157 69.8039 84.0741 69.8039 85.7571 69.5429C85.7571 69.5429 87.8502 69.3889 89.8572 69.3129C90.1753 69.0808 90.4669 68.8145 90.7271 68.5189L89.967 66.8989L81.113 67.1629L70.4561 72.1829L69.241 75.0469C69.241 75.0469 69.7081 75.833 71.0681 75.131V75.131Z" fill="url(#paint7_radial)"/>
<path d="M64.8291 75.131C60.6567 72.9189 56.2713 71.1342 51.74 69.8039C51.74 69.8039 51.8231 69.8039 50.1401 69.5429C50.1401 69.5429 48.047 69.3889 46.04 69.3129C45.7214 69.0811 45.4295 68.8148 45.1692 68.5189L45.9302 66.8989L54.7842 67.1629L65.4412 72.1829L66.656 75.0469C66.656 75.0469 66.1881 75.833 64.8291 75.131V75.131Z" fill="url(#paint8_radial)"/>
</g>
<defs>
<linearGradient id="paint0_linear" x1="67.7397" y1="93.097" x2="67.7397" y2="73.97" gradientUnits="userSpaceOnUse">
<stop offset="0.128" stop-color="#F5CFA3"/>
<stop offset="0.406" stop-color="#F3CA9E"/>
<stop offset="1" stop-color="#F2C498"/>
</linearGradient>
<linearGradient id="paint1_linear" x1="72.1061" y1="76.381" x2="72.1061" y2="87.114" gradientUnits="userSpaceOnUse">
<stop stop-color="#EDBC94"/>
<stop offset="0.628" stop-color="#EDBD95"/>
<stop offset="0.854" stop-color="#F0C49A"/>
<stop offset="1" stop-color="#F5CFA3"/>
</linearGradient>
<linearGradient id="paint2_linear" x1="63.3911" y1="76.381" x2="63.3911" y2="87.114" gradientUnits="userSpaceOnUse">
<stop stop-color="#EDBC94"/>
<stop offset="0.628" stop-color="#EDBD95"/>
<stop offset="0.854" stop-color="#F0C49A"/>
<stop offset="1" stop-color="#F5CFA3"/>
</linearGradient>
<radialGradient id="paint3_radial" cx="0" cy="0" r="1" gradientUnits="userSpaceOnUse" gradientTransform="translate(65.1124 34.0859) scale(27.0618 27.0489)">
<stop stop-color="#F4CAA6"/>
<stop offset="0.668" stop-color="#F3C9A4"/>
<stop offset="0.908" stop-color="#F2C69D"/>
<stop offset="1" stop-color="#F2C498"/>
</radialGradient>
<radialGradient id="paint4_radial" cx="0" cy="0" r="1" gradientUnits="userSpaceOnUse" gradientTransform="translate(77.1635 43.989) scale(8.01349 8.01034)">
<stop stop-color="#F4CAA6"/>
<stop offset="0.668" stop-color="#F3C9A4"/>
<stop offset="0.908" stop-color="#F2C69D"/>
<stop offset="1" stop-color="#F2C498"/>
</radialGradient>
<radialGradient id="paint5_radial" cx="0" cy="0" r="1" gradientUnits="userSpaceOnUse" gradientTransform="translate(88.6701 38.4575) rotate(-11.3213) scale(3.81374 4.56299)">
<stop stop-color="#F4CAA6"/>
<stop offset="0.668" stop-color="#F3C9A4"/>
<stop offset="0.908" stop-color="#F2C69D"/>
<stop offset="1" stop-color="#F2C498"/>
</radialGradient>
<radialGradient id="paint6_radial" cx="0" cy="0" r="1" gradientUnits="userSpaceOnUse" gradientTransform="translate(53.1406 19.99) scale(7.54501 7.55189)">
<stop stop-color="#F4CAA6"/>
<stop offset="0.668" stop-color="#F3C9A4"/>
<stop offset="0.908" stop-color="#F2C69D"/>
<stop offset="1" stop-color="#F2C498"/>
</radialGradient>
<radialGradient id="paint7_radial" cx="0" cy="0" r="1" gradientUnits="userSpaceOnUse" gradientTransform="translate(-1354.58 71.1607) scale(8.18025 8.17417)">
<stop stop-color="#F4CAA6"/>
<stop offset="0.668" stop-color="#F3C9A4"/>
<stop offset="0.908" stop-color="#F2C69D"/>
<stop offset="1" stop-color="#F2C498"/>
</radialGradient>
<radialGradient id="paint8_radial" cx="0" cy="0" r="1" gradientUnits="userSpaceOnUse" gradientTransform="translate(-1364.12 71.1607) scale(8.18053 8.17417)">
<stop stop-color="#F4CAA6"/>
<stop offset="0.668" stop-color="#F3C9A4"/>
<stop offset="0.908" stop-color="#F2C69D"/>
<stop offset="1" stop-color="#F2C498"/>
</radialGradient>
<clipPath id="clip0">
<rect width="135.477" height="126.751" fill="white"/>
</clipPath>
</defs>
</svg>
