<svg xmlns="http://www.w3.org/2000/svg" xmlns:xlink="http://www.w3.org/1999/xlink" width="135.477" height="126.751" viewBox="0 0 135.477 126.751">
    <defs>
        <radialGradient id="radial-gradient" cx=".5" cy=".5" r=".524" gradientTransform="matrix(.914 0 0 1 .043 0)" gradientUnits="objectBoundingBox">
            <stop offset="0" stop-color="#f4caa6"/>
            <stop offset=".668" stop-color="#f3c9a4"/>
            <stop offset=".908" stop-color="#f2c69d"/>
            <stop offset="1" stop-color="#f2c498"/>
        </radialGradient>
        <radialGradient id="radial-gradient-2" cx=".5" cy=".5" r=".959" gradientTransform="matrix(.397 0 0 1 .302 0)" xlink:href="#radial-gradient"/>
        <radialGradient id="radial-gradient-3" cx=".5" cy=".5" r=".93" gradientTransform="matrix(.411 0 0 1 .294 0)" xlink:href="#radial-gradient"/>
        <linearGradient id="linear-gradient" x1=".5" x2=".5" y1="1" gradientUnits="objectBoundingBox">
            <stop offset=".128" stop-color="#f5cfa3"/>
            <stop offset=".406" stop-color="#f3ca9e"/>
            <stop offset="1" stop-color="#f2c498"/>
        </linearGradient>
        <linearGradient id="linear-gradient-2" x1=".5" x2=".5" y2="1" gradientUnits="objectBoundingBox">
            <stop offset="0" stop-color="#edbc94"/>
            <stop offset=".628" stop-color="#edbd95"/>
            <stop offset=".854" stop-color="#f0c49a"/>
            <stop offset="1" stop-color="#f5cfa3"/>
        </linearGradient>
        <style>
            .cls-1{fill:#edbc94}.cls-3{fill:#f2c498}.cls-4{fill:#ecb388}.cls-5{fill:#f7d5a9}.cls-6{fill:#e7a277}.cls-8{fill:#c68260}.cls-10{fill:#423030}.cls-11{fill:#493434}.cls-12{fill:url(#linear-gradient-2)}.cls-14{fill:#5b4f4f}.cls-16{fill:none;stroke-miterlimit:10;stroke:#3c2415}
        </style>
    </defs>
    <g id="Group_345" transform="translate(-1097.044 -353.203)">
        <g id="Group_87" transform="translate(-1354)">
            <path id="Path_210" d="M2518.357 458.007c11.738-.156 29.635-15.252 32.465-14.375l.089.027a45.116 45.116 0 0 1-7.581-2.948c-3.086-1.635-3.062-9.035-3.062-9.035-1.11-2.628-42.773-.066-42.773-.066s-.934 8.113-4.379 9.707a49.486 49.486 0 0 1-6.139 2.224l.063-.019c2.311-.705 19.58 14.642 31.317 14.485z" class="cls-1"/>
            <path id="Path_211" fill="#a49898" d="M2583.541 460.248c-1.686-5.607-5.887-7.808-11.541-10.257-5.293-2.294-13.051-3.955-19.773-5.936l-.188-.055-.475-.142-.184-.056-.469-.143-.089-.027c-2.83-.877-20.727 14.219-32.465 14.375s-29.006-15.19-31.317-14.485l-.063.019-.391.117-.263.079-.4.12-.257.075-.42.122-.255.073-.421.12-.263.075-.435.122-.252.071c-6.253 1.742-13.319 3.425-18.051 5.476-5.653 2.449-9.4 4.65-11.08 10.257-.569 1.893-3.231 19.579-3.441 19.578l67.483.127h.512l67.482-.127c-.214.001-2.415-17.685-2.984-19.578z"/>
            <g id="Group_78">
                <path id="Path_212" d="M2549.968 402.223c-.915-.668-2.883-.374-3.917.071 0 .269-.01.537-.017.806q-.021.775-.058 1.551-.083 1.76-.245 3.512-.082.875-.183 1.747c-.024.215-.051.431-.078.646-.285 1.92-.543 3.418-.625 4.066a69.4 69.4 0 0 1-1.6 6.8 4.461 4.461 0 0 0 3.251-3.359 42.56 42.56 0 0 1 2.826-9.658c1.778-5.005.646-6.182.646-6.182z" class="cls-3"/>
                <path id="Path_213" d="M2548.164 409.724s1.669-4.8 1.176-5.35c-.8-.89-2.876 1.5-3.591 3.643q-.081.876-.182 1.748c1.455-3.471 3.255-2.845 2.597-.041z" class="cls-4"/>
                <path id="Path_214" d="M2544.584 417.125s1.325-.584 1.512-1.394-.4-1.469.218-1.725 1.255-1.343 1.46-1.65 1.144-4.066.446-5.14-2.662 2.215-2.662 2.215z" class="cls-5"/>
                <path id="Path_215" d="M2545.4 411.137c.182-.058 1.6-1.919 1.963-1.683.535.344.166 2.529-.626 3.647a7.942 7.942 0 0 1-1.889 1.521z" class="cls-6"/>
            </g>
            <g id="Group_79">
                <path id="Path_216" d="M2487.543 402.223c.915-.668 2.883-.374 3.916.071.005.269.011.537.018.806q.021.775.058 1.551.083 1.76.245 3.512.082.875.183 1.747c.024.215.051.431.078.646.285 1.92.543 3.418.625 4.066a69.4 69.4 0 0 0 1.6 6.8 4.464 4.464 0 0 1-3.252-3.359 42.531 42.531 0 0 0-2.825-9.658c-1.778-5.005-.646-6.182-.646-6.182z" class="cls-3"/>
                <path id="Path_217" d="M2489.347 409.724s-1.67-4.8-1.176-5.35c.8-.89 2.876 1.5 3.591 3.643q.081.876.182 1.748c-1.455-3.471-3.255-2.845-2.597-.041z" class="cls-4"/>
                <path id="Path_218" d="M2492.927 417.125s-1.326-.584-1.512-1.394.4-1.469-.218-1.725-1.255-1.343-1.46-1.65-1.144-4.066-.446-5.14 2.662 2.215 2.662 2.215z" class="cls-5"/>
                <path id="Path_219" d="M2492.114 411.137c-.182-.058-1.6-1.919-1.963-1.683-.535.344-.166 2.529.626 3.647a7.942 7.942 0 0 0 1.889 1.521z" class="cls-6"/>
            </g>
            <path id="Path_220" d="M2548.345 383.627c-.535-24.384-28.825-24.322-29.579-24.316s-29.044-.068-29.579 24.316c-.372 16.993-.087 16.418.493 19.222s1.917 9.091 2.191 12.268.263 12.958 4.37 19.748a88.164 88.164 0 0 0 8.5 11.928c.613.668 1.988 2.435 2.629 3.012 1.239 1.119 6.5 5.273 11.4 4.679 4.9.594 10.02-3.171 11.4-4.679.582-.636 2.015-2.344 2.629-3.012a88.18 88.18 0 0 0 8.5-11.928c4.108-6.79 4.1-16.572 4.371-19.748s1.61-9.464 2.19-12.268.858-2.229.485-19.222z" class="cls-3"/>
            <path id="Path_221" d="M2515.574 431.236s.312-3.855-2.632-4.957-12.79-2.508-13.2-2.8c.232.167.5.944.66 1.188a13.256 13.256 0 0 0 5.181 4.695c1.827.81 3.866.8 5.864 1.037.46.052 4.143.285 4.127.837z" class="cls-1"/>
            <g id="Group_81">
                <path id="Path_222" fill="#db956e" d="M2517.318 448.9a5.276 5.276 0 0 0 2.878 0c2.677-.058 5.788-2.913 5.788-2.913a13.986 13.986 0 0 1-5.788 1.993 5.3 5.3 0 0 1-2.878 0c-2.677-.058-6.117-2.124-6.117-2.124.15.14.3.275.438.406a1.265 1.265 0 0 0-.209-.275s3.211 2.859 5.888 2.913z"/>
                <path id="Path_223" d="M2517.4 450.221a12.409 12.409 0 0 1 1.8-.012c2.523.361 4.674-1.817 5.843-3.069a10.5 10.5 0 0 0 .944-1.149s-3.111 2.855-5.788 2.913a5.276 5.276 0 0 1-2.878 0c-2.677-.058-5.888-2.913-5.888-2.913a1.265 1.265 0 0 1 .209.275q.425.39.811.726c2.93 2.563 4.203 3.301 4.947 3.229z" class="cls-6"/>
                <g id="Group_80">
                    <path id="Path_224" d="M2517.6 447.975a9.631 9.631 0 0 1-2.756-.52 21.376 21.376 0 0 1-2.608-1.061c-.325-.157-.585-.291-.763-.385s-.277-.149-.277-.149.094.061.269.163.428.248.749.416a16.815 16.815 0 0 0 2.6 1.112 8.6 8.6 0 0 0 2.782.474c.359.026.649.07.848.1s.309.055.309.055-.108-.028-.306-.071a8 8 0 0 0-.847-.134z" class="cls-8"/>
                    <path id="Path_225" d="M2525.721 446.137c-.17.091-.417.222-.727.372-.155.077-.327.155-.511.241s-.382.172-.594.256-.433.173-.665.262c-.116.043-.236.082-.356.125-.061.02-.121.043-.183.062l-.187.057-.187.058-.093.028-.093.025-.364.1c-.12.03-.24.051-.356.077l-.173.036c-.057.012-.114.018-.17.027l-.328.049c-.107.013-.212.018-.312.027l-.293.022c-.094.007-.185.011-.271.023-.345.039-.62.1-.809.135s-.292.068-.292.068.1-.02.295-.053.467-.074.81-.1c.086-.009.176-.01.27-.014l.294-.013c.102-.004.208-.008.316-.018l.333-.042c.057-.008.115-.013.172-.024l.176-.034c.117-.024.238-.043.36-.073l.369-.093.094-.024.094-.029.188-.057.189-.059c.062-.019.123-.042.183-.064.122-.043.242-.084.358-.128.232-.092.456-.18.665-.274s.406-.186.59-.272.352-.176.5-.259c.306-.161.547-.3.712-.4s.255-.159.255-.159l-.259.139z" class="cls-8"/>
                </g>
            </g>
            <path id="Path_226" fill="url(#linear-gradient)" d="M2524.625 438.925c-.159-.286-.324-.581-.47-.895s-.267-.536-.379-.746a6.153 6.153 0 0 1-.591-1.4c-.028-.1-.237-1.122-.327-1.559a29.039 29.039 0 0 0-1.555-5.632 3.944 3.944 0 0 0-2.426-1.494v-.026l-.063.012-.06-.012v.025a4.029 4.029 0 0 0-2.492 1.495 29.126 29.126 0 0 0-1.555 5.632c-.089.437-.3 1.462-.326 1.559a6.208 6.208 0 0 1-.591 1.4c-.113.21-.24.447-.379.746s-.311.609-.47.895c-.547.982-1.019 1.831-.584 2.994a5.429 5.429 0 0 0 2.2 2.322 16.26 16.26 0 0 1 1.412 1.106 13.1 13.1 0 0 0 2.751.942.188.188 0 0 0 .066.011.181.181 0 0 0 .065-.011 13.088 13.088 0 0 0 2.751-.942 16.52 16.52 0 0 1 1.412-1.106 5.432 5.432 0 0 0 2.2-2.322c.429-1.163-.043-2.012-.589-2.994z"/>
            <path id="Path_227" d="M2521.981 431.236s-.313-3.855 2.633-4.957 12.795-2.508 13.2-2.8c-.232.167-.5.944-.66 1.188a13.113 13.113 0 0 1-5.183 4.629 19.989 19.989 0 0 1-5.867 1.1c-.455.055-4.14.288-4.123.84z" class="cls-1"/>
            <g id="Group_83">
                <path id="Path_228" d="M2501.536 425.36s3.011 5.515 8.5 1.677c0 0-4.836-2.992-8.5-1.677z" class="cls-4"/>
                <g id="Group_82">
                    <path id="Path_229" d="M2510.036 427.037l-.333.246c-.054.038-.113.084-.181.129l-.224.141c-.081.049-.166.1-.259.159l-.3.159a6.019 6.019 0 0 1-1.6.554 5.23 5.23 0 0 1-2.084-.036 5.8 5.8 0 0 1-1.028-.346 6.236 6.236 0 0 1-.879-.488 7.391 7.391 0 0 1-1.287-1.092 8.011 8.011 0 0 1-.715-.878c-.152-.22-.224-.348-.224-.348s.088.118.261.319a9.628 9.628 0 0 0 .783.8 8.478 8.478 0 0 0 1.317.986 6.96 6.96 0 0 0 .858.439 6.5 6.5 0 0 0 .98.317 5.574 5.574 0 0 0 1.977.078 6.549 6.549 0 0 0 1.577-.442l.309-.131c.1-.045.185-.092.269-.134l.235-.117c.071-.038.133-.077.191-.109z" class="cls-10"/>
                </g>
                <path id="Path_230" d="M2514.314 428.139s1.76.213 1.117-.751a2.488 2.488 0 0 0-1.267-.761s-10.7-4.842-12.017-5.257-4.46.14-5.117-1.268c0 0-.443 4.694 8.58 5.727 0 0 8.2 2.263 8.704 2.31z" class="cls-10"/>
                <path id="Path_231" d="M2505.61 424.23s5.941 1.639 8.02 2.156c-2.178-.983-10.342-4.657-11.483-5.016-1.026-.323-3.151-.06-4.356-.587.952 1.352 3.079 2.904 7.819 3.447z" class="cls-11"/>
            </g>
            <g id="Group_85">
                <path id="Path_232" d="M2536.039 425.36s-3.011 5.515-8.5 1.677c0 0 4.838-2.992 8.5-1.677z" class="cls-4"/>
                <g id="Group_84">
                    <path id="Path_233" d="M2527.539 427.037l.356.205c.058.033.12.072.191.109l.233.117.268.133.308.13a6.407 6.407 0 0 0 1.57.434 5.345 5.345 0 0 0 1.963-.1 6.218 6.218 0 0 0 .967-.335 6.868 6.868 0 0 0 .843-.458 8.325 8.325 0 0 0 1.284-1.015 9.57 9.57 0 0 0 .758-.817c.167-.2.251-.324.251-.324s-.068.13-.214.352a7.683 7.683 0 0 1-.688.892 7.291 7.291 0 0 1-1.251 1.121 6.347 6.347 0 0 1-.863.508 5.715 5.715 0 0 1-1.015.365 5.063 5.063 0 0 1-2.074.062 5.866 5.866 0 0 1-1.593-.548l-.3-.157c-.092-.055-.177-.11-.258-.159l-.223-.14c-.067-.045-.126-.09-.18-.128z" class="cls-10"/>
                </g>
                <path id="Path_234" d="M2523.261 428.139s-1.76.213-1.117-.751a2.489 2.489 0 0 1 1.268-.761s10.7-4.842 12.017-5.257 4.459.14 5.116-1.268c0 0 .444 4.694-8.58 5.727 0 0-8.2 2.263-8.704 2.31z" class="cls-10"/>
                <path id="Path_235" d="M2532.013 424.23s-5.942 1.639-8.02 2.156c2.178-.983 10.341-4.657 11.483-5.016 1.026-.323 3.151-.06 4.355-.587-.952 1.352-3.079 2.904-7.818 3.447z" class="cls-11"/>
            </g>
            <path id="Path_236" d="M2516.524 451.133a9.328 9.328 0 0 0 4.517 0 6.283 6.283 0 0 0-4.517 0z" class="cls-4"/>
            <path id="Path_237" d="M2524.43 438.46s-.869-.442-1.727 1.857c0 0-1.51-8.828-.464-10.733 0 0 2.692.28 1.388.517-2.276.414.613 7.419.803 8.359z" class="cls-12"/>
            <path id="Path_238" d="M2513.155 438.46s.868-.442 1.727 1.857c0 0 1.51-8.828.464-10.733 0 0-2.693.28-1.389.517 2.277.414-.612 7.419-.802 8.359z" class="cls-12"/>
            <ellipse id="Ellipse_5" cx="28.252" cy="25.81" fill="url(#radial-gradient)" rx="28.252" ry="25.81" transform="translate(2490.291 361.479)"/>
            <g id="Group_86">
                <path id="Path_239" d="M2545.374 402.007a7.94 7.94 0 0 0-2.537-5.618c-.578-.534-1.209-1.01-1.769-1.565-.434.286-.9.535-1.353.782-4.509 2.441-10.128 4.7-15.274 3.107.865 0 1.483-.192 1.374-1.177-3.82 2.291-9.168 3.936-13.455 1.979-.272-.124-.46-.312-.754-.316a12.315 12.315 0 0 1-1.57-.117 10.593 10.593 0 0 1-2.816-.786 8.275 8.275 0 0 1-4.162-4 5.656 5.656 0 0 0 1.071.019 9.347 9.347 0 0 1-1.954-.571 7.628 7.628 0 0 1-3.334-2.391 5.714 5.714 0 0 1-.586.946c-.695.895-1.761 1.277-2.551 2.055a227.8 227.8 0 0 0-2.707 3.651 8.575 8.575 0 0 0-1.2 4.542 8.759 8.759 0 0 0 .11.956 9.7 9.7 0 0 1 1.088-2.935 16.107 16.107 0 0 1 1.3-1.779 15.865 15.865 0 0 1 1.4-1.872c.79-.778 1.856-1.16 2.551-2.055a5.714 5.714 0 0 0 .586-.946 7.628 7.628 0 0 0 3.334 2.391 9.348 9.348 0 0 0 1.954.571.027.027 0 0 0 .011-.01l-.011.01a5.576 5.576 0 0 1-1.071-.019 8.271 8.271 0 0 0 4.162 4 10.593 10.593 0 0 0 2.816.786 12.309 12.309 0 0 0 1.57.117c.294 0 .482.192.754.316 4.287 1.957 9.635.313 13.455-1.979.109.985-.509 1.177-1.374 1.177 5.146 1.6 10.765-.666 15.274-3.107.456-.247.919-.5 1.353-.782.56.555 1.191 1.031 1.769 1.566a7.842 7.842 0 0 1 2.508 5.228 18.3 18.3 0 0 0 .038-2.174z" class="cls-1"/>
            </g>
        </g>
        <path id="Path_240" d="M2530.163 449.8c-1.377 1.508-6.5 5.273-11.4 4.679-4.9.594-10.157-3.56-11.4-4.679-.641-.577-2.016-2.344-2.629-3.012a86.7 86.7 0 0 1-8.061-11.21 11.837 11.837 0 0 1-2.49 4.964c3.6 7.507 11.511 14.552 24.593 14.552 12.986 0 19.514-7.045 24.575-14.374l-.028-.014c-1.478-.783-2.242-2.888-2.638-4.869a86.316 86.316 0 0 1-7.9 10.951c-.607.673-2.04 2.381-2.622 3.012z" class="cls-4" transform="translate(-1354)"/>
        <path id="Path_321" d="M2493.37 455.5q-.187.445-.384.886l.254-.363c.049-.174.092-.348.13-.523m21.23-102.3a29.668 29.668 0 0 0-7.533 1.01 40.353 40.353 0 0 0-28.157 28.344c-2.832 10.984-.817 22.663 2.608 33.476s8.235 21.173 11.175 32.127a15.909 15.909 0 0 1 .679 7.343 49.883 49.883 0 0 0 3.593-24.778c-.944-8.458-3.975-17.462-.242-25.11a7.951 7.951 0 0 1 4.071-4.184 9.745 9.745 0 0 1 3.014-.46c4.8-.185 9.636-.051 14.347-1 4.868-.979 6.8-2.469 9.387-6.219l.215 3.9c-.025.9.7 1.027 1.6 1.027.175 0 .356 0 .539-.01s.369-.009.552-.009.371.005.549.02c6.428.542 8.853 6.867 8.853 6.867 1.591 4.9 3.2 9.9 3.136 15.051-.068 5.475-2.019 10.725-3.19 16.073s1.348 12.054 4.277 16.679c1.275-11.325 7.41-24.812 10.506-36.857s4.263-24.937.659-36.841a34.73 34.73 0 0 0-4.8-10.144 27.667 27.667 0 0 0-22.156-11.385c-.279 0-.559.005-.838.014l.166-.216c-3.4-3.37-8.15-4.718-13.01-4.718" class="cls-14" transform="translate(-1354)"/>
        <path id="Path_322" d="M2557.279 400.5s-5.739 18 .182 44.75c0 0-8.171-.282-12.921-4.433s12.739-40.317 12.739-40.317z" class="cls-14" transform="translate(-1354)"/>
        <path id="Path_323" d="M2479.405 400.5s5.738 18-.183 44.75c0 0 8.171-.282 12.921-4.433s-12.738-40.317-12.738-40.317z" class="cls-14" transform="translate(-1354)"/>
        <path id="Path_330" fill="none" stroke="#fee0c2" stroke-miterlimit="10" stroke-width="2px" d="M2529.9 360.773s3.583 15.065 0 30.565" transform="translate(-1354)"/>
        <path id="Path_331" d="M2529.77 377.171a16.767 16.767 0 0 0-11.084-2.792c-7.361.434-12.905 3.822-18.5 8.625-9.7 8.326-9.411 20.784-10.073 24.7-1.355 8.014.3 16.226 2.508 24.047 1.671 5.908 3.664 12.244 1.61 18.03" class="cls-16" transform="translate(-1354)"/>
        <path id="Path_332" d="M2484.936 424.171c1 12-2.312 22.917-3 27a97.735 97.735 0 0 0-1.231 12.658" class="cls-16" transform="translate(-1354)"/>
        <path id="Path_333" fill="none" stroke="#3c2415" stroke-miterlimit="10" stroke-width="0.7px" d="M2477.353 436.171c-2.833 12.667-1.5 13.667-1.167 18.667.284 4.262-1.516 12.5-1.666 16.666" transform="translate(-1354)"/>
        <path id="Path_334" d="M2475.835 417.343a52.526 52.526 0 0 1-.9 6.745c-1 4.153-1.516 12.5-1.666 16.666" class="cls-16" transform="translate(-1354)"/>
        <path id="Path_335" d="M2560.5 400.519c1.682 4.485-.328 8.858.682 15.235 1.13 7.129 3.431 13.409 3.084 15.584" class="cls-16" transform="translate(-1354)"/>
        <path id="Path_336" d="M2564.776 437.6c.009 5.862-.9 8.817 2.41 13.4s.681 8.727 3.25 13.25" class="cls-16" transform="translate(-1354)"/>
        <path id="Path_337" d="M2558.6 425c-.417 7.75 2.833 15 4 25.5" class="cls-16" transform="translate(-1354)"/>
        <path id="Path_338" d="M2529.311 364.5c-11.375-5.125-24.625.125-30.875 5.625-4.844 4.263-11.625 15.375-12 21.625-.487 8.113 3.14 19.012 5.352 26.832 1.671 5.908 3.664 12.244 1.61 18.03" class="cls-16" transform="translate(-1354)"/>
        <path id="Path_339" d="M2525.717 360.669c-3.418-2.337-7.8-2.768-11.93-2.524-7.361.434-14.9 3.006-19.8 8.512-3.141 3.528-19.548 23.1-7.639 47.821 2.664 5.531 3.663 12.243 1.61 18.029" class="cls-16" transform="translate(-1354)"/>
        <path id="Path_340" d="M2529.27 383.671c-4.911-3.356-7.168-2.452-12-2.167-7.362.434-12.938 3.4-17.842 8.906-3.142 3.528-5 7.991-6.7 12.4a59.5 59.5 0 0 0-3.452 11.374c-1.355 8.013.3 16.226 2.508 24.047 1.671 5.908 3.664 12.244 1.61 18.03" class="cls-16" transform="translate(-1354)"/>
        <path id="Path_341" d="M2529.156 369.077c-8.345-2.073-14.686-.272-21.251 2.7a31.25 31.25 0 0 0-10.016 7.57 44.559 44.559 0 0 0-10.724 37.643c.8 4.273 2.233 8.407 3.076 12.672 1.343 6.794 1.168 13.794.7 20.7" class="cls-16" transform="translate(-1354)"/>
        <path id="Path_342" d="M2533.1 381.5c2.167-1 11.027 3.058 12.667 10.334 2 8.875-.084 26.041-2.209 34.041-.8 3.029-3.336 13.005-2.784 16.09s2.359 6.1 5.233 7.354" class="cls-16" transform="translate(-1354)"/>
        <path id="Path_343" d="M2531.77 390.5c2.847-1.043 10.027 2.224 11.666 9.5a60.864 60.864 0 0 1 1.165 12.256" class="cls-16" transform="translate(-1354)"/>
        <path id="Path_344" d="M2532.672 386.3c2.1-.626 8.875 2.181 10.514 9.457a60.864 60.864 0 0 1 1.165 12.256" class="cls-16" transform="translate(-1354)"/>
        <path id="Path_345" d="M2530.436 393.671c3.667-.167 11.611 4.057 13.25 11.333a60.864 60.864 0 0 1 1.165 12.256" class="cls-16" transform="translate(-1354)"/>
        <path id="Path_346" d="M2533.922 377.856a5.423 5.423 0 0 1 7.01-.742c8.5 6.015 9.063 21.253 7.754 28.515s-6.052 26.54-5.5 29.625 2.377 10.5 5.25 11.75" class="cls-16" transform="translate(-1354)"/>
        <path id="Path_347" d="M2533.27 370.838c1.636-1.966 11.666-2 13.921 5.076a45.417 45.417 0 0 1 1.213 21.816c-1.31 7.262-3.682 14.29-5.249 21.5a24.125 24.125 0 0 0-.634 9.318c.552 3.085 2.359 6.1 5.232 7.354" class="cls-16" transform="translate(-1354)"/>
        <path id="Path_348" d="M2533.77 368.171c15.333-6.833 18.834 17.123 18.666 24.5-.166 7.333-1.333 21-2.333 28.667-.405 3.107-1.5 14.166 3 18.666" class="cls-16" transform="translate(-1354)"/>
        <path id="Path_349" d="M2532.436 366c2.761-1.561 8.766-1.592 11.705-.4a14.028 14.028 0 0 1 7.137 7.452 36.873 36.873 0 0 1 2.494 10.238c.992 7.3 1.6 14.79.013 21.985-1.1 5-3.229 9.706-5.058 14.49s-3.385 9.791-3.26 14.911 2.174 10.416 6.344 13.388" class="cls-16" transform="translate(-1354)"/>
        <path id="Path_350" d="M2528.679 359.816c-1.713-.965-2.767-2.794-4.368-3.937-2.428-1.734-5.67-1.63-8.649-1.454" class="cls-16" transform="translate(-1354)"/>
        <path id="Path_351" d="M2532.1 361.5c1.866-.775 7.32.163 9.209.88a24.1 24.1 0 0 1 5.211 3.063" class="cls-16" transform="translate(-1354)"/>
        <path id="Path_352" d="M2528.436 388.838c-7-6.25-26 1.416-28.5 9.916-1.852 6.3-6 12.149-5.226 18.668s2.36 12.932 2.864 19.477-.175 13.431-3.6 19.029" class="cls-16" transform="translate(-1354)"/>
        <path id="Path_353" d="M2527.1 395.838c-5.5 0-10.167.416-16.167 3.666-5.772 3.127-11.278 5.527-14 11.5" class="cls-16" transform="translate(-1354)"/>
        <path id="Path_354" d="M2527.27 391.5c-6.167-1.5-11.334-.75-17.334 2.5-5.772 3.127-10.278 6.777-13 12.75" class="cls-16" transform="translate(-1354)"/>
        <path id="Path_355" fill="url(#radial-gradient-2)" d="M2522.836 428.084a70.1 70.1 0 0 1 13.089-5.327s-.083 0 1.6-.261c0 0 2.092-.154 4.1-.23a5.407 5.407 0 0 0 .87-.794l-.76-1.62-8.855.264-10.656 5.02L2521 428s.476.786 1.836.084z" transform="translate(-1354)"/>
        <path id="Path_356" fill="url(#radial-gradient-3)" d="M2514.6 428.084a70.1 70.1 0 0 0-13.089-5.327s.083 0-1.6-.261c0 0-2.093-.154-4.1-.23 0 0 1.486-.122.873-.762l-.983-1.652 8.854.264 10.656 5.02 1.215 2.864s-.47.786-1.826.084z" transform="translate(-1354)"/>
    </g>
</svg>
