<svg xmlns="http://www.w3.org/2000/svg" xmlns:xlink="http://www.w3.org/1999/xlink" width="133.65" height="126.316" viewBox="0 0 133.65 126.316">
    <defs>
        <radialGradient id="radial-gradient" cx=".5" cy=".5" r=".524" gradientTransform="matrix(.914 0 0 1 .043 0)" gradientUnits="objectBoundingBox">
            <stop offset="0" stop-color="#f4caa6"/>
            <stop offset=".668" stop-color="#f3c9a4"/>
            <stop offset=".908" stop-color="#f2c69d"/>
            <stop offset="1" stop-color="#f2c498"/>
        </radialGradient>
        <radialGradient id="radial-gradient-2" cx=".5" cy=".5" r=".461" gradientTransform="matrix(1.068 .451 -.539 .893 .235 -.172)" xlink:href="#radial-gradient"/>
        <radialGradient id="radial-gradient-3" cx=".5" cy=".5" r=".959" gradientTransform="matrix(.397 0 0 1 .302 0)" xlink:href="#radial-gradient"/>
        <linearGradient id="linear-gradient" x1=".5" x2=".5" y1="1" gradientUnits="objectBoundingBox">
            <stop offset=".128" stop-color="#f5cfa3"/>
            <stop offset=".406" stop-color="#f3ca9e"/>
            <stop offset="1" stop-color="#f2c498"/>
        </linearGradient>
        <linearGradient id="linear-gradient-2" x1=".5" x2=".5" y2="1" gradientUnits="objectBoundingBox">
            <stop offset="0" stop-color="#edbc94"/>
            <stop offset=".628" stop-color="#edbd95"/>
            <stop offset=".854" stop-color="#f0c49a"/>
            <stop offset="1" stop-color="#f5cfa3"/>
        </linearGradient>
        <linearGradient id="linear-gradient-3" x1=".5" x2=".5" y1="0" y2="1" xlink:href="#linear-gradient-2"/>
        <style>
            .cls-1{fill:#edbc94}.cls-3{fill:#f2c498}.cls-4{fill:#ecb388}.cls-5{fill:#f7d5a9}.cls-6{fill:#e7a277}.cls-8{fill:#c68260}.cls-10{fill:#423030}.cls-11{fill:#493434}.cls-16{fill:#624444}.cls-20{fill:url(#radial-gradient-3)}
        </style>
    </defs>
    <g id="Group_343" transform="translate(-796.154 -353.203)">
        <g id="Group_11" transform="translate(-1354)">
            <g id="Group_1">
                <path id="Path_1" d="M2248.586 443.687a44.191 44.191 0 0 1-7.39-2.881c-3.045-1.613-3.022-8.913-3.022-8.913-1.094-2.592-42.2-.065-42.2-.065s-.922 8-4.32 9.575a48.384 48.384 0 0 1-5.994 2.176c-3.4 1.036 13.824 15.921 31.166 15.961 17.564.042 35.245-14.774 31.76-15.853z" class="cls-1"/>
            </g>
            <g id="Group_2">
                <path id="Path_2" fill="#a49898" d="M2280.864 460.079c-1.663-5.531-5.808-7.7-11.385-10.118s-13.966-4.129-20.893-6.274c-2.791-.864-20.447 14.028-32.026 14.182s-28.615-14.985-30.9-14.29c-6.84 2.085-15.639 3.978-21.186 6.382-5.577 2.416-9.268 4.587-10.931 10.118-.561 1.868-3.186 19.315-3.394 19.315l66.573.125h.5l66.572-.125c-.194 0-2.368-17.447-2.93-19.315z"/>
            </g>
            <g id="Group_3">
                <path id="Path_3" d="M2247.744 402.837c-.9-.658-2.844-.369-3.864.07q-.006.4-.017.8-.021.765-.057 1.53-.081 1.736-.242 3.464-.081.863-.18 1.724l-.077.637c-.282 1.894-.536 3.372-.617 4.011a68.505 68.505 0 0 1-1.578 6.712 4.4 4.4 0 0 0 3.208-3.313 41.919 41.919 0 0 1 2.788-9.528c1.753-4.944.636-6.107.636-6.107z" class="cls-3"/>
                <path id="Path_4" d="M2245.964 410.237s1.647-4.737 1.16-5.278c-.791-.878-2.836 1.476-3.542 3.594q-.081.864-.18 1.724c1.435-3.424 3.211-2.806 2.562-.04z" class="cls-4"/>
                <path id="Path_5" d="M2242.433 417.538s1.307-.576 1.491-1.375-.393-1.449.215-1.7 1.238-1.325 1.441-1.629 1.128-4.01.439-5.07-2.625 2.185-2.625 2.185z" class="cls-5"/>
                <path id="Path_6" d="M2243.234 411.631c.18-.057 1.575-1.893 1.937-1.66.528.339.164 2.495-.617 3.6a7.868 7.868 0 0 1-1.864 1.5z" class="cls-6"/>
            </g>
            <g id="Group_4">
                <path id="Path_7" d="M2186.161 402.837c.9-.658 2.844-.369 3.863.07l.018.8q.021.765.057 1.53.081 1.736.242 3.464.081.863.18 1.724c.024.212.051.425.077.637.282 1.894.536 3.372.617 4.011a68.431 68.431 0 0 0 1.577 6.712 4.4 4.4 0 0 1-3.208-3.313 41.9 41.9 0 0 0-2.787-9.528c-1.753-4.944-.636-6.107-.636-6.107z" class="cls-3"/>
                <path id="Path_8" d="M2187.941 410.237s-1.647-4.737-1.16-5.278c.791-.878 2.837 1.476 3.542 3.594q.081.864.18 1.724c-1.435-3.424-3.211-2.806-2.562-.04z" class="cls-4"/>
                <path id="Path_9" d="M2191.472 417.538s-1.307-.576-1.491-1.375.393-1.449-.215-1.7-1.238-1.325-1.441-1.629-1.129-4.01-.44-5.07 2.626 2.185 2.626 2.185z" class="cls-5"/>
                <path id="Path_10" d="M2190.671 411.631c-.18-.057-1.575-1.893-1.937-1.66-.528.339-.164 2.495.617 3.6a7.843 7.843 0 0 0 1.864 1.5z" class="cls-6"/>
            </g>
            <path id="Path_11" d="M2246.143 384.492c-.528-24.055-28.436-23.994-29.18-23.988s-28.652-.067-29.18 23.988c-.368 16.764-.086 16.2.486 18.963s1.892 8.969 2.162 12.1.259 12.783 4.311 19.483a86.894 86.894 0 0 0 8.385 11.766c.6.659 1.961 2.4 2.593 2.972 1.223 1.1 6.411 5.2 11.243 4.616 4.833.585 9.884-3.129 11.243-4.616.574-.628 1.988-2.313 2.593-2.972a86.894 86.894 0 0 0 8.385-11.766c4.052-6.7 4.042-16.349 4.312-19.483s1.588-9.335 2.161-12.1.854-2.199.486-18.963z" class="cls-3"/>
            <path id="Path_12" d="M2213.814 431.459s.307-3.8-2.6-4.891-12.614-2.468-13.014-2.768c.229.164.489.931.652 1.172a13.082 13.082 0 0 0 5.11 4.631c1.8.8 3.815.792 5.785 1.023.453.058 4.083.289 4.067.833z" class="cls-1"/>
            <g id="Group_6">
                <path id="Path_13" fill="#db956e" d="M2215.535 448.889a5.236 5.236 0 0 0 2.838 0c2.642-.057 5.71-2.873 5.71-2.873a13.794 13.794 0 0 1-5.71 1.965 5.209 5.209 0 0 1-2.838 0c-2.642-.057-6.035-2.1-6.035-2.1.148.138.291.271.432.4a1.2 1.2 0 0 0-.207-.27s3.168 2.821 5.81 2.878z"/>
                <path id="Path_14" d="M2215.613 450.188a12.483 12.483 0 0 1 1.775-.013c2.489.357 4.611-1.791 5.765-3.027a10.549 10.549 0 0 0 .93-1.132s-3.068 2.816-5.71 2.873a5.236 5.236 0 0 1-2.838 0c-2.642-.057-5.81-2.873-5.81-2.873a1.2 1.2 0 0 1 .207.27q.42.385.8.717c2.893 2.528 4.15 3.256 4.881 3.185z" class="cls-6"/>
                <g id="Group_5">
                    <path id="Path_15" d="M2215.817 447.972a11.812 11.812 0 0 1-1.241-.132 11.593 11.593 0 0 1-1.477-.381 20.975 20.975 0 0 1-2.573-1.047c-.321-.154-.577-.286-.753-.379s-.273-.147-.273-.147.093.059.265.16.423.245.739.41a16.581 16.581 0 0 0 2.564 1.1 10.135 10.135 0 0 0 1.494.369 10.317 10.317 0 0 0 1.251.1c.354.025.64.069.836.1s.305.055.305.055-.107-.028-.3-.07a7.854 7.854 0 0 0-.837-.138z" class="cls-8"/>
                    <path id="Path_16" d="M2223.825 446.159c-.168.09-.412.219-.719.367-.152.076-.322.152-.5.238s-.377.169-.586.252-.428.171-.656.258c-.114.043-.233.081-.351.124-.06.02-.12.042-.181.061l-.184.057-.185.056-.091.029-.092.024-.36.094c-.118.03-.236.051-.351.076l-.17.036c-.057.012-.113.018-.168.027l-.324.048c-.1.014-.208.017-.308.026l-.288.022c-.094.007-.183.011-.268.023a7.9 7.9 0 0 0-.8.133c-.186.041-.288.068-.288.068s.1-.021.291-.053.461-.072.8-.1c.085-.009.174-.01.266-.013s.19-.009.29-.013.2-.008.312-.018l.328-.042c.057-.007.114-.012.171-.023l.173-.033c.116-.024.235-.043.355-.072l.364-.093.093-.023.092-.028.186-.057.186-.058c.062-.019.122-.042.182-.063.119-.043.238-.083.353-.127.228-.09.449-.177.655-.27s.4-.183.582-.268.347-.173.5-.255c.3-.16.54-.3.7-.4l.251-.156s-.093.056-.26.146z" class="cls-8"/>
                </g>
            </g>
            <path id="Path_17" fill="url(#linear-gradient)" d="M2222.742 439.044c-.156-.282-.318-.573-.463-.883-.138-.294-.263-.529-.374-.736a6.077 6.077 0 0 1-.583-1.38c-.027-.1-.234-1.108-.322-1.538a28.71 28.71 0 0 0-1.534-5.557 3.89 3.89 0 0 0-2.394-1.473v-.026l-.061.012-.06-.012v.025a3.966 3.966 0 0 0-2.458 1.474 28.64 28.64 0 0 0-1.534 5.557c-.088.43-.295 1.441-.322 1.538a6.077 6.077 0 0 1-.583 1.38c-.111.207-.237.442-.374.736-.145.31-.307.6-.464.883-.539.969-1 1.806-.576 2.953a5.348 5.348 0 0 0 2.168 2.291 16.324 16.324 0 0 1 1.393 1.091 12.863 12.863 0 0 0 2.714.93.185.185 0 0 0 .064.01.187.187 0 0 0 .065-.01 12.863 12.863 0 0 0 2.714-.93 16.21 16.21 0 0 1 1.393-1.091 5.354 5.354 0 0 0 2.168-2.291c.428-1.147-.037-1.984-.577-2.953z"/>
            <path id="Path_18" d="M2220.134 431.459s-.308-3.8 2.6-4.891 12.623-2.473 13.026-2.763c-.229.164-.489.931-.651 1.172a12.936 12.936 0 0 1-5.113 4.566 19.692 19.692 0 0 1-5.788 1.088c-.455.053-4.09.284-4.074.828z" class="cls-1"/>
            <g id="Group_8">
                <path id="Path_19" d="M2199.965 425.662s2.971 5.441 8.386 1.655c0 0-4.773-2.952-8.386-1.655z" class="cls-4"/>
                <g id="Group_7">
                    <path id="Path_20" d="M2208.351 427.317l-.329.242c-.053.038-.112.084-.178.128l-.221.138-.256.157-.3.157a5.956 5.956 0 0 1-1.577.547 5.182 5.182 0 0 1-2.056-.035 5.759 5.759 0 0 1-1.013-.342 6 6 0 0 1-.867-.482 7.286 7.286 0 0 1-1.27-1.077 7.815 7.815 0 0 1-.7-.866c-.15-.217-.221-.344-.221-.344s.086.117.257.316a9.7 9.7 0 0 0 .772.79 8.386 8.386 0 0 0 1.3.972 6.718 6.718 0 0 0 .847.433 6.24 6.24 0 0 0 .966.313 5.5 5.5 0 0 0 1.951.077 6.509 6.509 0 0 0 1.556-.436l.3-.129c.095-.045.182-.091.265-.132l.232-.116c.07-.037.132-.076.189-.108z" class="cls-10"/>
                </g>
                <path id="Path_21" d="M2212.571 428.4s1.737.211 1.1-.741a2.457 2.457 0 0 0-1.25-.75s-10.554-4.777-11.855-5.186-4.4.139-5.048-1.25c0 0-.437 4.63 8.464 5.649.002.003 8.092 2.235 8.589 2.278z" class="cls-10"/>
                <path id="Path_22" d="M2203.984 424.547s5.861 1.617 7.912 2.127c-2.148-.97-10.2-4.594-11.328-4.948-1.012-.319-3.109-.059-4.3-.579.942 1.334 3.04 2.865 7.716 3.4z" class="cls-11"/>
            </g>
            <g id="Group_10">
                <path id="Path_23" d="M2234 425.662s-2.97 5.441-8.385 1.655c.003 0 4.776-2.952 8.385-1.655z" class="cls-4"/>
                <g id="Group_9">
                    <path id="Path_24" d="M2225.618 427.317l.351.2c.057.032.118.07.188.107l.23.116c.083.04.171.085.264.131l.3.128a6.307 6.307 0 0 0 1.549.429 5.313 5.313 0 0 0 1.937-.1 6.1 6.1 0 0 0 .954-.331 6.984 6.984 0 0 0 .832-.451 8.3 8.3 0 0 0 1.266-1 9.35 9.35 0 0 0 .747-.805c.165-.2.248-.321.248-.321s-.067.129-.211.348a7.785 7.785 0 0 1-.678.88 7.282 7.282 0 0 1-1.235 1.106 6.166 6.166 0 0 1-.851.5 5.608 5.608 0 0 1-1 .361 5 5 0 0 1-2.046.061 5.789 5.789 0 0 1-1.57-.54l-.3-.156c-.092-.053-.176-.107-.255-.156l-.22-.138c-.067-.044-.124-.089-.178-.127z" class="cls-10"/>
                </g>
                <path id="Path_25" d="M2221.4 428.4s-1.737.211-1.1-.741a2.457 2.457 0 0 1 1.25-.75s10.553-4.777 11.855-5.186 4.4.139 5.047-1.25c0 0 .438 4.63-8.464 5.649-.004.003-8.088 2.235-8.588 2.278z" class="cls-10"/>
                <path id="Path_26" d="M2230.031 424.547s-5.861 1.617-7.912 2.127c2.149-.97 10.2-4.594 11.328-4.948 1.012-.319 3.109-.059 4.3-.579-.947 1.334-3.04 2.865-7.716 3.4z" class="cls-11"/>
            </g>
            <path id="Path_27" d="M2214.752 451.087a9.191 9.191 0 0 0 4.455 0 6.2 6.2 0 0 0-4.455 0z" class="cls-4"/>
            <path id="Path_28" fill="url(#linear-gradient-2)" d="M2222.55 438.585s-.856-.435-1.7 1.832c0 0-1.49-8.709-.458-10.588 0 0 2.656.276 1.37.51-2.249.408.601 7.319.788 8.246z"/>
            <path id="Path_29" fill="url(#linear-gradient-3)" d="M2211.427 438.585s.857-.435 1.7 1.832c0 0 1.49-8.709.458-10.588 0 0-2.656.276-1.37.51 2.25.408-.6 7.319-.788 8.246z"/>
            <ellipse id="Ellipse_1" cx="27.871" cy="25.462" fill="url(#radial-gradient)" rx="27.871" ry="25.462" transform="translate(2189.409 363.605)"/>
            <path id="Path_30" d="M2198.074 365.836c.84-2.231-4.71 1.864-6.43 3.549a21.421 21.421 0 0 0-4.891 8.6 31.067 31.067 0 0 0-.986 7.427c-.586 7.749 1.721 13.958 3.221 21.4a76.375 76.375 0 0 1 1.544 10.037 49.528 49.528 0 0 0 .338-10.345 28.807 28.807 0 0 1-.161-5.773c.2-1.755 1.481-3.389 1.975-5.565 1.1-4.826 2.15-10.42 6.051-12.465 1.989-1.038-3.297-9.86-.661-16.865z" class="cls-10"/>
            <path id="Path_31" d="M2235.583 365.836c-.84-2.231 4.71 1.864 6.43 3.549a21.422 21.422 0 0 1 4.89 8.6 31.118 31.118 0 0 1 .987 7.427c.585 7.749-1.479 13.958-2.979 21.4a76.415 76.415 0 0 0-1.544 10.037 49.724 49.724 0 0 1-.58-10.345c.164-1.914.956-6.7.418-8.986-.341-1.449-1.3-1.708-1.455-3.645-.527-6.671-4.182-9.785-6.828-11.172-1.989-1.038 3.297-9.86.661-16.865z" class="cls-10"/>
            <path id="Path_32" d="M2228.206 449.778c-1.359 1.487-6.41 5.2-11.243 4.616-4.832.585-10.02-3.513-11.243-4.616-.632-.57-1.988-2.313-2.593-2.972a85.677 85.677 0 0 1-7.953-11.059 11.677 11.677 0 0 1-2.456 4.9c3.553 7.406 11.356 14.356 24.261 14.356 12.811 0 19.251-6.95 24.244-14.18l-.027-.014c-1.458-.772-2.212-2.848-2.6-4.8a85.083 85.083 0 0 1-7.795 10.8c-.607.656-2.021 2.341-2.595 2.969z" class="cls-4"/>
        </g>
        <path id="Path_33" d="M2237.471 365.644s-2.375-.875-3.75-1.25c0 0 2 4.75-.75 17.5a1.066 1.066 0 0 0 .625 1.5 6.61 6.61 0 0 1 2.625.625s4.879-7.125 1.25-18.375z" class="cls-10" transform="translate(-1354)"/>
        <path id="Path_34" d="M2196.612 365.616s2.322-.855 3.667-1.222c0 0-1.956 4.644.733 17.11a1.042 1.042 0 0 1-.611 1.467 6.464 6.464 0 0 0-2.567.611s-4.766-6.966-1.222-17.966z" class="cls-10" transform="translate(-1354)"/>
        <ellipse id="Ellipse_10" cx="7.261" cy="8.688" fill="url(#radial-gradient-2)" rx="7.261" ry="8.688" transform="rotate(-26.779 1257.36 -1620.5)"/>
        <path id="Path_277" d="M2192.055 456.026c.726-2.561.142-5.3-.548-7.866-2.941-10.954-7.751-21.314-11.176-32.127s-5.439-22.492-2.607-33.475a40.352 40.352 0 0 1 28.157-28.345c7.044-1.866 15.371-1.426 20.543 3.708l-.166.216a27.635 27.635 0 0 1 22.994 11.371 34.731 34.731 0 0 1 4.8 10.144c3.6 11.9 2.438 24.794-.659 36.84s-9.231 25.533-10.506 36.859c-2.93-4.626-5.448-11.332-4.277-16.68s3.122-10.6 3.19-16.073c.064-5.149-.116-9.237-1.708-14.134 0 0 .123-9.751-6.3-10.293-1.425-.12-4.7-.515-4.664-1.944l-2.764-.473c-2.587 3.75-4.519 5.24-9.387 6.219-4.711.947-9.546.813-14.348 1a9.716 9.716 0 0 0-3.013.461 7.948 7.948 0 0 0-4.072 4.183c-3.732 7.648-.7 16.652.243 25.11a49.861 49.861 0 0 1-3.978 25.664" class="cls-16" transform="translate(-1354)"/>
        <path id="Path_278" d="M2256.094 400.5s-5.738 18 .183 44.75c0 0-8.171-.282-12.921-4.433s12.738-40.317 12.738-40.317z" class="cls-16" transform="translate(-1354)"/>
        <path id="Path_279" d="M2178.22 400.5s5.739 18-.182 44.75c0 0 8.171-.282 12.921-4.433S2178.22 400.5 2178.22 400.5z" class="cls-16" transform="translate(-1354)"/>
        <path id="Path_280" fill="#b99678" d="M2237.277 364.2c.188 1.382-1.751.807-3.762.225 1.733 1.9 4.3 2.641 5.708 4.263-.485.308-2.463-.79-2.343.049.1.685 1.472 1.109 2.215 1.675 1.56 1.188 3.994 2.034 4.873 3.611-1.6-.112-3.9-1.747-4.476-.819-.941 1.517-.406 3.385 4.372 5.231-1.9.244-3.515-.836-4.488-.475.784.818 2.729 1.254 2.871 2.5-1.913-.694-4.407-1.6-2.754.7.831 1.157 3.165 2.095 3.487 3.411-.815.3-2.2-.968-2.994-.447.317 1.022 2.49 1.865 2.725 2.982-.863.327-3.136-1.724-3.367-.267 1.75 1.7-.007 1.654-1.436 1.769-1.094-.307-1.859-.974-1.649-1.39.716-1.419-.9-2.97-2.343-4.542-.52-.566-1.109-1.317-.523-1.528 1.326-.479-.348-1.729-.145-2.173.828-1.815-1.009-4.474.532-5.93.874-.826-1.241-2.934 1.953-2.6-4.13-2.35-5.77-4.892-5.175-7.219.382-1.495-2.324-1.891-4.1-3.076.205 1.917 1.075 4.093-3.537 2.485a2.124 2.124 0 0 0-.037.4c.2 1.134 2.63 2.84.878 3.413-1.717.562-3.376-1.3-5.121-1.9-.355-.121-.726-.118-1.1-.216a2.689 2.689 0 0 1-.9-.536c-1.844-1.45-2.968-3.094-5.732-4.6 3.251-.142 5.218 1.917 7.334 2.76 1.014-.092.48-.571.219-.931-1.349-1.86-.148-1.916 2.284-1.179.812.246 1.878.931 2.4.531.618-.469-.543-1.191-1.162-1.754-1.245-1.133-2.637-2.232-4.135-3.485 1.53-.078 2.813.751 4.069 1.192 1.007.353 1.788.62 1.483-.261z" transform="translate(-1354)"/>
        <path id="Path_281" fill="#b59378" d="M2216.633 363.787l.968.341c4.062 2.048 4.467 4.361 5.3 6.546.432 1.132-1.267.633-2.744.15 1.1 1.316 3.325 2.559 3 3.815-.188.723-1.687.245-2.571.388 1.354 1.511 2.959 2.97 4.273 4.466.682.776 1.693 1.712 1.051 2.238-.737.605-2.25-.375-3.024-.552-.845 1.845.6 3.517 4.31 4.935.436.167.943.7.809.893-1.331 1.918 2.935 4.029 3.558 6.2.254-.226.344-.254.336-.306-.405-2.516-1.835-5.613 4.875-4.052.331.077.607-.253.963-.353.325-.665 2.583-.3 1.609-1.659 1.038.949 3.465 2.044.7 2.476-.527.082 2.05 1.947 2.88 3.033a51.756 51.756 0 0 1-5.607-.36c-1.6-.109-.457.611-.613.922l2.418 2.547c-1.447.106-2.2-1.255-3.43-1.28.01.931 1.512 1.876 1.962 2.839-.771.425-5.241-1-6.67-1.3-3.121-1.944-5.061-2.4-8.063-4.466l5.907 2.386c-1.328-2.054-3.939-3.119-6.185-4.709.924.127 2.079.452 2.221.274.428-.538-.918-.919-1.519-1.373-.289-.218-.6-.429-.9-.644-.67-.48-1.958-.858-1.928-1.438.041-.8 1.8.293 2.5-.183l-15.966-9.762c3.555.426 6.314 2.234 9.241 3.254.668-1.009-1.954-1.725-2.292-2.8 1.971-.014 4.2 1.044 6.58 1.537-1.492-2.65-5.2-4.4-8.018-6.325.272-.443.851-.163 1.3-.094 1.528.237 3.966 1.578 4.449.874.557-.814-1.5-2.257-2.718-3.386-1.289-1.2-2.744-2.362-4.405-3.778 2.832.388 5.018 1.69 7.428 2.649.582-1.266-1.889-2.73-1.985-3.943z" transform="translate(-1354)"/>
        <path id="Path_282" fill="#deb490" d="M2238.311 389.21c1.163 2.344-1.205 1.576-3.448.86-2.508-.8-4-.863-1.973 1.158 1.765 1.763-.747 2.436.793 4.229.5.584-1.562.079-2.236-.632-1.739-1.834-2.21-3.834-5.244-5.51-.2-.108-.327-.593-.163-.672 3.323-1.6-1.093-2.367-3.037-3.339-1.4-.7-2.984-1.472-3.271-2.406-.384-1.248 2.1.432 2.545-.321-.416-.85-3.039-1.763-2.346-2.861 1.916.175 3.222 1.988 5.377 2.072-1.352-2.351-3.97-4.564-6.332-6.8-.458-.433-1.7-.808-1.158-1.287.357-.317 1.05-.012 1.725.319.953.466 2.062.683 2.515.363.643-.454-.476-1.218-1.13-1.855-1.23-1.2-3.062-2.289-3.77-3.543a2 2 0 0 1 1.553.251c1 .4 1.861 1.512 2.823 1.312 1.29-.267-.626-1.323-.687-1.949-.172-1.766-2.2-3.472-3.863-5.2 1.38-1.143 2.536.509 3.706 1.183.815.471 1.578 1.163 2.408.835.59-.232.25-.8-.32-1.318-1.4-1.269-1.187-2.407-2.522-3.9 1.185.423 1.842.613 2.456.884 3.118 1.375 3.514.7 2.628-1.009-.364-.7-1.55-1.712-.245-1.9 1.152-.162 2.2.78 3.238 1.375.824.473 1.658.945 2.523 1.373 1.955.967 3.15 1.777.855 2.151-1.3.211-1.61.73.135 1.778.327.2.811.561.784.693-.521 2.489 3.128 3.58 6.1 4.834-.208.826-1.3.586-2.335.384-1.124-.219-2.031-.046-1.094.7 1.969 1.573 1.548 1.992-.592 1.934-1.073-.029-1.259.46-.348 1.161 2.112 1.623 1.462 2.632.371 3.313-1.286.8-1.061 1.462 1.27 2.477.6.263 1.406.535 1.4 1.033 0 .467-.705.408-1.355.282-1.375-.266-2.566-.378-1.337.882 2.059 2.114 4.676 4.243 2.871 5.949-.066.072.474.473.73.717z" transform="translate(-1354)"/>
        <path id="Path_283" d="M2221.207 428.459a70.126 70.126 0 0 1 13.09-5.327s-.083 0 1.6-.261c0 0 2.092-.154 4.1-.23a5.4 5.4 0 0 0 .87-.794l-.76-1.62-8.855.264-10.656 5.02-1.215 2.864s.467.786 1.826.084z" class="cls-20" transform="translate(-1354)"/>
        <path id="Path_284" d="M2214.969 428.459a70.092 70.092 0 0 0-13.09-5.327s.084 0-1.6-.261c0 0-2.093-.154-4.1-.23a5.363 5.363 0 0 1-.871-.794l.761-1.62 8.854.264 10.656 5.02 1.215 2.864s-.466.786-1.825.084z" class="cls-20" transform="translate(-1354)"/>
    </g>
</svg>
