<svg xmlns="http://www.w3.org/2000/svg" xmlns:xlink="http://www.w3.org/1999/xlink" width="132.109" height="125.748" viewBox="0 0 132.109 125.748">
    <defs>
        <radialGradient id="radial-gradient" cx=".5" cy=".5" r=".524" gradientTransform="matrix(.914 0 0 1 .043 0)" gradientUnits="objectBoundingBox">
            <stop offset="0" stop-color="#f4caa6"/>
            <stop offset=".668" stop-color="#f3c9a4"/>
            <stop offset=".908" stop-color="#f2c69d"/>
            <stop offset="1" stop-color="#f2c498"/>
        </radialGradient>
        <radialGradient id="radial-gradient-2" cx=".5" cy=".5" r=".461" gradientTransform="matrix(1.197 0 0 1 -.098 0)" xlink:href="#radial-gradient"/>
        <radialGradient id="radial-gradient-3" cx=".5" cy=".5" r=".959" gradientTransform="matrix(.397 0 0 1 .302 0)" xlink:href="#radial-gradient"/>
        <radialGradient id="radial-gradient-4" cx=".5" cy=".5" r=".959" gradientTransform="matrix(.397 0 0 1 .302 0)" xlink:href="#radial-gradient"/>
        <linearGradient id="linear-gradient" x1=".5" x2=".5" y1="1" gradientUnits="objectBoundingBox">
            <stop offset=".128" stop-color="#f5cfa3"/>
            <stop offset=".406" stop-color="#f3ca9e"/>
            <stop offset="1" stop-color="#f2c498"/>
        </linearGradient>
        <linearGradient id="linear-gradient-2" x1=".5" x2=".5" y2="1" gradientUnits="objectBoundingBox">
            <stop offset="0" stop-color="#edbc94"/>
            <stop offset=".628" stop-color="#edbd95"/>
            <stop offset=".854" stop-color="#f0c49a"/>
            <stop offset="1" stop-color="#f5cfa3"/>
        </linearGradient>
        <style>
            .cls-1{fill:#edbc94}.cls-3{fill:#f2c498}.cls-4{fill:#ecb388}.cls-5{fill:#f7d5a9}.cls-6{fill:#e7a277}.cls-8{fill:#c68260}.cls-10{fill:#423030}.cls-11{fill:#493434}.cls-12{fill:url(#linear-gradient-2)}.cls-16{fill:#624444}
        </style>
    </defs>
    <g id="Group_341" transform="translate(-501.622 -353.203)">
        <g id="Group_76" transform="translate(-1354)">
            <g id="Group_65">
                <path id="Path_174" d="M1952.92 443.532a43.634 43.634 0 0 1-7.306-2.848c-3.01-1.6-2.986-8.811-2.986-8.811-1.082-2.562-41.709-.063-41.709-.063s-.911 7.911-4.27 9.464a47.925 47.925 0 0 1-5.925 2.15c-3.363 1.026 13.7 15.019 30.865 15.058 17.338.04 34.772-13.882 31.331-14.95z" class="cls-1"/>
            </g>
            <g id="Group_66">
                <path id="Path_175" fill="#a49898" d="M1984.825 459.734c-1.644-5.467-5.741-7.613-11.254-10s-13.805-4.081-20.651-6.2c-2.76-.855-20.213 13.865-31.658 14.018s-28.285-14.812-30.538-14.125c-6.761 2.061-15.459 3.932-20.942 6.308-5.512 2.388-9.161 4.534-10.8 10-.555 1.847-3.15 19.093-3.356 19.093l65.805.123h.5l65.8-.123c-.204-.001-2.351-17.247-2.906-19.094z"/>
            </g>
            <g id="Group_67">
                <path id="Path_176" d="M1952.086 403.153c-.891-.651-2.81-.365-3.818.069-.005.262-.01.524-.018.786q-.019.758-.056 1.513-.079 1.716-.239 3.424-.079.854-.178 1.7c-.024.21-.05.42-.076.63-.279 1.872-.53 3.333-.61 3.964a67.67 67.67 0 0 1-1.559 6.635 4.346 4.346 0 0 0 3.17-3.275 41.468 41.468 0 0 1 2.756-9.418c1.733-4.881.628-6.028.628-6.028z" class="cls-3"/>
                <path id="Path_177" d="M1950.328 410.467s1.628-4.683 1.146-5.217c-.782-.868-2.8 1.459-3.5 3.553q-.079.854-.178 1.7c1.418-3.381 3.173-2.77 2.532-.036z" class="cls-4"/>
                <path id="Path_178" d="M1946.837 417.684s1.292-.569 1.474-1.359-.388-1.433.212-1.682 1.224-1.309 1.425-1.609 1.115-3.965.434-5.012-2.595 2.16-2.595 2.16z" class="cls-5"/>
                <path id="Path_179" d="M1947.629 411.845c.177-.056 1.557-1.871 1.915-1.641.521.335.162 2.467-.611 3.557a7.738 7.738 0 0 1-1.842 1.482z" class="cls-6"/>
            </g>
            <g id="Group_68">
                <path id="Path_180" d="M1891.214 403.153c.892-.651 2.811-.365 3.819.069.005.262.01.524.018.786q.019.758.056 1.513.081 1.716.239 3.424.08.854.178 1.7c.024.21.05.42.076.63.279 1.872.53 3.333.61 3.964a67.67 67.67 0 0 0 1.559 6.635 4.348 4.348 0 0 1-3.171-3.275 41.439 41.439 0 0 0-2.755-9.418c-1.733-4.881-.629-6.028-.629-6.028z" class="cls-3"/>
                <path id="Path_181" d="M1892.973 410.467s-1.628-4.683-1.146-5.217c.782-.868 2.8 1.459 3.5 3.553q.079.854.178 1.7c-1.418-3.381-3.173-2.77-2.532-.036z" class="cls-4"/>
                <path id="Path_182" d="M1896.464 417.684s-1.292-.569-1.474-1.359.388-1.433-.213-1.682-1.223-1.309-1.424-1.609-1.115-3.965-.434-5.012 2.6 2.16 2.6 2.16z" class="cls-5"/>
                <path id="Path_183" d="M1895.672 411.845c-.178-.056-1.557-1.871-1.915-1.641-.521.335-.162 2.467.611 3.557a7.735 7.735 0 0 0 1.842 1.482z" class="cls-6"/>
            </g>
            <path id="Path_184" d="M1950.5 385.02c-.521-23.779-28.107-23.718-28.843-23.712s-28.322-.067-28.843 23.712c-.364 16.57-.086 16.01.48 18.744s1.87 8.865 2.136 11.962.257 12.635 4.262 19.258a85.8 85.8 0 0 0 8.289 11.631c.6.651 1.938 2.374 2.562 2.937 1.21 1.091 6.337 5.142 11.114 4.563 4.777.579 9.77-3.093 11.113-4.563.567-.621 1.965-2.286 2.563-2.937a85.8 85.8 0 0 0 8.289-11.631c4.005-6.623 3.994-16.16 4.261-19.258s1.57-9.228 2.137-11.962.848-2.174.48-18.744z" class="cls-3"/>
            <path id="Path_185" d="M1918.548 431.445s.3-3.76-2.567-4.835-12.471-2.445-12.87-2.732c.226.163.483.921.644 1.159a12.918 12.918 0 0 0 5.052 4.578c1.781.79 3.769.783 5.717 1.011.448.053 4.04.281 4.024.819z" class="cls-1"/>
            <g id="Group_70">
                <path id="Path_186" fill="#db956e" d="M1920.249 448.673a5.145 5.145 0 0 0 2.806 0c2.611-.056 5.644-2.84 5.644-2.84a13.644 13.644 0 0 1-5.644 1.943 5.145 5.145 0 0 1-2.806 0c-2.611-.057-5.965-2.071-5.965-2.071.146.137.288.268.427.4a1.178 1.178 0 0 0-.2-.268s3.127 2.78 5.738 2.836z"/>
                <path id="Path_187" d="M1920.327 449.957a12.276 12.276 0 0 1 1.754-.012c2.46.352 4.558-1.771 5.7-2.993a10.3 10.3 0 0 0 .92-1.119s-3.033 2.784-5.644 2.84a5.145 5.145 0 0 1-2.806 0c-2.611-.056-5.742-2.84-5.742-2.84a1.178 1.178 0 0 1 .2.268q.414.379.79.708c2.863 2.499 4.101 3.218 4.828 3.148z" class="cls-6"/>
                <g id="Group_69">
                    <path id="Path_188" d="M1920.528 447.767a11.228 11.228 0 0 1-1.226-.131 11.462 11.462 0 0 1-1.461-.376 20.716 20.716 0 0 1-2.542-1.035c-.318-.152-.571-.283-.746-.375s-.269-.145-.269-.145.092.059.262.159.417.241.73.4a16.425 16.425 0 0 0 2.535 1.085 8.431 8.431 0 0 0 2.713.462c.35.025.632.068.826.1s.3.055.3.055-.106-.028-.3-.07a7.778 7.778 0 0 0-.822-.129z" class="cls-8"/>
                    <path id="Path_189" d="M1928.443 445.975c-.166.089-.406.217-.71.363-.15.075-.318.15-.5.235s-.373.167-.58.249-.422.169-.648.255c-.113.043-.23.08-.347.122-.06.02-.118.042-.179.061l-.182.056-.182.056-.091.028-.09.024-.356.093c-.117.03-.234.051-.347.075l-.169.036c-.055.011-.111.017-.166.026l-.32.048c-.1.013-.2.017-.3.026l-.285.021c-.092.007-.181.011-.265.023a7.712 7.712 0 0 0-.788.132c-.184.04-.285.067-.285.067s.1-.021.288-.052.455-.072.79-.1c.083-.008.171-.009.262-.013l.287-.013c.099-.005.2-.007.308-.017l.325-.041c.055-.008.112-.013.168-.023l.171-.033c.115-.023.233-.043.351-.071l.361-.092.091-.023.092-.028.183-.056.184-.057c.061-.019.12-.041.179-.062.119-.043.236-.082.35-.126.225-.089.444-.174.648-.267s.4-.181.575-.265.343-.171.491-.252c.3-.158.533-.3.7-.394s.248-.155.248-.155-.096.055-.262.144z" class="cls-8"/>
                </g>
            </g>
            <path id="Path_190" fill="url(#linear-gradient)" d="M1927.373 438.942c-.154-.279-.315-.567-.457-.873-.136-.291-.261-.523-.37-.727a5.981 5.981 0 0 1-.576-1.365c-.027-.1-.232-1.094-.319-1.52a28.377 28.377 0 0 0-1.516-5.492 3.842 3.842 0 0 0-2.366-1.457v-.026l-.061.012-.059-.012v.025a3.923 3.923 0 0 0-2.43 1.458 28.377 28.377 0 0 0-1.516 5.492c-.087.426-.292 1.425-.319 1.52a5.937 5.937 0 0 1-.576 1.365c-.109.2-.233.436-.369.727-.143.306-.3.594-.459.873a3.215 3.215 0 0 0-.569 2.919 5.285 5.285 0 0 0 2.143 2.265 16.153 16.153 0 0 1 1.377 1.078 12.691 12.691 0 0 0 2.682.919.191.191 0 0 0 .128 0 12.667 12.667 0 0 0 2.682-.919 16.164 16.164 0 0 1 1.378-1.078 5.288 5.288 0 0 0 2.142-2.265 3.213 3.213 0 0 0-.57-2.919z"/>
            <path id="Path_191" d="M1924.8 431.445s-.3-3.76 2.568-4.835 12.478-2.445 12.876-2.732c-.226.163-.483.921-.644 1.159a12.788 12.788 0 0 1-5.054 4.514 19.469 19.469 0 0 1-5.72 1.075c-.453.053-4.047.281-4.026.819z" class="cls-1"/>
            <g id="Group_72">
                <path id="Path_192" d="M1904.86 425.714s2.936 5.378 8.288 1.636c0 0-4.718-2.918-8.288-1.636z" class="cls-4"/>
                <g id="Group_71">
                    <path id="Path_193" d="M1913.148 427.35l-.325.24c-.053.037-.11.082-.176.126l-.218.136-.254.156-.3.155a5.884 5.884 0 0 1-1.558.541 5.125 5.125 0 0 1-2.033-.036 5.608 5.608 0 0 1-1-.337 6.023 6.023 0 0 1-.857-.476 7.23 7.23 0 0 1-1.256-1.065 7.682 7.682 0 0 1-.7-.856c-.148-.214-.218-.34-.218-.34s.085.116.254.312a9.454 9.454 0 0 0 .763.781 8.3 8.3 0 0 0 1.284.961 6.7 6.7 0 0 0 .838.428 6.06 6.06 0 0 0 .955.309 5.44 5.44 0 0 0 1.928.077 6.451 6.451 0 0 0 1.537-.431l.3-.128c.094-.044.181-.09.263-.131l.228-.114c.07-.037.131-.075.187-.107z" class="cls-10"/>
                </g>
                <path id="Path_194" d="M1917.319 428.424s1.717.208 1.09-.732a2.424 2.424 0 0 0-1.236-.742s-10.432-4.722-11.719-5.126-4.348.137-4.989-1.236c0 0-.432 4.577 8.367 5.584 0 0 7.996 2.206 8.487 2.252z" class="cls-10"/>
                <path id="Path_195" d="M1908.832 424.612s5.794 1.6 7.82 2.1c-2.123-.959-10.084-4.541-11.2-4.891-1-.315-3.072-.058-4.246-.573.93 1.322 3.004 2.835 7.626 3.364z" class="cls-11"/>
            </g>
            <g id="Group_74">
                <path id="Path_196" d="M1938.5 425.714s-2.936 5.378-8.288 1.636c.004 0 4.721-2.918 8.288-1.636z" class="cls-4"/>
                <g id="Group_73">
                    <path id="Path_197" d="M1930.216 427.35l.347.2c.056.032.117.07.186.106l.227.114.261.13.3.126a6.232 6.232 0 0 0 1.531.424 5.21 5.21 0 0 0 1.914-.1 6.022 6.022 0 0 0 .943-.326 6.735 6.735 0 0 0 .822-.447 8.164 8.164 0 0 0 1.252-.99 9.484 9.484 0 0 0 .739-.8c.163-.2.245-.317.245-.317s-.067.127-.209.344a7.83 7.83 0 0 1-.67.87 7.177 7.177 0 0 1-1.221 1.093 6.187 6.187 0 0 1-.841.495 5.543 5.543 0 0 1-.99.356 4.936 4.936 0 0 1-2.023.06 5.727 5.727 0 0 1-1.552-.533l-.3-.154c-.09-.053-.173-.107-.252-.155l-.217-.136c-.066-.044-.122-.088-.175-.126z" class="cls-10"/>
                </g>
                <path id="Path_198" d="M1926.044 428.424s-1.717.208-1.089-.732a2.424 2.424 0 0 1 1.236-.742s10.431-4.722 11.718-5.126 4.349.137 4.989-1.236c0 0 .433 4.577-8.366 5.584 0 0-7.996 2.206-8.488 2.252z" class="cls-10"/>
                <path id="Path_199" d="M1934.578 424.612s-5.794 1.6-7.82 2.1c2.123-.959 10.084-4.541 11.2-4.891 1-.315 3.073-.058 4.247-.573-.931 1.322-3.005 2.835-7.627 3.364z" class="cls-11"/>
            </g>
            <path id="Path_200" d="M1919.475 450.847a9.1 9.1 0 0 0 4.4 0 6.127 6.127 0 0 0-4.4 0z" class="cls-4"/>
            <path id="Path_201" d="M1927.184 438.488s-.847-.43-1.684 1.811c0 0-1.473-8.608-.453-10.466 0 0 2.626.273 1.354.505-2.22.403.599 7.234.783 8.15z" class="cls-12"/>
            <path id="Path_202" d="M1916.189 438.488s.847-.43 1.684 1.811c0 0 1.473-8.608.452-10.466 0 0-2.625.273-1.353.505 2.22.403-.597 7.234-.783 8.15z" class="cls-12"/>
            <path id="Path_203" fill="url(#radial-gradient)" d="M1949.524 389.541c0 13.9-12.335 25.168-27.55 25.168s-27.549-11.268-27.549-25.168 12.334-25.168 27.549-25.168 27.55 11.268 27.55 25.168z"/>
            <path id="Path_204" d="M1932.774 449.552c-1.343 1.47-6.336 5.142-11.113 4.563-4.777.579-9.9-3.472-11.114-4.563-.624-.563-1.964-2.286-2.562-2.937a84.574 84.574 0 0 1-7.861-10.932 11.553 11.553 0 0 1-2.428 4.841c3.512 7.321 11.225 14.19 23.981 14.19 12.663 0 19.029-6.869 23.964-14.017l-.027-.013c-1.441-.764-2.187-2.816-2.572-4.748a84.269 84.269 0 0 1-7.7 10.679c-.603.651-2.001 2.316-2.568 2.937z" class="cls-4"/>
            <g id="Group_75">
                <path id="Path_205" fill="#d8b49a" d="M1941.678 367.043a45.8 45.8 0 0 0-5.7-2.861c-1.142-.4-3.91 3.653-13.98 4.133h-.024c-10.071-.48-13.075-4.88-14.18-4.388-1.9.842-3.231 1.486-5.474 2.508l-.026.012c.371 3.5 2.246 9.688 3.7 13.527.221-3.261 3.755-5.261 7.1-3.3 2.173 1.273.495 3.731.4 8.082-.093 4.184 2.04 8.307 8.5 8.558 6.461-.251 8.594-4.374 8.5-8.558-.1-4.351-1.775-6.809.4-8.082 3.343-1.96 7.287-.223 8.2 2.119a33.892 33.892 0 0 0 2.584-11.75z"/>
                <path id="Path_206" d="M1952.3 387.69l-.029.138c.019.048.037.1.057.144a.561.561 0 0 0-.028-.282z" class="cls-10"/>
                <path id="Path_207" d="M1952.3 387.69l-.029.138c.019.048.037.1.057.144a.561.561 0 0 0-.028-.282z" class="cls-10"/>
                <path id="Path_208" d="M1951.215 380.986c-.628-2.423-1.017-4.952-2.192-7.191a9.488 9.488 0 0 0-.81-1.323c-3.871-5.116-4.871-4.477-6.535-5.429-.261 4.5-2.857 11.414-2.564 11.886s2.262 5.062 3.11 6.032a15.747 15.747 0 0 1 3.428 5.858 19.829 19.829 0 0 1 .705 4.287 9.436 9.436 0 0 1 1.582 4.345c.1 1.17-.4 2.321-.332 3.491a34.4 34.4 0 0 1-.237 4.615c-.1 1.251-.052 2.478-.052 3.727 0 1.211.173 2.445.272 3.657a12.253 12.253 0 0 1 .2 2.067 118.819 118.819 0 0 1 2.731-14.753 77.588 77.588 0 0 0 1.334-10.545 29.307 29.307 0 0 0-.64-10.724z" class="cls-10"/>
                <path id="Path_209" d="M1896.634 370.087c-2.361 2.192-3.844 5.465-4.834 8.5-.781 2.394-.191 4.889-.376 7.342-.578 7.659.982 13.8 2.465 21.154a75.641 75.641 0 0 1 1.645 9.922 48.94 48.94 0 0 0 .334-10.226c-.1-1.113-.445-2.2-.5-3.31-.151-2.871 2.3-5.42 2.9-8.166a13.168 13.168 0 0 1 1.7-3.8c.63-1.232 1.288-3.477 1.8-4.773a6.745 6.745 0 0 1 1.88-2.552 12.966 12.966 0 0 0 2.347-4.208c.21-1.022.052-1.1-.483-1.983a50.57 50.57 0 0 1-3.212-11.544c-1.594.721-2.054.289-5.666 3.644z" class="cls-10"/>
            </g>
        </g>
        <ellipse id="Ellipse_8" cx="7.261" cy="8.688" fill="url(#radial-gradient-2)" rx="7.261" ry="8.688" transform="translate(567.957 388.504)"/>
        <path id="Path_261" d="M1896.177 456.026c.726-2.561.142-5.3-.548-7.866-2.94-10.954-7.751-21.314-11.175-32.127s-5.44-22.492-2.608-33.475A40.353 40.353 0 0 1 1910 354.213c7.044-1.866 15.371-1.426 20.543 3.708l-.166.216a27.635 27.635 0 0 1 22.994 11.371 34.73 34.73 0 0 1 4.8 10.144c3.6 11.9 2.438 24.794-.659 36.84s-9.231 25.533-10.506 36.859c-2.929-4.626-5.448-11.332-4.277-16.68s3.122-10.6 3.19-16.073c.064-5.149-1.545-10.154-3.137-15.051 0 0-2.425-6.325-8.852-6.867-1.425-.121-3.275.4-3.236-1.028l-.215-3.9c-2.587 3.75-4.519 5.24-9.387 6.219-4.711.947-9.546.813-14.347 1a9.717 9.717 0 0 0-3.014.461 7.947 7.947 0 0 0-4.072 4.183c-3.732 7.648-.7 16.652.243 25.11a49.86 49.86 0 0 1-3.978 25.664" class="cls-16" transform="translate(-1354)"/>
        <path id="Path_262" d="M1960.217 400.5s-5.739 18 .182 44.75c0 0-8.171-.282-12.921-4.433s12.739-40.317 12.739-40.317z" class="cls-16" transform="translate(-1354)"/>
        <path id="Path_263" d="M1882.343 400.5s5.738 18-.183 44.75c0 0 8.171-.282 12.921-4.433s-12.738-40.317-12.738-40.317z" class="cls-16" transform="translate(-1354)"/>
        <path id="Path_264" fill="#b99678" d="M1936.329 361.662c-.045 1.309-.967 1.261-1.924 1.225.684 1.4 1.905 1.449 2.452 2.668-.276.433-1.164-.118-1.189.674-.02.648.632.7.95 1.056.668.751 1.812.933 2.1 2.25-.8.317-1.794-.677-2.179.389-.629 1.743-.548 3.436 1.679 3.977-.983.746-1.692.115-2.22.731.313.6 1.252.5 1.2 1.689-.9-.171-2.065-.4-1.463 1.422.3.916 1.387 1.215 1.417 2.423-.443.508-1.015-.364-1.469.36.057.92 1.07 1.168 1.075 2.2-.469.552-1.41-.857-1.675.637.712 1.208-.171 1.628-.9 2.122a.7.7 0 0 1-.693-.926c.505-1.586-.153-2.68-.724-3.841-.2-.417-.426-1-.109-1.362.719-.826 0-1.608.147-2.1.6-2.006-.056-4.13.871-5.973.525-1.045-.33-2.554 1.251-3.082-1.849-1.208-2.42-3.27-1.883-5.717.344-1.571-.983-1.238-1.761-1.93-.09 1.831.128 3.738-2.039 3.388-.041.267-.059.336-.06.4-.015 1.061 1.042 2.09.1 3.121-.925 1.011-1.574-.38-2.4-.5-.167-.025-.355.077-.536.082a.607.607 0 0 1-.4-.285c-.786-.934-1.187-2.251-2.431-2.994 1.657-1.007 2.443.492 3.427.756.522-.361.3-.69.2-.974-.493-1.469.12-1.845 1.274-1.769.385.025.855.413 1.162-.12.359-.626-.154-1.027-.41-1.415-.515-.781-1.106-1.49-1.737-2.322.782-.486 1.346-.014 1.936.085.473.079.841.132.776-.652z" transform="translate(-1354)"/>
        <path id="Path_265" fill="#b59378" d="M1925.937 366.771l.454.077c1.845.929 1.815 3.1 2.015 5.021.1 1-.7.961-1.4.88.425 1 1.421 1.628 1.128 2.95-.168.762-.877.692-1.339 1.069.531 1.124 1.2 2.13 1.707 3.25.266.581.682 1.232.3 1.92-.434.791-1.1.232-1.473.265-.613 2.04-.054 3.3 1.678 3.7a.593.593 0 0 1 .319.662c-.868 2.241 1.074 3.177 1.17 5.141.151-.29.2-.342.2-.39.05-2.367-.358-5.03 2.874-5.287.16-.012.333-.41.523-.6.232-.741 1.336-.987.981-2.061.429.656 1.544 1.085.1 2.247-.275.221.839 1.367 1.148 2.213a17.185 17.185 0 0 1-2.8 1.144c-.8.32-.293.722-.4 1.07l.964 1.858c-.742.491-.984-.646-1.6-.343-.089.913.574 1.441.7 2.268-.766.625-1.909-1.092-2.391.806-1.38-1.078-3.163-1.309-4.471-2.537l2.744.768c-.463-1.665-1.675-2.016-2.649-2.979.454-.122 1.005-.111 1.095-.324.271-.643-.371-.658-.629-.944-.124-.137-.258-.262-.387-.393-.291-.294-.9-.322-.829-.9.1-.793.879-.193 1.28-.847l-7.079-5.336c1.753-.531 2.964.511 4.34.732.44-1.171-.812-1.175-.874-2.146 1-.54 2.018-.1 3.17-.246-.485-2.207-2.183-2.936-3.411-4.078.183-.509.447-.388.668-.44.748-.175 1.844.492 2.16-.329.364-.948-.531-1.817-1.03-2.6-.53-.835-1.148-1.59-1.843-2.539 1.391-.374 2.364.321 3.485.622.428-1.398-.673-2.176-.598-3.344z" transform="translate(-1354)"/>
        <path id="Path_266" fill="#deb490" d="M1934.1 385.428c.331 1.882-.726 1.766-1.728 1.667-1.12-.111-1.824.206-1.052 1.572.674 1.192-.59 2.45-.027 3.727.184.415-.752.466-1.006-.024-.654-1.264-.687-3-1.975-3.793a.693.693 0 0 1-.013-.583c1.739-2.324-.3-1.921-1.129-2.334-.6-.3-1.283-.614-1.331-1.409-.063-1.062.961-.129 1.245-.939-.117-.684-1.281-.871-.845-2.065.9-.32 1.347 1.033 2.367.568a15.5 15.5 0 0 0-2.37-4.715c-.177-.287-.731-.323-.429-.9.2-.384.5-.276.792-.139a.889.889 0 0 0 1.165-.3c.351-.584-.11-1.012-.361-1.438-.472-.8-1.242-1.353-1.46-2.339.29-.351.5-.22.718-.159.436.123.743.936 1.221.507.641-.573-.172-1.071-.141-1.636.087-1.6-.72-2.667-1.346-3.849.768-1.41 1.161-.167 1.655.164.344.231.641.681 1.069.168a.926.926 0 0 0-.026-1.143c-.547-.826-.336-1.936-.83-2.988a7.931 7.931 0 0 1 1.087.2c1.356.49 1.61-.236 1.351-1.6-.106-.558-.576-1.2.065-1.7.565-.441.976.169 1.413.459a8.984 8.984 0 0 0 1.073.639c.84.4 1.332.857.2 1.782-.638.522-.837 1.083-.1 1.616.137.1.333.316.307.446-.487 2.442 1.15 2.535 2.449 2.949-.179.82-.678.873-1.152.946-.515.08-.964.469-.589.927.789.964.548 1.459-.467 1.944a.7.7 0 0 0-.277 1.166c.852.975.445 2.075-.141 2.982-.691 1.07-.646 1.625.369 1.979.264.092.62.143.57.605a.681.681 0 0 1-.674.6c-.63.1-1.188.3-.722 1.156.78 1.443 1.825 2.76.8 4.8-.047.086.175.321.275.484z" transform="translate(-1354)"/>
        <path id="Path_267" fill="url(#radial-gradient-3)" d="M1924.455 428.584a70.106 70.106 0 0 1 13.089-5.327s-.083 0 1.6-.261c0 0 2.093-.154 4.1-.23a5.4 5.4 0 0 0 .87-.794l-.76-1.62-8.854.264-10.657 5.02-1.215 2.864s.467.786 1.827.084z" transform="translate(-1354)"/>
        <path id="Path_268" fill="url(#radial-gradient-4)" d="M1918.216 428.584a70.1 70.1 0 0 0-13.089-5.327s.083 0-1.6-.261c0 0-2.093-.154-4.1-.23a5.361 5.361 0 0 1-.871-.794l.761-1.62 8.854.264 10.657 5.02 1.215 2.864s-.468.786-1.827.084z" transform="translate(-1354)"/>
    </g>
</svg>
