<svg xmlns="http://www.w3.org/2000/svg" xmlns:xlink="http://www.w3.org/1999/xlink" width="135.478" height="126.831" viewBox="0 0 135.478 126.831">
    <defs>
        <radialGradient id="radial-gradient" cx=".5" cy=".5" r=".524" gradientTransform="matrix(.914 0 0 1 .043 0)" gradientUnits="objectBoundingBox">
            <stop offset="0" stop-color="#f4caa6"/>
            <stop offset=".668" stop-color="#f3c9a4"/>
            <stop offset=".908" stop-color="#f2c69d"/>
            <stop offset="1" stop-color="#f2c498"/>
        </radialGradient>
        <radialGradient id="radial-gradient-2" cx=".5" cy=".5" r=".461" gradientTransform="matrix(1.197 0 0 1 -.098 0)" xlink:href="#radial-gradient"/>
        <radialGradient id="radial-gradient-3" cx=".5" cy=".5" r=".959" gradientTransform="matrix(.397 0 0 1 .302 0)" xlink:href="#radial-gradient"/>
        <linearGradient id="linear-gradient" x1=".5" x2=".5" y1="1" gradientUnits="objectBoundingBox">
            <stop offset=".128" stop-color="#f5cfa3"/>
            <stop offset=".406" stop-color="#f3ca9e"/>
            <stop offset="1" stop-color="#f2c498"/>
        </linearGradient>
        <linearGradient id="linear-gradient-2" x1=".5" x2=".5" y2="1" gradientUnits="objectBoundingBox">
            <stop offset="0" stop-color="#edbc94"/>
            <stop offset=".628" stop-color="#edbd95"/>
            <stop offset=".854" stop-color="#f0c49a"/>
            <stop offset="1" stop-color="#f5cfa3"/>
        </linearGradient>
        <linearGradient id="linear-gradient-3" x1=".5" x2=".5" y1="0" y2="1" xlink:href="#linear-gradient-2"/>
        <style>
            .cls-1{fill:#edbc94}.cls-3{fill:#f2c498}.cls-4{fill:#ecb388}.cls-5{fill:#f7d5a9}.cls-6{fill:#e7a277}.cls-8{fill:#c68260}.cls-10{fill:#423030}.cls-11{fill:#493434}.cls-16{fill:#624444}.cls-20{fill:url(#radial-gradient-3)}
        </style>
    </defs>
    <g id="Group_340" transform="translate(-351.236 -353.203)">
        <g id="Group_53" transform="translate(-1354)">
            <path id="Path_141" d="M1805.869 443.972a47.728 47.728 0 0 1-8.346-3.181c-3.087-1.634-3.063-9.034-3.063-9.034-1.109-2.629-42.773-.066-42.773-.066s-.934 8.112-4.378 9.706a49.21 49.21 0 0 1-6.077 2.2c-3.451 1.052 14.242 15.437 32.041 15.526 17.963.096 36.034-14.123 32.596-15.151z" class="cls-1"/>
        </g>
        <g id="Group_54" transform="translate(-1354)">
            <path id="Path_142" fill="#a49898" d="M1837.734 460.328c-1.686-5.607-5.888-7.807-11.541-10.257s-14.158-4.185-21.178-6.359c-2.83-.876-20.728 14.219-32.465 14.376s-29.006-15.191-31.318-14.486c-6.933 2.114-15.852 4.033-21.475 6.469-5.653 2.45-9.395 4.65-11.08 10.257-.569 1.893-3.23 19.579-3.441 19.579l67.483.126h.512l67.483-.126c-.214 0-2.414-17.686-2.98-19.579z"/>
        </g>
        <g id="Group_55" transform="translate(-1354)">
            <path id="Path_143" d="M1804.16 402.3c-.914-.668-2.883-.375-3.916.07-.005.269-.01.538-.018.807q-.021.775-.058 1.55-.081 1.76-.245 3.512-.081.874-.182 1.747-.038.324-.078.646c-.286 1.92-.544 3.418-.626 4.066a69.33 69.33 0 0 1-1.6 6.8 4.46 4.46 0 0 0 3.252-3.358 42.5 42.5 0 0 1 2.826-9.659c1.777-4.997.645-6.181.645-6.181z" class="cls-3"/>
            <path id="Path_144" d="M1802.356 409.8s1.67-4.8 1.176-5.351c-.8-.89-2.875 1.5-3.591 3.644q-.081.875-.182 1.747c1.455-3.466 3.255-2.84 2.597-.04z" class="cls-4"/>
            <path id="Path_145" d="M1798.777 417.2s1.325-.583 1.511-1.394-.4-1.469.218-1.724 1.255-1.343 1.461-1.651 1.143-4.066.445-5.139-2.661 2.214-2.661 2.214z" class="cls-5"/>
            <path id="Path_146" d="M1799.589 411.218c.182-.058 1.6-1.92 1.963-1.684.535.344.167 2.53-.625 3.647a7.952 7.952 0 0 1-1.89 1.521z" class="cls-6"/>
        </g>
        <g id="Group_56" transform="translate(-1354)">
            <path id="Path_147" d="M1741.736 402.3c.914-.668 2.882-.375 3.916.07q.006.4.018.807.021.775.057 1.55.082 1.76.246 3.512.081.874.182 1.747.038.324.078.646c.286 1.92.544 3.418.626 4.066a69.052 69.052 0 0 0 1.6 6.8 4.46 4.46 0 0 1-3.252-3.358 42.555 42.555 0 0 0-2.826-9.659c-1.781-4.997-.645-6.181-.645-6.181z" class="cls-3"/>
            <path id="Path_148" d="M1743.539 409.8s-1.669-4.8-1.176-5.351c.8-.89 2.876 1.5 3.591 3.644q.083.875.182 1.747c-1.454-3.466-3.254-2.84-2.597-.04z" class="cls-4"/>
            <path id="Path_149" d="M1747.119 417.2s-1.325-.583-1.511-1.394.4-1.469-.218-1.724-1.255-1.343-1.461-1.651-1.144-4.066-.445-5.139 2.661 2.214 2.661 2.214z" class="cls-5"/>
            <path id="Path_150" d="M1746.307 411.218c-.182-.058-1.6-1.92-1.964-1.684-.535.344-.166 2.53.626 3.647a7.929 7.929 0 0 0 1.89 1.521z" class="cls-6"/>
        </g>
        <path id="Path_151" d="M1802.538 383.707c-.535-24.384-28.825-24.322-29.58-24.316s-29.043-.068-29.578 24.316c-.373 16.994-.088 16.419.493 19.223s1.916 9.091 2.19 12.267.263 12.958 4.371 19.749a88.193 88.193 0 0 0 8.5 11.928c.614.668 1.989 2.434 2.629 3.012 1.24 1.118 6.5 5.273 11.4 4.679 4.9.594 10.02-3.171 11.4-4.679.581-.637 2.015-2.344 2.628-3.012a88.153 88.153 0 0 0 8.5-11.928c4.107-6.791 4.1-16.572 4.37-19.749s1.61-9.463 2.191-12.267.859-2.23.486-19.223z" class="cls-3" transform="translate(-1354)"/>
        <path id="Path_152" d="M1769.766 431.317s.312-3.856-2.632-4.958-12.79-2.507-13.2-2.8c.232.167.5.944.661 1.188a13.247 13.247 0 0 0 5.18 4.7c1.827.81 3.866.8 5.864 1.038.461.047 4.144.28 4.127.832z" class="cls-1" transform="translate(-1354)"/>
        <g id="Group_58" transform="translate(-1354)">
            <path id="Path_153" fill="#db956e" d="M1771.51 448.984a5.277 5.277 0 0 0 2.878 0c2.678-.058 5.788-2.912 5.788-2.912a13.985 13.985 0 0 1-5.788 1.992 5.276 5.276 0 0 1-2.878 0c-2.677-.058-6.116-2.123-6.116-2.123.149.14.295.274.437.4a1.237 1.237 0 0 0-.209-.274s3.211 2.859 5.888 2.917z"/>
            <path id="Path_154" d="M1771.59 450.3a12.572 12.572 0 0 1 1.8-.012c2.523.361 4.674-1.816 5.844-3.069a10.642 10.642 0 0 0 .943-1.148s-3.11 2.854-5.788 2.912a5.277 5.277 0 0 1-2.878 0c-2.677-.058-5.888-2.912-5.888-2.912a1.237 1.237 0 0 1 .209.274q.426.39.811.727c2.932 2.563 4.206 3.302 4.947 3.228z" class="cls-6"/>
            <g id="Group_57">
                <path id="Path_155" d="M1771.8 448.055a9.528 9.528 0 0 1-2.755-.52 21.084 21.084 0 0 1-2.608-1.061c-.325-.156-.585-.291-.764-.385s-.276-.148-.276-.148.094.06.268.162.428.248.749.416a16.919 16.919 0 0 0 2.6 1.113 8.68 8.68 0 0 0 2.783.474c.359.025.648.07.847.1s.309.056.309.056-.108-.029-.3-.071a7.989 7.989 0 0 0-.853-.136z" class="cls-8"/>
                <path id="Path_156" d="M1779.914 446.217c-.17.091-.417.222-.728.372-.154.078-.327.155-.51.241s-.383.172-.595.257-.433.173-.664.261c-.116.043-.236.082-.357.125-.06.021-.12.043-.182.063l-.187.057-.187.057-.093.029-.093.024-.365.1c-.12.031-.239.052-.356.077l-.173.037c-.056.011-.114.017-.17.026l-.328.049c-.107.014-.211.018-.312.027l-.292.022c-.095.007-.186.011-.272.023-.345.039-.619.1-.808.135s-.293.069-.293.069.1-.021.3-.053.468-.074.811-.1c.085-.009.176-.01.269-.013s.192-.009.294-.014.208-.007.316-.018l.333-.042c.057-.008.115-.013.173-.024l.175-.033c.117-.024.239-.044.36-.073l.37-.094.093-.024.094-.028.188-.058.189-.058c.062-.02.123-.043.184-.064.121-.044.242-.084.358-.129.232-.092.456-.179.665-.273s.405-.187.589-.273.352-.175.5-.258c.306-.162.547-.3.713-.4s.254-.159.254-.159-.093.046-.263.137z" class="cls-8"/>
            </g>
        </g>
        <path id="Path_157" fill="url(#linear-gradient)" d="M1778.817 439.005c-.159-.285-.323-.581-.47-.9-.139-.3-.266-.536-.379-.746a6.187 6.187 0 0 1-.591-1.4c-.027-.1-.237-1.123-.326-1.559a29.205 29.205 0 0 0-1.555-5.633 3.946 3.946 0 0 0-2.427-1.494v-.026l-.062.013-.06-.013v.026a4.019 4.019 0 0 0-2.492 1.494 29.132 29.132 0 0 0-1.556 5.633c-.089.436-.3 1.461-.326 1.559a6.143 6.143 0 0 1-.591 1.4c-.112.21-.239.448-.379.746-.146.314-.311.61-.47.9-.546.983-1.018 1.831-.584 2.994a5.427 5.427 0 0 0 2.2 2.322 16.74 16.74 0 0 1 1.412 1.106 13.024 13.024 0 0 0 2.75.942.2.2 0 0 0 .132 0 13.043 13.043 0 0 0 2.751-.942 16.45 16.45 0 0 1 1.412-1.106 5.43 5.43 0 0 0 2.2-2.322c.429-1.163-.042-2.011-.589-2.994z" transform="translate(-1354)"/>
        <path id="Path_158" d="M1776.173 431.317s-.312-3.856 2.633-4.958 12.8-2.507 13.2-2.8c-.232.167-.5.944-.661 1.188a13.094 13.094 0 0 1-5.183 4.629 19.943 19.943 0 0 1-5.866 1.1c-.455.056-4.14.289-4.123.841z" class="cls-1" transform="translate(-1354)"/>
        <g id="Group_60" transform="translate(-1354)">
            <path id="Path_159" d="M1755.729 425.44s3.011 5.515 8.5 1.678c0 0-4.839-2.992-8.5-1.678z" class="cls-4"/>
            <g id="Group_59">
                <path id="Path_160" d="M1764.229 427.118l-.333.245c-.055.039-.113.085-.181.13l-.224.14c-.081.05-.167.105-.26.159l-.3.159a6 6 0 0 1-1.6.555 5.231 5.231 0 0 1-2.084-.036 5.847 5.847 0 0 1-1.027-.347 6.18 6.18 0 0 1-.879-.488 7.371 7.371 0 0 1-1.288-1.092 7.883 7.883 0 0 1-.714-.878c-.153-.219-.224-.348-.224-.348s.087.119.26.32a9.8 9.8 0 0 0 .783.8 8.408 8.408 0 0 0 1.317.986 6.835 6.835 0 0 0 .859.439 6.369 6.369 0 0 0 .979.317 5.576 5.576 0 0 0 1.977.079 6.625 6.625 0 0 0 1.577-.442l.31-.131c.1-.046.185-.093.269-.134l.234-.118c.071-.037.134-.076.192-.109z" class="cls-10"/>
            </g>
            <path id="Path_161" d="M1768.506 428.219s1.761.213 1.118-.751a2.5 2.5 0 0 0-1.268-.761s-10.7-4.842-12.017-5.257-4.46.141-5.117-1.267c0 0-.443 4.694 8.58 5.726-.002 0 8.198 2.263 8.704 2.31z" class="cls-10"/>
            <path id="Path_162" d="M1759.8 424.31s5.942 1.64 8.02 2.156c-2.178-.983-10.341-4.657-11.483-5.016-1.026-.323-3.151-.059-4.355-.587.954 1.352 3.08 2.904 7.818 3.447z" class="cls-11"/>
        </g>
        <g id="Group_62" transform="translate(-1354)">
            <path id="Path_163" d="M1790.231 425.44s-3.011 5.515-8.5 1.678c.001 0 4.839-2.992 8.5-1.678z" class="cls-4"/>
            <g id="Group_61">
                <path id="Path_164" d="M1781.732 427.118l.356.2c.057.032.119.071.19.109l.234.116.267.133.308.13a6.41 6.41 0 0 0 1.57.435 5.375 5.375 0 0 0 1.964-.1 6.118 6.118 0 0 0 .967-.335 7.092 7.092 0 0 0 .843-.457 8.435 8.435 0 0 0 1.284-1.016 9.559 9.559 0 0 0 .757-.817c.167-.2.251-.324.251-.324s-.068.13-.214.352a7.82 7.82 0 0 1-.687.892 7.309 7.309 0 0 1-1.252 1.122 6.263 6.263 0 0 1-.862.507 5.764 5.764 0 0 1-1.016.366 5.063 5.063 0 0 1-2.074.061 5.847 5.847 0 0 1-1.592-.547l-.3-.158c-.093-.054-.178-.109-.259-.159l-.223-.139c-.067-.045-.125-.091-.179-.129z" class="cls-10"/>
            </g>
            <path id="Path_165" d="M1777.454 428.219s-1.761.213-1.118-.751a2.5 2.5 0 0 1 1.268-.761s10.7-4.842 12.017-5.257 4.46.141 5.117-1.267c0 0 .443 4.694-8.58 5.726 0 0-8.2 2.263-8.704 2.31z" class="cls-10"/>
            <path id="Path_166" d="M1786.2 424.31s-5.941 1.64-8.02 2.156c2.178-.983 10.342-4.657 11.483-5.016 1.026-.323 3.151-.059 4.356-.587-.948 1.352-3.074 2.904-7.819 3.447z" class="cls-11"/>
        </g>
        <path id="Path_167" d="M1770.717 451.213a9.33 9.33 0 0 0 4.517 0 6.289 6.289 0 0 0-4.517 0z" class="cls-4" transform="translate(-1354)"/>
        <path id="Path_168" fill="url(#linear-gradient-2)" d="M1778.622 438.54s-.868-.441-1.727 1.857c0 0-1.51-8.827-.464-10.733 0 0 2.693.28 1.389.517-2.277.419.612 7.419.802 8.359z" transform="translate(-1354)"/>
        <path id="Path_169" fill="url(#linear-gradient-3)" d="M1767.347 438.54s.869-.441 1.727 1.857c0 0 1.51-8.827.464-10.733 0 0-2.692.28-1.388.517 2.277.419-.613 7.419-.803 8.359z" transform="translate(-1354)"/>
        <ellipse id="Ellipse_4" cx="28.252" cy="25.81" fill="url(#radial-gradient)" rx="28.252" ry="25.81" transform="translate(391.028 362.535)"/>
        <path id="Path_170" d="M1784.356 449.886c-1.378 1.508-6.5 5.273-11.4 4.679-4.9.594-10.156-3.561-11.4-4.679-.64-.578-2.015-2.344-2.629-3.012a86.97 86.97 0 0 1-8.061-11.211 11.839 11.839 0 0 1-2.49 4.964c3.6 7.508 11.512 14.553 24.593 14.553 12.986 0 19.514-7.045 24.575-14.374l-.027-.015c-1.479-.783-2.243-2.887-2.638-4.868a86.386 86.386 0 0 1-7.9 10.951c-.608.668-2.042 2.375-2.623 3.012z" class="cls-4" transform="translate(-1354)"/>
        <g id="Group_63" transform="translate(-1354)">
            <path id="Path_171" d="M1804.375 386.446l-.029.141.058.149a.58.58 0 0 0-.029-.29z" class="cls-10"/>
            <path id="Path_172" d="M1800.188 370.84c-4.469-5.906-5.207-4.332-7.384-6.028a16.026 16.026 0 0 0-3.484-1.97c-.41-.208-4.627-1.849-4.8-1.558-2.168 3.6-8.613 3.115-11.559 3.161-2.3.037-10.029-.626-11-3.222-2.661.469-6.236 2.783-8.832 3.55-1.74.513-2.106.161-5.831 3.621-2.421 2.248-3.942 5.6-4.957 8.72-.8 2.455-.2 5.014-.385 7.529-.594 7.855 1.007 14.148 2.527 21.694a77.608 77.608 0 0 1 1.688 10.175 50.2 50.2 0 0 0 .342-10.487c-.1-1.141-.457-2.257-.517-3.394-.155-2.944 2.355-5.559 2.977-8.375a13.474 13.474 0 0 1 1.743-3.9c.646-1.263 1.321-3.565 1.841-4.894a6.94 6.94 0 0 1 1.928-2.618c1.45-1.193 2.824-1.917 4.376-.539a11.618 11.618 0 0 1 3.122 4.4c1.124 2.78 2.143 5.517 4.579 7.434a11.852 11.852 0 0 0 10.243 1.9c3.539-.984 6.044-3.573 7.883-6.662 1.019-1.711 1.856-3.949 3.171-5.444 2.515-2.858 4.452-2.275 6.193-.286a16.152 16.152 0 0 1 3.514 6.009 20.315 20.315 0 0 1 .723 4.395 9.664 9.664 0 0 1 1.622 4.456c.1 1.2-.405 2.38-.34 3.58a35.186 35.186 0 0 1-.243 4.733c-.1 1.282-.053 2.541-.053 3.821 0 1.243.177 2.508.279 3.75.058.707.112 1.417.2 2.12a150.821 150.821 0 0 1 2.8-15.128 79.45 79.45 0 0 0 1.367-10.815 30.025 30.025 0 0 0-.654-11c-.644-2.484-1.042-5.078-2.248-7.374a9.713 9.713 0 0 0-.831-1.354z" class="cls-10"/>
            <path id="Path_173" d="M1804.375 386.446l-.029.141.058.149a.58.58 0 0 0-.029-.29z" class="cls-10"/>
        </g>
        <ellipse id="Ellipse_7" cx="7.261" cy="8.688" fill="url(#radial-gradient-2)" rx="7.261" ry="8.688" transform="translate(419.268 388.504)"/>
        <path id="Path_253" d="M1747.488 456.026c.726-2.561.142-5.3-.548-7.866-2.941-10.954-7.751-21.314-11.176-32.127s-5.439-22.492-2.607-33.475a40.353 40.353 0 0 1 28.157-28.345c7.044-1.866 15.371-1.426 20.543 3.708l-.166.216a27.635 27.635 0 0 1 22.994 11.371 34.733 34.733 0 0 1 4.8 10.144c3.6 11.9 2.438 24.794-.659 36.84s-9.231 25.533-10.506 36.859c-2.93-4.626-5.448-11.332-4.277-16.68s3.122-10.6 3.19-16.073c.064-5.149-1.545-10.154-3.137-15.051 0 0-2.425-6.325-8.852-6.867-1.425-.121-3.275.4-3.236-1.028l-.215-3.9c-2.587 3.75-4.519 5.24-9.387 6.219-4.711.947-9.546.813-14.347 1a9.717 9.717 0 0 0-3.014.461 7.947 7.947 0 0 0-4.072 4.183c-3.732 7.648-.7 16.652.243 25.11a49.861 49.861 0 0 1-3.978 25.664" class="cls-16" transform="translate(-1354)"/>
        <path id="Path_254" d="M1811.527 400.5s-5.738 18 .183 44.75c0 0-8.171-.282-12.921-4.433s12.738-40.317 12.738-40.317z" class="cls-16" transform="translate(-1354)"/>
        <path id="Path_255" d="M1733.653 400.5s5.739 18-.182 44.75c0 0 8.171-.282 12.921-4.433s-12.739-40.317-12.739-40.317z" class="cls-16" transform="translate(-1354)"/>
        <path id="Path_256" fill="#b99678" d="M1785.084 360.879c-.015 1.287-.59 1.4-1.188 1.53.44 1.252 1.2 1.086 1.555 2.182-.168.471-.727.086-.735.865-.006.635.4.572.6.866.424.619 1.139.6 1.329 1.836-.494.448-1.126-.351-1.355.757-.376 1.811-.309 3.452 1.085 3.6-.605.9-1.053.4-1.377 1.1.2.528.786.277.763 1.444-.56-.013-1.291-.035-.9 1.641.2.843.877.947.907 2.123-.271.572-.636-.181-.912.605.044.889.678.957.692 1.968-.288.62-.888-.594-1.039.911.456 1.058-.091 1.621-.543 2.23-.326.081-.529-.3-.441-.785a6.1 6.1 0 0 0-.488-3.627 1.82 1.82 0 0 1-.082-1.312c.44-.931-.016-1.57.072-2.075.356-2.064-.075-4.025.484-5.985.318-1.113-.23-2.438.751-3.227-1.165-.861-1.541-2.777-1.23-5.26.2-1.594-.625-1.04-1.116-1.581-.039 1.8.116 3.629-1.239 3.662-.022.268-.033.338-.033.4 0 1.04.669 1.862.091 3.032-.567 1.148-.985-.1-1.5-.073-.1.006-.221.138-.334.174a.307.307 0 0 1-.254-.21c-.5-.776-.761-1.993-1.544-2.5 1.024-1.27 1.528.058 2.144.146a.958.958 0 0 0 .118-.987c-.321-1.35.057-1.822.777-1.948.241-.042.537.256.723-.318a1.406 1.406 0 0 0-.269-1.311c-.328-.675-.7-1.265-1.1-1.969.483-.609.839-.245 1.208-.251.3 0 .525-.016.477-.771z" transform="translate(-1354)"/>
        <path id="Path_257" fill="#b59378" d="M1778.654 367.666h.284c1.16.589 1.162 2.71 1.306 4.557.074.957-.43 1.06-.866 1.1.275.9.9 1.345.732 2.687-.1.774-.54.827-.825 1.275.342 1.007.766 1.875 1.1 2.881a2.721 2.721 0 0 1 .208 1.823c-.262.848-.683.417-.915.513-.363 2.1 0 3.232 1.082 3.326.127.011.257.358.205.592-.519 2.339.7 2.918.779 4.821a3.554 3.554 0 0 0 .122-.417c.008-2.32-.273-4.851 1.741-5.661.1-.04.2-.459.319-.68.138-.764.824-1.194.592-2.183.274.567.974.793.087 2.177-.169.264.536 1.191.737 1.964a13.442 13.442 0 0 1-1.733 1.6c-.494.45-.176.756-.241 1.115l.619 1.649c-.458.607-.62-.462-1-.058-.047.907.371 1.308.46 2.094-.471.742-1.2-.737-1.483 1.2-.87-.814-1.984-.732-2.812-1.706l1.718.277c-.3-1.547-1.063-1.68-1.68-2.452.282-.2.626-.282.68-.506.162-.675-.238-.579-.4-.814-.079-.113-.164-.212-.246-.317-.184-.237-.566-.158-.525-.735.055-.792.546-.34.789-1.049l-4.465-3.989c1.088-.821 1.853-.013 2.713-.035.263-1.219-.518-1.007-.565-1.945.616-.7 1.257-.442 1.973-.788-.323-2.072-1.389-2.492-2.166-3.395.109-.528.275-.456.412-.545.465-.3 1.155.162 1.344-.694a3.466 3.466 0 0 0-.668-2.366c-.338-.723-.731-1.354-1.173-2.161.864-.606 1.477-.1 2.178 0 .242-1.431-.452-2-.417-3.155z" transform="translate(-1354)"/>
        <path id="Path_258" fill="#deb490" d="M1783.922 384.482c.225 1.782-.435 1.851-1.06 1.927-.7.085-1.136.517-.641 1.718.431 1.048-.344 2.495.019 3.645a.322.322 0 0 1-.627.151c-.42-1.122-.458-2.813-1.268-3.364a1 1 0 0 1-.014-.567c1.061-2.571-.2-1.826-.727-2.085a1.189 1.189 0 0 1-.843-1.146c-.05-1.027.6-.292.767-1.133-.08-.648-.807-.63-.547-1.871.556-.468.85.777 1.481.146a15.3 15.3 0 0 0-1.523-4.2c-.113-.25-.459-.19-.277-.808.122-.41.311-.356.493-.273.258.117.574-.047.724-.491a1.559 1.559 0 0 0-.24-1.341 7.092 7.092 0 0 1-.932-2.033c.177-.393.31-.3.445-.279.274.045.473.785.767.284.394-.671-.118-1.016-.1-1.574a8 8 0 0 0-.877-3.528c.466-1.509.723-.364 1.034-.125.217.166.406.554.668-.021a1.3 1.3 0 0 0-.028-1.112c-.348-.712-.228-1.833-.546-2.776a3.049 3.049 0 0 1 .68.009c.85.244 1-.509.827-1.8-.072-.527-.371-1.071.023-1.67.349-.528.611 0 .886.205a3.962 3.962 0 0 0 .675.438c.528.251.839.607.143 1.706-.393.621-.512 1.2-.05 1.6a.552.552 0 0 1 .2.383c-.28 2.469.742 2.277 1.555 2.457-.1.832-.414.97-.708 1.123a.749.749 0 0 0-.359 1.008 1.381 1.381 0 0 1-.272 1.98.978.978 0 0 0-.162 1.187 3.38 3.38 0 0 1-.058 2.937c-.421 1.165-.388 1.7.249 1.87.165.044.387.032.361.493a.761.761 0 0 1-.414.706.849.849 0 0 0-.44 1.254 5.889 5.889 0 0 1 .546 4.549c-.032.087.107.28.17.421z" transform="translate(-1354)"/>
        <path id="Path_259" d="M1775.766 428.584a70.1 70.1 0 0 1 13.089-5.327s-.083 0 1.6-.261c0 0 2.092-.154 4.1-.23a5.4 5.4 0 0 0 .87-.794l-.76-1.62-8.855.264-10.656 5.02-1.215 2.864s.467.786 1.827.084z" class="cls-20" transform="translate(-1354)"/>
        <path id="Path_260" d="M1769.527 428.584a70.1 70.1 0 0 0-13.089-5.327s.083 0-1.6-.261c0 0-2.093-.154-4.1-.23a5.363 5.363 0 0 1-.871-.794l.761-1.62 8.854.264 10.656 5.02 1.215 2.864s-.467.786-1.826.084z" class="cls-20" transform="translate(-1354)"/>
    </g>
</svg>
