<svg xmlns="http://www.w3.org/2000/svg" xmlns:xlink="http://www.w3.org/1999/xlink" width="135.478" height="126.751" viewBox="0 0 135.478 126.751">
    <defs>
        <linearGradient id="linear-gradient" x1=".5" x2=".5" y1="1" gradientUnits="objectBoundingBox">
            <stop offset=".128" stop-color="#f5cfa3"/>
            <stop offset=".406" stop-color="#f3ca9e"/>
            <stop offset="1" stop-color="#f2c498"/>
        </linearGradient>
        <linearGradient id="linear-gradient-2" x1=".5" x2=".5" y2="1" gradientUnits="objectBoundingBox">
            <stop offset="0" stop-color="#edbc94"/>
            <stop offset=".628" stop-color="#edbd95"/>
            <stop offset=".854" stop-color="#f0c49a"/>
            <stop offset="1" stop-color="#f5cfa3"/>
        </linearGradient>
        <linearGradient id="linear-gradient-3" x1=".5" x2=".5" y1="0" y2="1" xlink:href="#linear-gradient-2"/>
        <radialGradient id="radial-gradient" cx=".5" cy=".5" r=".524" gradientTransform="matrix(.914 0 0 1 .043 0)" gradientUnits="objectBoundingBox">
            <stop offset="0" stop-color="#f4caa6"/>
            <stop offset=".668" stop-color="#f3c9a4"/>
            <stop offset=".908" stop-color="#f2c69d"/>
            <stop offset="1" stop-color="#f2c498"/>
        </radialGradient>
        <style>
            .cls-1{fill:#edbc94}.cls-3{fill:#f2c498}.cls-4{fill:#ecb388}.cls-5{fill:#f7d5a9}.cls-6{fill:#e7a277}.cls-8{fill:#c68260}.cls-10{fill:#423030}.cls-11{fill:#493434}.cls-15{fill:#382828}.cls-16{fill:#624444}
        </style>
    </defs>
    <g id="Group_338" transform="translate(-55.099 -353.203)">
        <g id="Group_39" transform="translate(-1354)">
            <path id="Path_70" d="M1476.413 458.007c11.737-.156 29.635-15.252 32.465-14.375l.089.027a45.111 45.111 0 0 1-7.581-2.948c-3.087-1.635-3.063-9.035-3.063-9.035-1.109-2.628-42.772-.066-42.772-.066s-.934 8.113-4.379 9.707a49.5 49.5 0 0 1-6.14 2.224l.064-.019c2.311-.705 19.58 14.642 31.317 14.485z" class="cls-1"/>
            <path id="Path_71" fill="#a49898" d="M1541.6 460.248c-1.686-5.607-5.887-7.808-11.541-10.257-5.293-2.294-13.051-3.955-19.774-5.936l-.187-.055-.476-.142-.184-.056-.468-.143-.089-.027c-2.83-.877-20.728 14.219-32.465 14.375s-29.006-15.19-31.317-14.485l-.064.019-.39.117-.263.079-.4.12-.258.075-.419.122-.255.073-.421.12-.263.075-.436.122-.251.071c-6.253 1.742-13.319 3.425-18.051 5.476-5.654 2.449-9.4 4.65-11.081 10.257-.569 1.893-3.23 19.579-3.441 19.578l67.483.127h.512l67.483-.127c-.217.001-2.418-17.685-2.984-19.578z"/>
            <g id="Group_26">
                <path id="Path_72" d="M1508.023 402.223c-.914-.668-2.882-.374-3.916.071 0 .269-.01.537-.018.806q-.021.775-.057 1.551-.082 1.76-.246 3.512-.081.875-.182 1.747c-.025.215-.051.431-.078.646-.286 1.92-.544 3.418-.626 4.066a69.155 69.155 0 0 1-1.6 6.8 4.46 4.46 0 0 0 3.252-3.359 42.5 42.5 0 0 1 2.826-9.658c1.778-5.005.645-6.182.645-6.182z" class="cls-3"/>
                <path id="Path_73" d="M1506.22 409.724s1.669-4.8 1.176-5.35c-.8-.89-2.876 1.5-3.591 3.643q-.083.876-.183 1.748c1.455-3.471 3.255-2.845 2.598-.041z" class="cls-4"/>
                <path id="Path_74" d="M1502.64 417.125s1.325-.584 1.511-1.394-.4-1.469.219-1.725 1.254-1.343 1.46-1.65 1.144-4.066.446-5.14-2.662 2.215-2.662 2.215z" class="cls-5"/>
                <path id="Path_75" d="M1503.452 411.137c.182-.058 1.6-1.919 1.964-1.683.534.344.166 2.529-.626 3.647a7.958 7.958 0 0 1-1.89 1.521z" class="cls-6"/>
            </g>
            <g id="Group_27">
                <path id="Path_76" d="M1445.6 402.223c.914-.668 2.883-.374 3.916.071.005.269.01.537.018.806q.021.775.058 1.551.083 1.76.245 3.512.081.875.182 1.747c.025.215.051.431.078.646.286 1.92.544 3.418.626 4.066a69.365 69.365 0 0 0 1.6 6.8 4.462 4.462 0 0 1-3.252-3.359 42.494 42.494 0 0 0-2.826-9.658c-1.778-5.005-.645-6.182-.645-6.182z" class="cls-3"/>
                <path id="Path_77" d="M1447.4 409.724s-1.67-4.8-1.176-5.35c.8-.89 2.875 1.5 3.59 3.643q.082.876.183 1.748c-1.452-3.471-3.252-2.845-2.597-.041z" class="cls-4"/>
                <path id="Path_78" d="M1450.982 417.125s-1.325-.584-1.511-1.394.4-1.469-.218-1.725-1.255-1.343-1.461-1.65-1.144-4.066-.445-5.14 2.661 2.215 2.661 2.215z" class="cls-5"/>
                <path id="Path_79" d="M1450.17 411.137c-.182-.058-1.6-1.919-1.963-1.683-.535.344-.167 2.529.625 3.647a7.973 7.973 0 0 0 1.89 1.521z" class="cls-6"/>
            </g>
            <path id="Path_80" d="M1506.4 383.627c-.535-24.384-28.825-24.322-29.579-24.316s-29.044-.068-29.579 24.316c-.373 16.993-.088 16.418.493 19.222s1.917 9.091 2.19 12.268.263 12.958 4.371 19.748a88.056 88.056 0 0 0 8.5 11.928c.613.668 1.988 2.435 2.628 3.012 1.24 1.119 6.5 5.273 11.4 4.679 4.9.594 10.019-3.171 11.4-4.679.581-.636 2.015-2.344 2.628-3.012a88.056 88.056 0 0 0 8.5-11.928c4.108-6.79 4.1-16.572 4.37-19.748s1.61-9.464 2.191-12.268.861-2.229.487-19.222z" class="cls-3"/>
            <path id="Path_81" d="M1473.629 431.236s.312-3.855-2.632-4.957-12.79-2.508-13.2-2.8c.232.167.495.944.66 1.188a13.257 13.257 0 0 0 5.181 4.695c1.827.81 3.866.8 5.863 1.037.462.052 4.145.285 4.128.837z" class="cls-1"/>
            <g id="Group_29">
                <path id="Path_82" fill="#db956e" d="M1475.374 448.9a5.273 5.273 0 0 0 2.877 0c2.678-.058 5.789-2.913 5.789-2.913a13.988 13.988 0 0 1-5.789 1.993 5.3 5.3 0 0 1-2.877 0c-2.678-.058-6.117-2.124-6.117-2.124q.224.21.438.406a1.241 1.241 0 0 0-.21-.275s3.215 2.859 5.889 2.913z"/>
                <path id="Path_83" d="M1475.454 450.221a12.393 12.393 0 0 1 1.8-.012c2.523.361 4.674-1.817 5.844-3.069a10.527 10.527 0 0 0 .944-1.149s-3.111 2.855-5.789 2.913a5.273 5.273 0 0 1-2.877 0c-2.678-.058-5.889-2.913-5.889-2.913a1.241 1.241 0 0 1 .21.275q.425.39.81.726c2.931 2.563 4.205 3.301 4.947 3.229z" class="cls-6"/>
                <g id="Group_28">
                    <path id="Path_84" d="M1475.66 447.975a9.619 9.619 0 0 1-2.755-.52 21.308 21.308 0 0 1-2.608-1.061c-.325-.157-.585-.291-.764-.385s-.276-.149-.276-.149.094.061.269.163.428.248.748.416a16.792 16.792 0 0 0 2.6 1.112 10.271 10.271 0 0 0 1.514.375 10.4 10.4 0 0 0 1.268.1c.359.026.648.07.848.1s.308.055.308.055-.108-.028-.305-.071a8.032 8.032 0 0 0-.847-.135z" class="cls-8"/>
                    <path id="Path_85" d="M1483.777 446.137c-.17.091-.417.222-.728.372-.154.077-.327.155-.51.241s-.382.172-.594.256-.434.173-.665.262c-.116.043-.236.082-.356.125-.061.02-.121.043-.183.062l-.187.057-.187.058-.093.028-.093.025-.365.1c-.12.03-.239.051-.356.077l-.172.036c-.057.012-.114.018-.17.027l-.329.049c-.106.013-.211.018-.312.027l-.292.022c-.1.007-.186.011-.272.023-.344.039-.619.1-.808.135s-.293.068-.293.068.1-.02.3-.053.467-.074.81-.1c.086-.009.176-.01.269-.014l.3-.013c.107-.004.207-.008.316-.018l.332-.042c.057-.008.115-.013.173-.024l.175-.034c.118-.024.239-.043.36-.073l.37-.093.094-.024.093-.029.189-.057.188-.059c.063-.019.123-.042.184-.064.121-.043.242-.084.358-.128.232-.092.456-.18.665-.274s.406-.186.59-.272.351-.176.5-.259c.306-.161.547-.3.713-.4s.255-.159.255-.159-.099.047-.269.139z" class="cls-8"/>
                </g>
            </g>
            <path id="Path_86" fill="url(#linear-gradient)" d="M1482.68 438.925c-.159-.286-.323-.581-.47-.895s-.266-.536-.379-.746a6.149 6.149 0 0 1-.59-1.4c-.028-.1-.238-1.122-.327-1.559a29.117 29.117 0 0 0-1.555-5.632 3.944 3.944 0 0 0-2.427-1.494v-.026l-.062.012-.06-.012v.025a4.026 4.026 0 0 0-2.492 1.495 29.127 29.127 0 0 0-1.555 5.632c-.089.437-.3 1.462-.327 1.559a6.147 6.147 0 0 1-.591 1.4c-.112.21-.239.447-.379.746s-.311.609-.47.895c-.546.982-1.018 1.831-.584 2.994a5.432 5.432 0 0 0 2.2 2.322 16.389 16.389 0 0 1 1.412 1.106 13.083 13.083 0 0 0 2.751.942.187.187 0 0 0 .065.011.189.189 0 0 0 .066-.011 13.107 13.107 0 0 0 2.751-.942 16.222 16.222 0 0 1 1.412-1.106 5.423 5.423 0 0 0 2.2-2.322c.431-1.163-.042-2.012-.589-2.994z"/>
            <path id="Path_87" d="M1480.036 431.236s-.312-3.855 2.634-4.957 12.795-2.508 13.2-2.8c-.232.167-.5.944-.661 1.188a13.105 13.105 0 0 1-5.182 4.629 19.988 19.988 0 0 1-5.867 1.1c-.46.055-4.14.288-4.124.84z" class="cls-1"/>
            <g id="Group_31">
                <path id="Path_88" d="M1459.592 425.36s3.011 5.515 8.5 1.677c0 0-4.839-2.992-8.5-1.677z" class="cls-4"/>
                <g id="Group_30">
                    <path id="Path_89" d="M1468.092 427.037l-.333.246c-.054.038-.113.084-.181.129l-.224.141c-.081.049-.167.1-.26.159l-.3.159a6 6 0 0 1-1.6.554 5.231 5.231 0 0 1-2.084-.036 5.814 5.814 0 0 1-1.027-.346 6.183 6.183 0 0 1-.879-.488 7.356 7.356 0 0 1-1.287-1.092 7.892 7.892 0 0 1-.715-.878c-.152-.22-.224-.348-.224-.348s.087.118.261.319a9.577 9.577 0 0 0 .782.8 8.533 8.533 0 0 0 1.317.986 6.968 6.968 0 0 0 .859.439 6.48 6.48 0 0 0 .979.317 5.576 5.576 0 0 0 1.977.078 6.536 6.536 0 0 0 1.577-.442l.31-.131c.1-.045.185-.092.269-.134l.234-.117c.072-.038.134-.077.192-.109z" class="cls-10"/>
                </g>
                <path id="Path_90" d="M1472.369 428.139s1.761.213 1.118-.751a2.49 2.49 0 0 0-1.268-.761s-10.7-4.842-12.017-5.257-4.459.14-5.116-1.268c0 0-.444 4.694 8.58 5.727 0 0 8.2 2.263 8.703 2.31z" class="cls-10"/>
                <path id="Path_91" d="M1463.666 424.23s5.941 1.639 8.019 2.156c-2.177-.983-10.341-4.657-11.483-5.016-1.025-.323-3.151-.06-4.355-.587.953 1.352 3.079 2.904 7.819 3.447z" class="cls-11"/>
            </g>
            <g id="Group_33">
                <path id="Path_92" d="M1494.095 425.36s-3.011 5.515-8.5 1.677c0 0 4.838-2.992 8.5-1.677z" class="cls-4"/>
                <g id="Group_32">
                    <path id="Path_93" d="M1485.595 427.037l.356.205c.057.033.12.072.19.109l.234.117.267.133.309.13a6.409 6.409 0 0 0 1.57.434 5.347 5.347 0 0 0 1.963-.1 6.227 6.227 0 0 0 .967-.335 6.938 6.938 0 0 0 .843-.458 8.38 8.38 0 0 0 1.284-1.015 9.708 9.708 0 0 0 .757-.817c.168-.2.252-.324.252-.324s-.069.13-.214.352a7.97 7.97 0 0 1-.688.892 7.3 7.3 0 0 1-1.251 1.121 6.338 6.338 0 0 1-.863.508 5.734 5.734 0 0 1-1.016.365 5.063 5.063 0 0 1-2.074.062 5.858 5.858 0 0 1-1.592-.548l-.3-.157c-.092-.055-.178-.11-.258-.159l-.223-.14c-.067-.045-.126-.09-.18-.128z" class="cls-10"/>
                </g>
                <path id="Path_94" d="M1481.317 428.139s-1.761.213-1.117-.751a2.488 2.488 0 0 1 1.267-.761s10.7-4.842 12.017-5.257 4.46.14 5.117-1.268c0 0 .443 4.694-8.58 5.727 0 0-8.2 2.263-8.704 2.31z" class="cls-10"/>
                <path id="Path_95" d="M1490.068 424.23s-5.941 1.639-8.02 2.156c2.178-.983 10.342-4.657 11.484-5.016 1.025-.323 3.151-.06 4.355-.587-.952 1.352-3.079 2.904-7.819 3.447z" class="cls-11"/>
            </g>
            <path id="Path_96" d="M1474.58 451.133a9.33 9.33 0 0 0 4.517 0 6.283 6.283 0 0 0-4.517 0z" class="cls-4"/>
            <path id="Path_97" fill="url(#linear-gradient-2)" d="M1482.486 438.46s-.869-.442-1.727 1.857c0 0-1.51-8.828-.464-10.733 0 0 2.692.28 1.388.517-2.277.414.617 7.419.803 8.359z"/>
            <path id="Path_98" fill="url(#linear-gradient-3)" d="M1471.21 438.46s.869-.442 1.727 1.857c0 0 1.51-8.828.464-10.733 0 0-2.692.28-1.388.517 2.277.414-.613 7.419-.803 8.359z"/>
            <ellipse id="Ellipse_2" cx="28.252" cy="25.81" fill="url(#radial-gradient)" rx="28.252" ry="25.81" transform="translate(1448.346 361.479)"/>
            <g id="Group_38">
                <path id="Path_99" d="M1508.252 386.654a1.043 1.043 0 0 0-.151-.65c-.1-.131-.231-.21-.282-.379-.2-.663.205-1.292-.289-1.9-.113-.139.227-.342.292-.477.1-.217-.06-.6-.125-.8-.116-.367-.387-.755-.3-1.156a.875.875 0 0 1 .247-.433c0-.177-.19-.3-.092-.491l-.147.272-.022-.236.071.062c-.137-.136-.537-.349-.489-.576a3.505 3.505 0 0 0-.068-1.7c-.333-1.159-1.128-2.133-1.4-3.312.447 0 .534.588.981.588a25.355 25.355 0 0 0-2.329-5.113c.372 0 .519.418.857.5a6.478 6.478 0 0 0-2.841-2.971 10.352 10.352 0 0 0-1.608-.462.643.643 0 0 1-.412-.574c0-.459.591-.015.8-.015a6.738 6.738 0 0 0-1.717-1.374c-.6-.356-1.127-.812-1.7-1.207a26.776 26.776 0 0 0-3.632-2.085 36.64 36.64 0 0 0-7.33-2.532 47.184 47.184 0 0 0-6.172-1.034c-.692-.07-1.386-.126-2.081-.163-.64-.035-1.247-.2-1.9-.18a4.265 4.265 0 0 0-2.347.755c.36.18.784-.069.784.507a13.24 13.24 0 0 0-6.016-.918 4.243 4.243 0 0 0-2.182.7c-.169.179.281.2.359.2.6.021 1.254-.141 1.758.291a23.628 23.628 0 0 1-6.218.141c-1.5-.105-3.716-.344-4.877.866a23.106 23.106 0 0 1 2.559 1.1c.06.023.5.144.483.158-.13.135-.467.167-.637.21-.381.094-4.61.917-4.584 1.047 0-.009.867.39.922.425.609.387-.752 1.359-1.1 1.544-.809.434-1.709.664-2.524 1.086-.939.486-1.309 1.537-2.184 2.085.148-.1 1.106-.544.972-.1-.114.376-.529.649-.832.862a11.962 11.962 0 0 0-2.494 1.792c.956 0 1.772-.783 2.746-.589-.312.208-.456.6-.784.785-.355.2-.713.4-1.06.616a5.466 5.466 0 0 0-1.785 1.64c.1-.1 1.287-1.1 1.365-.62.04.254-.462.64-.611.788a7.917 7.917 0 0 0-2.225 2.677c.115-.154.985-1.018 1.2-.659.1.163-.036.478-.087.635a17.789 17.789 0 0 1-.975 2.262 12.782 12.782 0 0 0-.726 1.489c-.26.8 1.259 1.312 1.227 2.147a4.3 4.3 0 0 0-1.053 1.819 2.1 2.1 0 0 0 0 .984.686.686 0 0 1 .281.042c.32.147-.037.848-.1 1.051a17.166 17.166 0 0 0-.451 8.006 43.01 43.01 0 0 0 1.515 6.339c.6 1.948 1.34 3.842 1.743 5.842a77.449 77.449 0 0 1 1.564 10.174 50.193 50.193 0 0 0 .343-10.486c-.1-1.142-.457-2.258-.517-3.4a8.575 8.575 0 0 1 1.2-4.542 247.047 247.047 0 0 1 2.707-3.651c.791-.778 1.857-1.16 2.551-2.055a5.593 5.593 0 0 0 .586-.946 7.638 7.638 0 0 0 3.335 2.391 8.068 8.068 0 0 0 1.968.559 4.436 4.436 0 0 1-1.085-.007 8.277 8.277 0 0 0 4.161 4 10.612 10.612 0 0 0 2.816.786 12.343 12.343 0 0 0 1.571.117c.294 0 .482.192.753.316 4.287 1.957 9.636.312 13.455-1.979.11.985-.508 1.177-1.373 1.177 5.145 1.6 10.765-.666 15.273-3.107.457-.247.92-.5 1.354-.782.56.555 1.191 1.031 1.769 1.565a7.934 7.934 0 0 1 2.536 5.618 35.334 35.334 0 0 1-.242 4.733c-.1 1.282-.054 2.541-.054 3.821 0 1.243.178 2.508.279 3.75.058.707.112 1.417.2 2.12a122.263 122.263 0 0 1 2.336-13.913c.172-.751.444-1.474.623-2.223a22.5 22.5 0 0 0 .491-4.2c.076-1.649.082-3.3.066-4.953a8.255 8.255 0 0 1 .336-2.345 7.011 7.011 0 0 1 .348-1.011 2.7 2.7 0 0 0 .437-1.135z" class="cls-10"/>
                <path id="Path_100" d="M1503.429 402.007a7.934 7.934 0 0 0-2.536-5.618c-.578-.534-1.209-1.01-1.769-1.565-.434.286-.9.535-1.354.782-4.508 2.441-10.128 4.7-15.273 3.107.865 0 1.483-.192 1.373-1.177-3.819 2.291-9.168 3.936-13.455 1.979-.271-.124-.459-.312-.753-.316a12.343 12.343 0 0 1-1.571-.117 10.612 10.612 0 0 1-2.816-.786 8.277 8.277 0 0 1-4.161-4 5.647 5.647 0 0 0 1.07.019 9.363 9.363 0 0 1-1.953-.571 7.638 7.638 0 0 1-3.335-2.391 5.593 5.593 0 0 1-.586.946c-.694.895-1.76 1.277-2.551 2.055a247.047 247.047 0 0 0-2.707 3.651 8.575 8.575 0 0 0-1.2 4.542 8.787 8.787 0 0 0 .109.956 9.754 9.754 0 0 1 1.088-2.935 246.618 246.618 0 0 1 2.707-3.651c.791-.778 1.857-1.16 2.551-2.055a5.593 5.593 0 0 0 .586-.946 7.638 7.638 0 0 0 3.335 2.391 9.365 9.365 0 0 0 1.953.571.024.024 0 0 0 .012-.01l-.012.01a5.567 5.567 0 0 1-1.07-.019 8.273 8.273 0 0 0 4.161 4 10.612 10.612 0 0 0 2.816.786 12.338 12.338 0 0 0 1.571.117c.294 0 .482.192.753.316 4.287 1.957 9.636.313 13.455-1.979.11.985-.508 1.177-1.373 1.177 5.145 1.6 10.765-.666 15.273-3.107.457-.247.92-.5 1.354-.782.56.555 1.191 1.031 1.769 1.566a7.846 7.846 0 0 1 2.508 5.228 18.324 18.324 0 0 0 .031-2.174z" class="cls-1"/>
                <g id="Group_35">
                    <g id="Group_34">
                        <path id="Path_101" d="M1504.94 399.077c.833-3.217-4.713-7.886-4.713-7.886-2.122 5.317-16.187 7.886-16.187 7.886.664.034 1.314.092 1.952.169 4.1.045 8.275-1.743 11.778-3.64.457-.247.92-.5 1.354-.782.56.555 1.191 1.031 1.769 1.565a7.934 7.934 0 0 1 2.536 5.618 35.334 35.334 0 0 1-.242 4.733c-.007.086-.012.172-.017.258a14.439 14.439 0 0 0 1.77-7.921z" class="cls-15"/>
                    </g>
                </g>
                <g id="Group_37">
                    <g id="Group_36">
                        <path id="Path_102" d="M1453.741 386.155c-1.029.327-.777 2.674-.891 3.491-.37 2.657-2.453 4.153-3.317 6.519a11.465 11.465 0 0 0-.474 5.559c.206 1.409.2 1.963.138.826-.084-1.593 1.092-3.162 1.855-4.542a247.047 247.047 0 0 1 2.707-3.651c.791-.778 1.857-1.16 2.551-2.055.048-.061.093-.124.138-.187l.448-.759c-3.239-1.267-2.267-5.482-3.155-5.201z" class="cls-15"/>
                    </g>
                </g>
                <path id="Path_103" d="M1452.907 378.333s-.423.4-1.119 5.026c-.5 3.3.713 6.792-1.573 9.08a7.337 7.337 0 0 0-2.908 4.948c-.585 3.028-3.637-16.263 5.6-19.054z" class="cls-11"/>
                <path id="Path_104" d="M1501.035 374.98a27.953 27.953 0 0 0 .1 5.983c.258 3.326-1.2 6.723.918 9.17a7.335 7.335 0 0 1 2.545 5.144c.37 3.062 5.45-16.85-3.563-20.297z" class="cls-11"/>
            </g>
        </g>
        <path id="Path_105" d="M1488.219 449.8c-1.378 1.508-6.5 5.273-11.4 4.679-4.9.594-10.157-3.56-11.4-4.679-.64-.577-2.015-2.344-2.628-3.012a86.761 86.761 0 0 1-8.062-11.21 11.839 11.839 0 0 1-2.49 4.964c3.6 7.507 11.512 14.552 24.593 14.552 12.986 0 19.514-7.045 24.575-14.374l-.027-.014c-1.478-.783-2.242-2.888-2.638-4.869a86.28 86.28 0 0 1-7.9 10.951c-.608.673-2.042 2.381-2.623 3.012z" class="cls-4" transform="translate(-1354)"/>
        <ellipse id="Ellipse_6" cx="7.261" cy="8.688" class="cls-3" rx="7.261" ry="8.688" transform="translate(124.165 388.504)"/>
        <path id="Path_241" d="M1452.386 456.026c.725-2.561.141-5.3-.549-7.866-2.94-10.954-7.751-21.314-11.175-32.127s-5.44-22.492-2.608-33.475a40.355 40.355 0 0 1 28.157-28.345c7.044-1.866 15.371-1.426 20.543 3.708l-.166.216a27.633 27.633 0 0 1 22.994 11.371 34.737 34.737 0 0 1 4.8 10.144c3.6 11.9 2.438 24.794-.658 36.84s-9.232 25.533-10.507 36.859c-2.929-4.626-5.448-11.332-4.277-16.68s3.123-10.6 3.19-16.073c.064-5.149-1.545-10.154-3.136-15.051 0 0-2.426-6.325-8.852-6.867-1.426-.121-3.276.4-3.237-1.028l-.215-3.9c-2.587 3.75-4.519 5.24-9.387 6.219-4.711.947-9.546.813-14.347 1a9.721 9.721 0 0 0-3.014.461 7.942 7.942 0 0 0-4.071 4.183c-3.733 7.648-.7 16.652.242 25.11a49.87 49.87 0 0 1-3.977 25.664" class="cls-16" transform="translate(-1354)"/>
        <path id="Path_242" fill="none" stroke="#493232" stroke-miterlimit="10" stroke-width="2px" d="M1486.936 360.773s3.584 15.065 0 30.565" transform="translate(-1354)"/>
        <path id="Path_243" d="M1516.425 400.5s-5.739 18 .182 44.75c0 0-8.171-.282-12.921-4.433s12.739-40.317 12.739-40.317z" class="cls-16" transform="translate(-1354)"/>
        <path id="Path_244" d="M1438.551 400.5s5.738 18-.183 44.75c0 0 8.171-.282 12.921-4.433s-12.738-40.317-12.738-40.317z" class="cls-16" transform="translate(-1354)"/>
        <path id="Path_249" d="M1480.663 428.584a70.1 70.1 0 0 1 13.089-5.327s-.083 0 1.6-.261c0 0 2.093-.154 4.1-.23a5.368 5.368 0 0 0 .871-.794l-.761-1.62-8.854.264-10.656 5.02-1.215 2.864s.463.786 1.826.084z" class="cls-3" transform="translate(-1354)"/>
        <path id="Path_250" d="M1474.424 428.584a70.1 70.1 0 0 0-13.089-5.327s.083 0-1.6-.261c0 0-2.092-.154-4.1-.23a5.4 5.4 0 0 1-.87-.794l.76-1.62 8.855.264 10.656 5.02 1.215 2.864s-.467.786-1.827.084z" class="cls-3" transform="translate(-1354)"/>
    </g>
</svg>
