<svg xmlns="http://www.w3.org/2000/svg" xmlns:xlink="http://www.w3.org/1999/xlink" width="132.109" height="125.748" viewBox="0 0 132.109 125.748">
    <defs>
        <radialGradient id="radial-gradient" cx=".5" cy=".5" r=".524" gradientTransform="matrix(.914 0 0 1 .043 0)" gradientUnits="objectBoundingBox">
            <stop offset="0" stop-color="#f4caa6"/>
            <stop offset=".668" stop-color="#f3c9a4"/>
            <stop offset=".908" stop-color="#f2c69d"/>
            <stop offset="1" stop-color="#f2c498"/>
        </radialGradient>
        <radialGradient id="radial-gradient-2" cx=".5" cy=".5" r=".461" gradientTransform="matrix(1.197 0 0 1 -.098 0)" xlink:href="#radial-gradient"/>
        <radialGradient id="radial-gradient-3" cx=".5" cy=".5" r=".959" gradientTransform="matrix(.397 0 0 1 .302 0)" xlink:href="#radial-gradient"/>
        <radialGradient id="radial-gradient-4" cx=".5" cy=".5" r=".959" gradientTransform="matrix(.397 0 0 1 .302 0)" xlink:href="#radial-gradient"/>
        <linearGradient id="linear-gradient" x1=".5" x2=".5" y1="1" gradientUnits="objectBoundingBox">
            <stop offset=".128" stop-color="#f5cfa3"/>
            <stop offset=".406" stop-color="#f3ca9e"/>
            <stop offset="1" stop-color="#f2c498"/>
        </linearGradient>
        <linearGradient id="linear-gradient-2" x1=".5" x2=".5" y2="1" gradientUnits="objectBoundingBox">
            <stop offset="0" stop-color="#edbc94"/>
            <stop offset=".628" stop-color="#edbd95"/>
            <stop offset=".854" stop-color="#f0c49a"/>
            <stop offset="1" stop-color="#f5cfa3"/>
        </linearGradient>
        <linearGradient id="linear-gradient-3" x1=".5" x2=".5" y1="0" y2="1" xlink:href="#linear-gradient-2"/>
        <style>
            .cls-1{fill:#edbc94}.cls-3{fill:#f2c498}.cls-4{fill:#ecb388}.cls-5{fill:#f7d5a9}.cls-6{fill:#e7a277}.cls-8{fill:#c68260}.cls-10{fill:#423030}.cls-11{fill:#493434}.cls-16{fill:#624444}
        </style>
    </defs>
    <g id="Group_342" transform="translate(-648.622 -353.203)">
        <g id="Group_24" transform="translate(-1354)">
            <g id="Group_13">
                <path id="Path_35" d="M2099.92 443.532a43.633 43.633 0 0 1-7.306-2.848c-3.01-1.6-2.986-8.811-2.986-8.811-1.082-2.562-41.709-.063-41.709-.063s-.911 7.911-4.27 9.464a47.925 47.925 0 0 1-5.925 2.15c-3.363 1.026 13.7 15.019 30.865 15.058 17.338.04 34.772-13.882 31.331-14.95z" class="cls-1"/>
            </g>
            <g id="Group_14">
                <path id="Path_36" fill="#a49898" d="M2131.825 459.734c-1.644-5.467-5.741-7.613-11.254-10s-13.8-4.081-20.651-6.2c-2.76-.855-20.213 13.865-31.658 14.018s-28.285-14.812-30.538-14.125c-6.761 2.061-15.459 3.932-20.942 6.308-5.512 2.388-9.161 4.534-10.8 10-.555 1.847-3.15 19.093-3.356 19.093l65.805.123h.5l65.8-.123c-.204-.001-2.351-17.247-2.906-19.094z"/>
            </g>
            <g id="Group_15">
                <path id="Path_37" d="M2099.086 403.153c-.891-.651-2.81-.365-3.818.069-.005.262-.01.524-.018.786q-.019.758-.056 1.513-.079 1.716-.239 3.424-.079.854-.178 1.7c-.024.21-.05.42-.076.63-.279 1.872-.53 3.333-.61 3.964a67.706 67.706 0 0 1-1.559 6.635 4.346 4.346 0 0 0 3.17-3.275 41.472 41.472 0 0 1 2.756-9.418c1.733-4.881.628-6.028.628-6.028z" class="cls-3"/>
                <path id="Path_38" d="M2097.328 410.467s1.628-4.683 1.146-5.217c-.782-.868-2.8 1.459-3.5 3.553q-.079.854-.178 1.7c1.418-3.381 3.173-2.77 2.532-.036z" class="cls-4"/>
                <path id="Path_39" d="M2093.837 417.684s1.292-.569 1.474-1.359-.388-1.433.212-1.682 1.224-1.309 1.425-1.609 1.115-3.965.434-5.012-2.595 2.16-2.595 2.16z" class="cls-5"/>
                <path id="Path_40" d="M2094.629 411.845c.177-.056 1.557-1.871 1.915-1.641.521.335.162 2.467-.611 3.557a7.744 7.744 0 0 1-1.842 1.482z" class="cls-6"/>
            </g>
            <g id="Group_16">
                <path id="Path_41" d="M2038.214 403.153c.892-.651 2.811-.365 3.819.069.005.262.01.524.018.786q.019.758.056 1.513.081 1.716.239 3.424.08.854.178 1.7c.024.21.05.42.076.63.279 1.872.53 3.333.61 3.964a67.67 67.67 0 0 0 1.559 6.635 4.348 4.348 0 0 1-3.171-3.275 41.439 41.439 0 0 0-2.755-9.418c-1.733-4.881-.629-6.028-.629-6.028z" class="cls-3"/>
                <path id="Path_42" d="M2039.973 410.467s-1.628-4.683-1.146-5.217c.782-.868 2.8 1.459 3.5 3.553q.079.854.178 1.7c-1.418-3.381-3.173-2.77-2.532-.036z" class="cls-4"/>
                <path id="Path_43" d="M2043.464 417.684s-1.292-.569-1.474-1.359.388-1.433-.213-1.682-1.223-1.309-1.424-1.609-1.115-3.965-.434-5.012 2.6 2.16 2.6 2.16z" class="cls-5"/>
                <path id="Path_44" d="M2042.672 411.845c-.178-.056-1.557-1.871-1.915-1.641-.521.335-.162 2.467.611 3.557a7.735 7.735 0 0 0 1.842 1.482z" class="cls-6"/>
            </g>
            <path id="Path_45" d="M2097.5 385.02c-.521-23.779-28.107-23.718-28.843-23.712s-28.322-.067-28.843 23.712c-.364 16.57-.086 16.01.48 18.744s1.87 8.865 2.136 11.962.257 12.635 4.262 19.258a85.772 85.772 0 0 0 8.289 11.631c.6.651 1.938 2.374 2.562 2.937 1.21 1.091 6.337 5.142 11.114 4.563 4.777.579 9.77-3.093 11.113-4.563.567-.621 1.965-2.286 2.563-2.937a85.772 85.772 0 0 0 8.289-11.631c4.005-6.623 3.994-16.16 4.261-19.258s1.57-9.228 2.137-11.962.848-2.174.48-18.744z" class="cls-3"/>
            <path id="Path_46" d="M2065.548 431.445s.3-3.76-2.567-4.835-12.471-2.445-12.87-2.732c.226.163.483.921.644 1.159a12.919 12.919 0 0 0 5.052 4.578c1.781.79 3.769.783 5.717 1.011.448.053 4.04.281 4.024.819z" class="cls-1"/>
            <g id="Group_18">
                <path id="Path_47" fill="#db956e" d="M2067.249 448.673a5.144 5.144 0 0 0 2.806 0c2.611-.056 5.644-2.84 5.644-2.84a13.644 13.644 0 0 1-5.644 1.943 5.144 5.144 0 0 1-2.806 0c-2.611-.057-5.965-2.071-5.965-2.071.146.137.288.268.427.4a1.181 1.181 0 0 0-.2-.268s3.127 2.78 5.738 2.836z"/>
                <path id="Path_48" d="M2067.327 449.957a12.278 12.278 0 0 1 1.754-.012c2.46.352 4.558-1.771 5.7-2.993a10.3 10.3 0 0 0 .92-1.119s-3.033 2.784-5.644 2.84a5.144 5.144 0 0 1-2.806 0c-2.611-.056-5.742-2.84-5.742-2.84a1.181 1.181 0 0 1 .2.268q.414.379.79.708c2.863 2.499 4.101 3.218 4.828 3.148z" class="cls-6"/>
                <g id="Group_17">
                    <path id="Path_49" d="M2067.528 447.767a11.23 11.23 0 0 1-1.226-.131 11.455 11.455 0 0 1-1.461-.376 20.708 20.708 0 0 1-2.542-1.035c-.318-.152-.571-.283-.746-.375s-.269-.145-.269-.145.092.059.262.159.417.241.73.4a16.422 16.422 0 0 0 2.535 1.085 8.432 8.432 0 0 0 2.713.462c.35.025.632.068.826.1s.3.055.3.055-.106-.028-.3-.07a7.791 7.791 0 0 0-.822-.129z" class="cls-8"/>
                    <path id="Path_50" d="M2075.443 445.975c-.166.089-.406.217-.71.363-.15.075-.318.15-.5.235s-.373.167-.58.249-.422.169-.648.255c-.113.043-.23.08-.347.122-.06.02-.118.042-.179.061l-.182.056-.182.056-.091.028-.09.024-.356.093c-.117.03-.234.051-.347.075l-.169.036c-.055.011-.111.017-.166.026l-.32.048c-.1.013-.205.017-.3.026l-.285.021c-.092.007-.181.011-.265.023a7.71 7.71 0 0 0-.788.132c-.184.04-.285.067-.285.067s.1-.021.288-.052.455-.072.79-.1c.083-.008.171-.009.262-.013l.287-.013c.099-.005.2-.007.308-.017l.325-.041c.055-.008.112-.013.168-.023l.171-.033c.115-.023.233-.043.351-.071l.361-.092.091-.023.092-.028.183-.056.184-.057c.061-.019.12-.041.179-.062.119-.043.236-.082.35-.126.225-.089.444-.174.648-.267s.4-.181.575-.265.343-.171.491-.252c.3-.158.533-.3.695-.394s.248-.155.248-.155-.091.055-.257.144z" class="cls-8"/>
                </g>
            </g>
            <path id="Path_51" fill="url(#linear-gradient)" d="M2074.373 438.942c-.154-.279-.315-.567-.457-.873-.136-.291-.261-.523-.37-.727a6 6 0 0 1-.576-1.365c-.027-.1-.232-1.094-.319-1.52a28.385 28.385 0 0 0-1.516-5.492 3.842 3.842 0 0 0-2.366-1.457v-.026l-.061.012-.059-.012v.025a3.922 3.922 0 0 0-2.43 1.458 28.387 28.387 0 0 0-1.516 5.492c-.087.426-.292 1.425-.319 1.52a5.954 5.954 0 0 1-.576 1.365c-.109.2-.233.436-.369.727-.143.306-.3.594-.459.873a3.216 3.216 0 0 0-.569 2.919 5.286 5.286 0 0 0 2.143 2.265 16.133 16.133 0 0 1 1.377 1.078 12.7 12.7 0 0 0 2.682.919.191.191 0 0 0 .128 0 12.673 12.673 0 0 0 2.682-.919 16.143 16.143 0 0 1 1.378-1.078 5.289 5.289 0 0 0 2.142-2.265 3.213 3.213 0 0 0-.57-2.919z"/>
            <path id="Path_52" d="M2071.795 431.445s-.3-3.76 2.568-4.835 12.478-2.445 12.876-2.732c-.226.163-.483.921-.644 1.159a12.787 12.787 0 0 1-5.054 4.514 19.469 19.469 0 0 1-5.72 1.075c-.448.053-4.042.281-4.026.819z" class="cls-1"/>
            <g id="Group_20">
                <path id="Path_53" d="M2051.86 425.714s2.936 5.378 8.288 1.636c0 0-4.718-2.918-8.288-1.636z" class="cls-4"/>
                <g id="Group_19">
                    <path id="Path_54" d="M2060.148 427.35l-.325.24c-.053.037-.11.082-.176.126l-.218.136-.254.156-.3.155a5.883 5.883 0 0 1-1.558.541 5.124 5.124 0 0 1-2.033-.036 5.605 5.605 0 0 1-1-.337 6.026 6.026 0 0 1-.857-.476 7.234 7.234 0 0 1-1.256-1.065 7.682 7.682 0 0 1-.7-.856c-.148-.214-.218-.34-.218-.34s.085.116.254.312a9.484 9.484 0 0 0 .763.781 8.289 8.289 0 0 0 1.284.961 6.7 6.7 0 0 0 .838.428 6.065 6.065 0 0 0 .955.309 5.44 5.44 0 0 0 1.928.077 6.454 6.454 0 0 0 1.537-.431l.3-.128c.094-.044.181-.09.263-.131l.228-.114c.07-.037.131-.075.187-.107z" class="cls-10"/>
                </g>
                <path id="Path_55" d="M2064.319 428.424s1.717.208 1.09-.732a2.423 2.423 0 0 0-1.236-.742s-10.432-4.722-11.719-5.126-4.348.137-4.989-1.236c0 0-.432 4.577 8.367 5.584 0 0 7.996 2.206 8.487 2.252z" class="cls-10"/>
                <path id="Path_56" d="M2055.832 424.612s5.794 1.6 7.82 2.1c-2.123-.959-10.084-4.541-11.2-4.891-1-.315-3.072-.058-4.246-.573.93 1.322 3.004 2.835 7.626 3.364z" class="cls-11"/>
            </g>
            <g id="Group_22">
                <path id="Path_57" d="M2085.5 425.714s-2.936 5.378-8.288 1.636c.004 0 4.721-2.918 8.288-1.636z" class="cls-4"/>
                <g id="Group_21">
                    <path id="Path_58" d="M2077.216 427.35l.347.2c.056.032.117.07.186.106l.227.114.261.13.3.126a6.229 6.229 0 0 0 1.531.424 5.209 5.209 0 0 0 1.914-.1 6.023 6.023 0 0 0 .943-.326 6.735 6.735 0 0 0 .822-.447 8.17 8.17 0 0 0 1.252-.99 9.484 9.484 0 0 0 .739-.8c.163-.2.245-.317.245-.317s-.067.127-.209.344a7.8 7.8 0 0 1-.67.87 7.177 7.177 0 0 1-1.221 1.093 6.187 6.187 0 0 1-.841.495 5.54 5.54 0 0 1-.99.356 4.936 4.936 0 0 1-2.023.06 5.728 5.728 0 0 1-1.552-.533l-.295-.154c-.09-.053-.173-.107-.252-.155l-.217-.136c-.066-.044-.122-.088-.175-.126z" class="cls-10"/>
                </g>
                <path id="Path_59" d="M2073.044 428.424s-1.717.208-1.089-.732a2.423 2.423 0 0 1 1.236-.742s10.431-4.722 11.718-5.126 4.349.137 4.989-1.236c0 0 .433 4.577-8.366 5.584 0 0-7.996 2.206-8.488 2.252z" class="cls-10"/>
                <path id="Path_60" d="M2081.578 424.612s-5.794 1.6-7.82 2.1c2.123-.959 10.084-4.541 11.2-4.891 1-.315 3.073-.058 4.247-.573-.931 1.322-3.005 2.835-7.627 3.364z" class="cls-11"/>
            </g>
            <path id="Path_61" d="M2066.475 450.847a9.1 9.1 0 0 0 4.4 0 6.126 6.126 0 0 0-4.4 0z" class="cls-4"/>
            <path id="Path_62" fill="url(#linear-gradient-2)" d="M2074.184 438.488s-.847-.43-1.684 1.811c0 0-1.473-8.608-.453-10.466 0 0 2.626.273 1.354.505-2.22.403.599 7.234.783 8.15z"/>
            <path id="Path_63" fill="url(#linear-gradient-3)" d="M2063.189 438.488s.847-.43 1.684 1.811c0 0 1.473-8.608.452-10.466 0 0-2.625.273-1.353.505 2.22.403-.597 7.234-.783 8.15z"/>
            <path id="Path_64" fill="url(#radial-gradient)" d="M2096.524 389.541c0 13.9-12.335 25.168-27.55 25.168s-27.549-11.268-27.549-25.168 12.334-25.168 27.549-25.168 27.55 11.268 27.55 25.168z"/>
            <path id="Path_65" d="M2079.774 449.552c-1.343 1.47-6.336 5.142-11.113 4.563-4.777.579-9.9-3.472-11.114-4.563-.624-.563-1.964-2.286-2.562-2.937a84.555 84.555 0 0 1-7.861-10.932 11.553 11.553 0 0 1-2.428 4.841c3.512 7.321 11.225 14.19 23.981 14.19 12.663 0 19.029-6.869 23.964-14.017l-.027-.013c-1.441-.764-2.187-2.816-2.572-4.748a84.236 84.236 0 0 1-7.705 10.679c-.598.651-1.996 2.316-2.563 2.937z" class="cls-4"/>
            <g id="Group_23">
                <path id="Path_66" d="M2099.3 387.69l-.029.138c.019.048.037.1.057.144a.557.557 0 0 0-.028-.282z" class="cls-10"/>
                <path id="Path_67" d="M2099.3 387.69l-.029.138c.019.048.037.1.057.144a.557.557 0 0 0-.028-.282z" class="cls-10"/>
                <path id="Path_68" d="M2098.215 380.986c-.628-2.423-1.017-4.952-2.192-7.191a9.465 9.465 0 0 0-.81-1.323c-3.871-5.116-4.863-4.765-6.527-5.718-.261 4.5-2.865 11.7-2.572 12.175s2.262 5.062 3.11 6.032a15.747 15.747 0 0 1 3.428 5.858 19.831 19.831 0 0 1 .7 4.287 9.436 9.436 0 0 1 1.582 4.345c.1 1.17-.4 2.321-.332 3.491a34.439 34.439 0 0 1-.237 4.615c-.1 1.251-.052 2.478-.052 3.727 0 1.211.173 2.445.272 3.657a12.266 12.266 0 0 1 .2 2.067 118.8 118.8 0 0 1 2.731-14.753 77.588 77.588 0 0 0 1.334-10.545 29.307 29.307 0 0 0-.635-10.724z" class="cls-10"/>
                <path id="Path_69" d="M2043.634 370.087c-2.361 2.192-3.844 5.465-4.834 8.5-.781 2.394-.191 4.889-.376 7.342-.578 7.659.982 13.8 2.465 21.154a75.641 75.641 0 0 1 1.645 9.922 48.94 48.94 0 0 0 .334-10.226c-.1-1.113-.445-2.2-.5-3.31-.151-2.871 2.3-5.42 2.9-8.166a13.168 13.168 0 0 1 1.7-3.8c.63-1.232 1.288-3.477 1.8-4.773a6.745 6.745 0 0 1 1.88-2.552 12.966 12.966 0 0 0 2.347-4.208c.21-1.022.052-1.1-.483-1.983a50.558 50.558 0 0 1-3.212-11.544c-1.594.721-2.054.289-5.666 3.644z" class="cls-10"/>
            </g>
        </g>
        <ellipse id="Ellipse_9" cx="7.261" cy="8.688" fill="url(#radial-gradient-2)" rx="7.261" ry="8.688" transform="translate(714.068 388.504)"/>
        <path id="Path_269" d="M2042.289 456.026c.725-2.561.141-5.3-.549-7.866-2.94-10.954-7.751-21.314-11.175-32.127s-5.439-22.492-2.608-33.475a40.354 40.354 0 0 1 28.157-28.345c7.045-1.866 15.371-1.426 20.543 3.708l-.166.216a27.634 27.634 0 0 1 22.994 11.371 34.705 34.705 0 0 1 4.8 10.144c3.6 11.9 2.438 24.794-.658 36.84s-9.232 25.533-10.507 36.859c-2.929-4.626-5.447-11.332-4.277-16.68s3.123-10.6 3.191-16.073c.063-5.149-1.545-10.154-3.137-15.051 0 0-2.425-6.325-8.852-6.867-1.426-.121-3.276.4-3.236-1.028l-.216-3.9c-2.587 3.75-4.519 5.24-9.387 6.219-4.71.947-9.545.813-14.347 1a9.721 9.721 0 0 0-3.014.461 7.948 7.948 0 0 0-4.071 4.183c-3.732 7.648-.7 16.652.242 25.11a49.861 49.861 0 0 1-3.977 25.664" class="cls-16" transform="translate(-1354)"/>
        <path id="Path_270" d="M2106.328 400.5s-5.739 18 .182 44.75c0 0-8.171-.282-12.921-4.433s12.739-40.317 12.739-40.317z" class="cls-16" transform="translate(-1354)"/>
        <path id="Path_271" d="M2028.454 400.5s5.739 18-.183 44.75c0 0 8.172-.282 12.922-4.433s-12.739-40.317-12.739-40.317z" class="cls-16" transform="translate(-1354)"/>
        <path id="Path_272" fill="#b99678" d="M2082.8 361.558c.086 1.337-1.209 1.183-2.553 1.038 1.116 1.514 2.83 1.7 3.735 3.013-.338.412-1.643-.254-1.587.556.045.661.963.786 1.448 1.189 1.021.846 2.643 1.163 3.19 2.544-1.08.235-2.588-.9-3 .152-.683 1.714-.376 3.46 2.8 4.267-1.29.653-2.353-.074-3.023.5.506.646 1.81.66 1.868 1.868-1.274-.277-2.934-.645-1.885 1.291.528.973 2.079 1.4 2.258 2.644-.561.471-1.461-.488-2.013.2.183.949 1.629 1.319 1.754 2.381-.594.512-2.071-1.039-2.271.462 1.133 1.32-.055 1.65-1.025 2.073-.731-.07-1.229-.568-1.074-1.029.527-1.568-.519-2.764-1.449-4.018-.335-.452-.711-1.072-.308-1.409.912-.764-.183-1.648-.033-2.134.615-1.987-.548-4.239.539-6.023.616-1.011-.751-2.654 1.4-3.016-2.724-1.448-3.757-3.627-3.285-6.074.3-1.571-1.516-1.381-2.682-2.177.081 1.865.6 3.845-2.469 3.24a3.772 3.772 0 0 0-.037.406c.1 1.086 1.7 2.26.492 3.21-1.179.931-2.246-.568-3.409-.783a6.654 6.654 0 0 0-.74.023 1.129 1.129 0 0 1-.6-.338c-1.205-1.046-1.916-2.441-3.741-3.345 2.2-.844 3.474.782 4.88 1.164.689-.31.343-.672.177-.975-.857-1.561-.043-1.876 1.581-1.668.542.07 1.243.521 1.611.009.433-.6-.332-1.069-.733-1.5-.809-.859-1.718-1.654-2.694-2.578 1.038-.409 1.881.14 2.718.308.671.134 1.192.231 1.012-.58z" transform="translate(-1354)"/>
        <path id="Path_273" fill="#b59378" d="M2068.844 365.613l.644.13c2.688 1.163 2.892 3.379 3.391 5.376.258 1.034-.877.9-1.862.743.709 1.072 2.173 1.83 1.914 3.152-.149.762-1.149.608-1.752.942.871 1.213 1.913 2.32 2.758 3.526.438.626 1.094 1.34.644 2-.518.762-1.512.114-2.031.1-.627 2.021.3 3.375 2.769 3.985.29.072.617.495.52.715-.958 2.2 1.865 3.379 2.222 5.4.179-.28.241-.328.236-.378-.2-2.419-1.072-5.195 3.422-5.091.221.005.419-.383.662-.559.24-.733 1.758-.859 1.139-2 .674.721 2.283 1.288.4 2.315-.359.2 1.328 1.5 1.857 2.4a25.617 25.617 0 0 1-3.784.854c-1.079.237-.327.707-.442 1.051l1.56 2.014c-.983.419-1.451-.774-2.283-.533-.022.925.966 1.542 1.242 2.4-1 .553-2.8-1.337-3.254.553-2.053-1.261-4.574-1.7-6.544-3.108l3.926 1.1c-.836-1.759-2.571-2.256-4.044-3.354.622-.073 1.394 0 1.495-.207.306-.628-.593-.717-.987-1.039-.189-.156-.391-.3-.587-.448-.439-.334-1.3-.432-1.262-1.016.052-.8 1.208-.1 1.7-.722L2062 379.65c2.394-.344 4.207.861 6.157 1.244.482-1.15-1.271-1.3-1.467-2.3 1.334-.44 2.812.132 4.407.109-.93-2.318-3.389-3.258-5.236-4.568.2-.5.581-.347.884-.375 1.027-.1 2.637.714 2.984-.092.4-.93-.949-1.923-1.737-2.785-.836-.916-1.786-1.76-2.867-2.812 1.905-.225 3.345.6 4.947 1.034.428-1.381-1.2-2.305-1.228-3.492z" transform="translate(-1354)"/>
        <path id="Path_274" fill="#deb490" d="M2082.749 386.255c.717 2.083-.862 1.83-2.359 1.6-1.673-.256-2.679 0-1.37 1.579 1.141 1.376-.579 2.589.409 4.043.322.473-1.059.416-1.495-.147-1.121-1.451-1.38-3.341-3.382-4.356a.6.6 0 0 1-.091-.634c2.3-2.314-.668-2.121-1.954-2.67-.929-.4-1.976-.821-2.142-1.689-.222-1.161 1.408-.025 1.732-.87-.256-.757-2-1.1-1.5-2.344 1.292-.239 2.12 1.284 3.577.9-.845-2.05-2.55-3.688-4.081-5.4-.3-.333-1.123-.44-.745-1.032.251-.393.711-.239 1.158-.056a1.489 1.489 0 0 0 1.694-.179c.449-.592-.285-1.112-.709-1.6-.8-.926-2-1.619-2.445-2.716.387-.345.716-.178 1.044-.085.662.186 1.214 1.1 1.871.7.881-.545-.384-1.183-.406-1.793-.064-1.722-1.388-2.983-2.458-4.341.968-1.438 1.7-.042 2.472.377.538.292 1.033.817 1.6.311.406-.359.193-.852-.177-1.244-.909-.962-.731-2.142-1.589-3.344.789.165 1.228.213 1.635.35 2.069.7 2.358-.063 1.809-1.574-.225-.618-1-1.37-.108-1.835.784-.411 1.467.3 2.15.669.543.293 1.094.583 1.666.822 1.294.541 2.078 1.091.514 1.959-.884.49-1.111 1.075.038 1.742.215.125.532.383.509.521-.427 2.593 2.01 2.891 3.984 3.5-.166.868-.9.865-1.592.888-.754.024-1.373.392-.761.935 1.285 1.142.987 1.65-.459 2.055-.726.2-.867.73-.271 1.232 1.38 1.161.91 2.306.151 3.221-.894 1.078-.762 1.685.785 2.192.4.132.936.23.918.726-.017.467-.49.56-.926.575-.922.031-1.725.177-.931 1.168 1.33 1.66 3.037 3.215 1.764 5.305-.048.068.305.351.471.539z" transform="translate(-1354)"/>
        <path id="Path_275" fill="url(#radial-gradient-3)" d="M2070.566 429.084a70.092 70.092 0 0 1 13.09-5.327s-.084 0 1.6-.261c0 0 2.093-.154 4.1-.23a5.372 5.372 0 0 0 .871-.794l-.761-1.62-8.854.264-10.656 5.02-1.221 2.864s.472.786 1.831.084z" transform="translate(-1354)"/>
        <path id="Path_276" fill="url(#radial-gradient-4)" d="M2064.328 428.084a70.128 70.128 0 0 0-13.09-5.327s.083 0-1.6-.261c0 0-2.092-.154-4.1-.23a5.4 5.4 0 0 1-.87-.794l.76-1.62 8.855 1.264 10.656 5.02 1.215 1.864s-.467.786-1.826.084z" transform="translate(-1354)"/>
    </g>
</svg>
