<svg id="Layer_1" data-name="Layer 1" xmlns="http://www.w3.org/2000/svg" xmlns:xlink="http://www.w3.org/1999/xlink" viewBox="0 0 171.86 160.79"><defs><style>.cls-1{fill:#ecbc93;}.cls-2{fill:#68aa9e;}.cls-3{fill:#f2c498;}.cls-4{fill:#ecb388;}.cls-5{fill:#f7d5a9;}.cls-6{fill:#e7a277;}.cls-7{fill:#da946d;}.cls-8{fill:#c68260;}.cls-9{fill:url(#linear-gradient);}.cls-10{fill:#423030;}.cls-11{fill:#493434;}.cls-12{fill:url(#linear-gradient-2);}.cls-13{fill:url(#linear-gradient-3);}.cls-14{fill:url(#radial-gradient);}.cls-15{fill:#5c4f50;}.cls-16,.cls-17,.cls-18{fill:none;stroke-miterlimit:10;}.cls-16{stroke:#fee0c2;stroke-width:2px;}.cls-17,.cls-18{stroke:#3b2416;}.cls-18{stroke-width:0.7px;}.cls-19{fill:url(#radial-gradient-2);}.cls-20{fill:url(#radial-gradient-3);}.cls-21{fill:#fff;}</style><linearGradient id="linear-gradient" x1="334.58" y1="629.61" x2="334.58" y2="653.87" gradientTransform="matrix(1, 0, 0, -1, 234, 1226)" gradientUnits="userSpaceOnUse"><stop offset="0.13" stop-color="#f5cfa3"/><stop offset="0.41" stop-color="#f3ca9e"/><stop offset="1" stop-color="#f2c498"/></linearGradient><linearGradient id="linear-gradient-2" x1="340.12" y1="650.81" x2="340.12" y2="637.2" gradientTransform="matrix(1, 0, 0, -1, 234, 1226)" gradientUnits="userSpaceOnUse"><stop offset="0" stop-color="#ecbc93"/><stop offset="0.63" stop-color="#ecbd94"/><stop offset="0.85" stop-color="#efc499"/><stop offset="1" stop-color="#f5cfa3"/></linearGradient><linearGradient id="linear-gradient-3" x1="329.07" y1="650.81" x2="329.07" y2="637.2" xlink:href="#linear-gradient-2"/><radialGradient id="radial-gradient" cx="10.8" cy="1068.34" r="1.27" gradientTransform="matrix(27.06, 0, 0, -27.05, 273.05, 29418.95)" gradientUnits="userSpaceOnUse"><stop offset="0" stop-color="#f4caa6"/><stop offset="0.67" stop-color="#f3c9a4"/><stop offset="0.91" stop-color="#f2c69d"/><stop offset="1" stop-color="#f2c498"/></radialGradient><radialGradient id="radial-gradient-2" cx="-16.18" cy="1037.9" r="1.27" gradientTransform="matrix(8.18, 0, 0, -8.17, -1218.83, 9052.19)" xlink:href="#radial-gradient"/><radialGradient id="radial-gradient-3" cx="-15.91" cy="1036.55" r="1.27" gradientTransform="matrix(7.92, 0, 0, -7.93, -1193.68, 8784.98)" xlink:href="#radial-gradient"/></defs><path class="cls-1" d="M568,611.24c14.89-.2,37.6-19.35,41.19-18.23l.11,0a57.36,57.36,0,0,1-9.62-3.74c-3.91-2.07-3.88-11.46-3.88-11.46-1.41-3.33-54.26-.08-54.26-.08s-1.19,10.29-5.56,12.31a63.38,63.38,0,0,1-7.78,2.82l.07,0C531.25,592,553.15,611.44,568,611.24Z" transform="translate(-482.66 -478.29)"/><path class="cls-2" d="M650.73,614.09c-2.14-7.12-7.47-9.91-14.64-13-6.71-2.91-16.55-5-25.08-7.53l-.24-.07-.6-.18-.24-.07-.59-.18-.11,0c-3.59-1.12-26.3,18-41.19,18.23S531.25,592,528.31,592.87l-.07,0-.5.15-.33.1-.51.15-.33.1-.53.15-.32.09-.54.16-.33.09-.55.16-.32.09c-7.94,2.21-16.9,4.34-22.9,6.94-7.17,3.11-11.93,5.9-14.06,13-.72,2.4-4.1,24.83-4.36,24.83l85.6.16h.65l85.61-.16C654.25,638.92,651.45,616.49,650.73,614.09Z" transform="translate(-482.66 -478.29)"/><path class="cls-3" d="M608.14,540.48c-1.16-.85-3.65-.48-5,.09,0,.34,0,.68,0,1,0,.65,0,1.31-.07,2-.07,1.48-.17,3-.31,4.45-.07.74-.15,1.48-.23,2.22,0,.27-.07.54-.1.82-.36,2.43-.69,4.33-.8,5.16a85.55,85.55,0,0,1-2,8.62,5.61,5.61,0,0,0,2.67-1.55,5.67,5.67,0,0,0,1.46-2.71,54.48,54.48,0,0,1,3.58-12.25C609.58,542,608.14,540.48,608.14,540.48Z" transform="translate(-482.66 -478.29)"/><path class="cls-4" d="M605.85,550s2.12-6.09,1.5-6.78c-1-1.13-3.65,1.9-4.56,4.62-.07.74-.14,1.48-.23,2.21C604.41,545.64,606.69,546.43,605.85,550Z" transform="translate(-482.66 -478.29)"/><path class="cls-5" d="M601.31,559.38s1.68-.74,1.92-1.77-.51-1.86.28-2.19,1.59-1.7,1.85-2.09,1.45-5.16.57-6.52-3.38,2.81-3.38,2.81Z" transform="translate(-482.66 -478.29)"/><path class="cls-6" d="M602.35,551.78c.23-.07,2-2.43,2.49-2.13.68.44.21,3.21-.8,4.63a10.13,10.13,0,0,1-2.39,1.93Z" transform="translate(-482.66 -478.29)"/><path class="cls-3" d="M529,540.48c1.16-.85,3.66-.48,5,.09,0,.34,0,.68,0,1,0,.65,0,1.31.08,2,.07,1.48.17,3,.31,4.45.07.74.14,1.48.23,2.22,0,.27.06.54.1.82.36,2.43.69,4.33.79,5.16a88.36,88.36,0,0,0,2,8.62,5.68,5.68,0,0,1-4.12-4.26,54,54,0,0,0-3.59-12.25C527.52,542,529,540.48,529,540.48Z" transform="translate(-482.66 -478.29)"/><path class="cls-4" d="M531.24,550s-2.12-6.09-1.49-6.78c1-1.13,3.65,1.9,4.56,4.62.06.74.14,1.48.23,2.21C532.69,545.64,530.41,546.43,531.24,550Z" transform="translate(-482.66 -478.29)"/><path class="cls-5" d="M535.78,559.38s-1.68-.74-1.92-1.77.51-1.86-.27-2.19-1.59-1.7-1.85-2.09-1.45-5.16-.57-6.52,3.38,2.81,3.38,2.81Z" transform="translate(-482.66 -478.29)"/><path class="cls-6" d="M534.75,551.78c-.23-.07-2-2.43-2.49-2.13-.68.44-.21,3.21.8,4.63a10.13,10.13,0,0,0,2.39,1.93Z" transform="translate(-482.66 -478.29)"/><path class="cls-3" d="M606.08,516.89C605.41,486,569.52,486,568.56,486S531.72,486,531,516.89c-.47,21.55-.11,20.82.62,24.38s2.44,11.53,2.78,15.56.34,16.44,5.55,25A111.74,111.74,0,0,0,550.77,597c.78.84,2.52,3.09,3.34,3.82,1.57,1.42,8.24,6.69,14.46,5.93,6.21.76,12.71-4,14.46-5.93.74-.81,2.55-3,3.33-3.82a111.81,111.81,0,0,0,10.79-15.14c5.21-8.61,5.2-21,5.54-25s2-12,2.78-15.56S606.56,538.44,606.08,516.89Z" transform="translate(-482.66 -478.29)"/><path class="cls-1" d="M564.51,577.28s.4-4.89-3.34-6.29-16.22-3.18-16.74-3.55c.29.21.63,1.2.84,1.51a16.67,16.67,0,0,0,6.57,5.95c2.32,1,4.9,1,7.44,1.32C559.86,576.29,564.53,576.58,564.51,577.28Z" transform="translate(-482.66 -478.29)"/><path class="cls-7" d="M566.72,599.69a6.69,6.69,0,0,0,3.66,0c3.39-.07,7.34-3.7,7.34-3.7a17.67,17.67,0,0,1-7.34,2.53,6.69,6.69,0,0,1-3.66,0c-3.39-.07-7.76-2.69-7.76-2.69l.56.51a1.77,1.77,0,0,0-.26-.35S563.33,599.62,566.72,599.69Z" transform="translate(-482.66 -478.29)"/><path class="cls-6" d="M566.83,601.37a14.46,14.46,0,0,1,2.28,0c3.2.46,5.93-2.31,7.41-3.89a12.74,12.74,0,0,0,1.2-1.46s-3.94,3.62-7.34,3.69a6.66,6.66,0,0,1-3.65,0c-3.4-.07-7.47-3.69-7.47-3.69a1.52,1.52,0,0,1,.26.35l1,.92C564.27,600.52,565.88,601.46,566.83,601.37Z" transform="translate(-482.66 -478.29)"/><path class="cls-8" d="M567.08,598.52a12.18,12.18,0,0,1-3.49-.66,27.32,27.32,0,0,1-3.31-1.35l-1-.49-.35-.19.34.21,1,.53a21.83,21.83,0,0,0,3.3,1.41,11.13,11.13,0,0,0,3.53.6c.45,0,.82.09,1.07.13a2.42,2.42,0,0,1,.39.07l-.38-.09A8.08,8.08,0,0,0,567.08,598.52Z" transform="translate(-482.66 -478.29)"/><path class="cls-8" d="M577.38,596.18c-.21.12-.52.29-.92.48l-.65.3-.75.33-.84.33-.45.16-.24.08-.23.07-.24.07-.12,0-.12,0-.46.13-.45.09-.22.05-.22,0-.41.07-.4,0-.37,0c-.12,0-.23,0-.34,0-.44.05-.79.12-1,.17a3.16,3.16,0,0,0-.37.08l.37-.06c.25,0,.6-.1,1-.13l.34,0h.38l.4,0,.42,0,.22,0,.22,0,.46-.1.47-.11.12,0,.12,0,.23-.07.24-.08.24-.08.45-.16c.29-.12.58-.23.84-.35l.75-.34c.24-.11.45-.23.64-.33.38-.21.69-.38.9-.51l.32-.2Z" transform="translate(-482.66 -478.29)"/><path class="cls-9" d="M576,587c-.2-.37-.41-.74-.59-1.14s-.34-.68-.48-.95a7.25,7.25,0,0,1-.75-1.77c0-.13-.3-1.43-.42-2a36,36,0,0,0-2-7.14,5,5,0,0,0-3.08-1.9v0h-.15v0a5.13,5.13,0,0,0-3.17,1.9,37.39,37.39,0,0,0-2,7.14c-.11.55-.38,1.85-.41,2a8.12,8.12,0,0,1-.75,1.77c-.14.27-.31.57-.48.95s-.4.77-.6,1.14c-.69,1.24-1.29,2.32-.74,3.79a6.91,6.91,0,0,0,2.79,2.95,20,20,0,0,1,1.79,1.4,16.75,16.75,0,0,0,3.49,1.2h.17a16.75,16.75,0,0,0,3.49-1.2,20,20,0,0,1,1.79-1.4,6.85,6.85,0,0,0,2.79-2.95C577.29,589.36,576.69,588.28,576,587Z" transform="translate(-482.66 -478.29)"/><path class="cls-1" d="M572.64,577.28s-.4-4.89,3.34-6.29,16.23-3.18,16.75-3.55c-.3.21-.64,1.2-.84,1.51a16.7,16.7,0,0,1-6.58,5.87,25.12,25.12,0,0,1-7.44,1.4C577.29,576.29,572.62,576.58,572.64,577.28Z" transform="translate(-482.66 -478.29)"/><path class="cls-4" d="M546.7,569.83s3.82,7,10.79,2.12C557.49,572,551.35,568.16,546.7,569.83Z" transform="translate(-482.66 -478.29)"/><path class="cls-10" d="M557.49,572l-.43.32-.23.16-.28.18-.33.2-.38.2a7.65,7.65,0,0,1-2,.71,6.71,6.71,0,0,1-2.64-.05,7.47,7.47,0,0,1-1.31-.44,8.05,8.05,0,0,1-1.11-.62,9.38,9.38,0,0,1-1.63-1.38,10.85,10.85,0,0,1-.91-1.12c-.19-.28-.28-.44-.28-.44s.11.15.33.41a13.46,13.46,0,0,0,1,1,10.24,10.24,0,0,0,1.67,1.25,8.61,8.61,0,0,0,1.09.56,7.79,7.79,0,0,0,1.24.4,7.06,7.06,0,0,0,2.51.1,8.15,8.15,0,0,0,2-.56l.39-.17a2.15,2.15,0,0,0,.34-.17l.3-.15.24-.13Z" transform="translate(-482.66 -478.29)"/><path class="cls-10" d="M562.91,573.35s2.24.27,1.42-1a3.19,3.19,0,0,0-1.61-1s-13.57-6.14-15.24-6.66-5.66.17-6.49-1.61c0,0-.56,6,10.88,7.26C551.87,570.42,562.27,573.29,562.91,573.35Z" transform="translate(-482.66 -478.29)"/><path class="cls-11" d="M551.87,568.39s7.54,2.08,10.18,2.74c-2.77-1.25-13.12-5.91-14.57-6.36s-4-.08-5.53-.75C543.16,565.74,545.86,567.71,551.87,568.39Z" transform="translate(-482.66 -478.29)"/><path class="cls-4" d="M590.47,569.83s-3.82,7-10.78,2.12C579.69,572,585.83,568.16,590.47,569.83Z" transform="translate(-482.66 -478.29)"/><path class="cls-10" d="M579.69,572l.45.26a1.88,1.88,0,0,0,.24.14l.3.15.34.17.39.17a8.65,8.65,0,0,0,2,.55,7,7,0,0,0,2.49-.13,7.8,7.8,0,0,0,1.23-.43,7.38,7.38,0,0,0,1.07-.58,10.56,10.56,0,0,0,1.63-1.28,13.43,13.43,0,0,0,1-1c.21-.25.32-.41.32-.41s-.09.16-.27.44a10.81,10.81,0,0,1-.88,1.14,9.27,9.27,0,0,1-1.58,1.42,8.08,8.08,0,0,1-1.1.64,7.09,7.09,0,0,1-1.29.47,6.47,6.47,0,0,1-2.63.07,7.32,7.32,0,0,1-2-.69l-.38-.2-.33-.2-.28-.18-.23-.16Z" transform="translate(-482.66 -478.29)"/><path class="cls-10" d="M574.26,573.35s-2.23.27-1.41-1a3.15,3.15,0,0,1,1.61-1s13.57-6.14,15.24-6.66,5.66.17,6.49-1.61c0,0,.56,6-10.88,7.26C585.31,570.42,574.9,573.29,574.26,573.35Z" transform="translate(-482.66 -478.29)"/><path class="cls-11" d="M585.37,568.39s-7.54,2.08-10.18,2.74c2.77-1.25,13.12-5.91,14.57-6.36,1.3-.41,4-.08,5.52-.75C594.08,565.74,591.38,567.71,585.37,568.39Z" transform="translate(-482.66 -478.29)"/><path class="cls-4" d="M565.72,602.52a11.82,11.82,0,0,0,5.73,0A8,8,0,0,0,565.72,602.52Z" transform="translate(-482.66 -478.29)"/><path class="cls-12" d="M575.75,586.45s-1.11-.57-2.19,2.35c0,0-1.92-11.2-.59-13.61,0,0,3.41.35,1.76.65C571.84,576.37,575.51,585.25,575.75,586.45Z" transform="translate(-482.66 -478.29)"/><path class="cls-13" d="M561.44,586.45s1.1-.57,2.19,2.35c0,0,1.92-11.2.59-13.61,0,0-3.41.35-1.76.65C565.35,576.37,561.68,585.25,561.44,586.45Z" transform="translate(-482.66 -478.29)"/><path class="cls-14" d="M568.28,554.27c19.79,0,35.84-14.66,35.84-32.74s-16-32.74-35.84-32.74-35.84,14.66-35.84,32.74S548.48,554.27,568.28,554.27Z" transform="translate(-482.66 -478.29)"/><path class="cls-1" d="M602.32,540.2a10,10,0,0,0-3.22-7.12c-.74-.68-1.54-1.29-2.25-2-.55.36-1.14.68-1.71,1-5.72,3.1-12.85,6-19.38,3.94,1.1,0,1.88-.24,1.74-1.49-4.84,2.91-11.63,5-17.06,2.51a2.49,2.49,0,0,0-1-.4,16.5,16.5,0,0,1-2-.15,13.16,13.16,0,0,1-3.58-1,10.45,10.45,0,0,1-5.27-5.07,6.77,6.77,0,0,0,1.35,0,11.93,11.93,0,0,1-2.48-.72,9.63,9.63,0,0,1-4.22-3,7.51,7.51,0,0,1-.75,1.2c-.88,1.13-2.23,1.62-3.23,2.6-1.16,1.54-2.31,3.08-3.44,4.64a10.88,10.88,0,0,0-1.52,5.76,10,10,0,0,0,.14,1.21,12.1,12.1,0,0,1,1.38-3.72,265.58,265.58,0,0,1,3.42-4.63c1-1,2.36-1.48,3.24-2.61a6.81,6.81,0,0,0,.74-1.2,9.63,9.63,0,0,0,4.23,3,12,12,0,0,0,2.48.73l0,0,0,0a7.73,7.73,0,0,1-1.36,0,10.57,10.57,0,0,0,5.28,5.08,13.41,13.41,0,0,0,3.58,1,14.69,14.69,0,0,0,2,.15c.37,0,.61.25.95.4,5.44,2.49,12.23.4,17.07-2.51.14,1.25-.64,1.5-1.74,1.5,6.53,2,13.66-.85,19.38-3.95.57-.31,1.16-.63,1.71-1,.71.71,1.51,1.31,2.25,2a10,10,0,0,1,3.18,6.63A25.42,25.42,0,0,0,602.32,540.2Z" transform="translate(-482.66 -478.29)"/><path class="cls-4" d="M583,600.83c-1.75,1.91-8.25,6.69-14.46,5.94-6.22.75-12.89-4.52-14.46-5.94-.82-.73-2.56-3-3.34-3.82a109.82,109.82,0,0,1-10.22-14.22,15.14,15.14,0,0,1-3.16,6.3c4.56,9.52,14.6,18.46,31.19,18.46s24.76-8.94,31.18-18.24l0,0c-1.87-1-2.84-3.66-3.34-6.17a111.27,111.27,0,0,1-10,13.89C585.58,597.86,583.76,600,583,600.83Z" transform="translate(-482.66 -478.29)"/><path class="cls-15" d="M536.35,608.06c-.16.38-.33.75-.49,1.13l.32-.46C536.24,608.5,536.3,608.28,536.35,608.06Zm26.93-129.77a37.2,37.2,0,0,0-9.56,1.28A51.22,51.22,0,0,0,518,515.52c-3.59,13.94-1,28.75,3.31,42.47s10.45,26.86,14.18,40.76a20.28,20.28,0,0,1,.86,9.31,63.44,63.44,0,0,0,4.56-31.43c-1.2-10.73-5-22.15-.31-31.85a10.07,10.07,0,0,1,5.16-5.31,12.45,12.45,0,0,1,3.83-.59c6.09-.23,12.22-.06,18.2-1.26,6.17-1.25,8.62-3.14,11.9-7.89l.28,4.94c0,1.15.88,1.31,2,1.31.22,0,.45,0,.68,0h.7c.23,0,.47,0,.7,0,8.15.69,11.23,8.71,11.23,8.71,2,6.22,4.06,12.56,4,19.09-.09,7-2.57,13.61-4,20.39s1.71,15.29,5.43,21.16c1.61-14.37,9.4-31.48,13.32-46.75s5.41-31.64.84-46.74A44.2,44.2,0,0,0,608.74,499a35.13,35.13,0,0,0-28.11-14.44l-1.06,0,.21-.28C575.47,480,569.44,478.29,563.28,478.29Z" transform="translate(-482.66 -478.29)"/><path class="cls-15" d="M617.42,538.29s-7.28,22.83.23,56.77c0,0-10.37-.36-16.39-5.62S617.42,538.29,617.42,538.29Z" transform="translate(-482.66 -478.29)"/><path class="cls-15" d="M518.63,538.29s7.28,22.83-.23,56.77c0,0,10.36-.36,16.39-5.62S518.63,538.29,518.63,538.29Z" transform="translate(-482.66 -478.29)"/><path class="cls-16" d="M582.69,487.89s4.54,19.12,0,38.78" transform="translate(-482.66 -478.29)"/><path class="cls-17" d="M532.12,576.73c-2.42,15.08-9.82,27.52-11.92,32.34a124.17,124.17,0,0,0-5.36,15.21" transform="translate(-482.66 -478.29)"/><path class="cls-17" d="M536.13,513.58c-7.28,13.43-18.38,22.72-22,26.57a124.78,124.78,0,0,0-10.11,12.58" transform="translate(-482.66 -478.29)"/><path class="cls-18" d="M516,583.54c-3.6,16.07-1.91,17.34-1.48,23.68.36,5.41-1.93,15.86-2.12,21.14" transform="translate(-482.66 -478.29)"/><path class="cls-17" d="M514.1,559.66a66.5,66.5,0,0,1-1.14,8.55c-1.27,5.27-1.92,15.86-2.11,21.15" transform="translate(-482.66 -478.29)"/><path class="cls-17" d="M605.81,533.67c3.76,4.77,3,10.83,6.7,18.15,4.11,8.18,9.31,14.88,9.73,17.64" transform="translate(-482.66 -478.29)"/><path class="cls-17" d="M626.93,585.35c0,7.44-1.14,11.19,3.06,17s.86,11.07,4.12,16.81" transform="translate(-482.66 -478.29)"/><path class="cls-17" d="M619.09,569.37c-.53,9.83,3.6,19,5.08,32.35" transform="translate(-482.66 -478.29)"/><path class="cls-17" d="M564.5,484.85c-4.34-3-9.9-3.51-15.14-3.2-9.34.55-18.9,3.81-25.12,10.8-4,4.48-24.79,29.3-9.69,60.66,3.38,7,4.65,15.53,2.05,22.87" transform="translate(-482.66 -478.29)"/><path class="cls-17" d="M580,508.49c-4.27-4.22-6.68-3.73-11.53-4.33-7.39-.9-13.46,1-19.33,5.61-3.76,2.93-6.41,7-8.9,11.1a60.1,60.1,0,0,0-5.49,10.67c-2.8,7.71-2.65,16.16-1.87,24.33.58,6.17,1.41,12.82-1.68,18.19" transform="translate(-482.66 -478.29)"/><path class="cls-17" d="M585.06,525.6c3.61-1.32,12.72,2.83,14.8,12.06a77.2,77.2,0,0,1,1.47,15.54" transform="translate(-482.66 -478.29)"/><path class="cls-17" d="M586.2,520.28c2.67-.8,11.26,2.76,13.34,12A77.31,77.31,0,0,1,601,547.82" transform="translate(-482.66 -478.29)"/><path class="cls-17" d="M588.28,504.49c2.66-.8,11.26,2.76,13.34,12A78,78,0,0,1,603.1,532" transform="translate(-482.66 -478.29)"/><path class="cls-17" d="M583.37,529.63c4.65-.21,14.73,5.14,16.8,14.37a76.59,76.59,0,0,1,1.48,15.55" transform="translate(-482.66 -478.29)"/><path class="cls-17" d="M586.71,500.14c15.31-14.8,29.88,12.24,32.88,21.11s7.52,25.61,9.66,35.18c.86,3.88,4.36,17.54,11.67,21" transform="translate(-482.66 -478.29)"/><path class="cls-17" d="M581.14,486.68c-2.18-1.22-3.51-3.54-5.54-5-3.08-2.2-7.2-2.07-11-1.85" transform="translate(-482.66 -478.29)"/><path class="cls-17" d="M585.48,488.82c2.36-1,9.28.2,11.68,1.11a30.69,30.69,0,0,1,6.61,3.89" transform="translate(-482.66 -478.29)"/><path class="cls-17" d="M580.83,523.5c-8.88-7.93-33,1.79-36.16,12.58-2.34,8-7.61,15.41-6.63,23.68s3,16.4,3.64,24.71-.22,17-4.57,24.13" transform="translate(-482.66 -478.29)"/><path class="cls-17" d="M579.13,532.38c-7,0-12.89.52-20.51,4.65-7.32,4-14.3,7-17.75,14.59" transform="translate(-482.66 -478.29)"/><path class="cls-17" d="M574.15,490.11c-7,0-12.9.53-20.51,4.65-7.32,4-14.31,7-17.76,14.59" transform="translate(-482.66 -478.29)"/><path class="cls-17" d="M579.35,526.87c-7.82-1.9-14.38-1-22,3.17-7.32,4-13,8.6-16.49,16.18" transform="translate(-482.66 -478.29)"/><path class="cls-19" d="M573.72,573.28a89,89,0,0,1,16.61-6.75s-.11,0,2-.34c0,0,2.65-.19,5.2-.29a7,7,0,0,0,1.1-1l-1-2.06-11.23.33L573,569.54l-1.55,3.64S572,574.17,573.72,573.28Z" transform="translate(-482.66 -478.29)"/><path class="cls-20" d="M563.28,573.28a89,89,0,0,0-16.61-6.75s.11,0-2-.34c0,0-2.65-.19-5.2-.29,0,0,1.89-.15,1.11-1l-1.25-2.1,11.23.33,13.52,6.37,1.54,3.64S565,574.17,563.28,573.28Z" transform="translate(-482.66 -478.29)"/><path class="cls-21" d="M532.66,510.69h-8.59a.63.63,0,0,0,0,1.25h8.59a.63.63,0,0,0,0-1.25Z" transform="translate(-482.66 -478.29)"/><path class="cls-21" d="M532,507.73l-.16,0h-.27a3.15,3.15,0,0,1-.53,0h-.16l-.26-.05a4.37,4.37,0,0,1-.52-.12,4.62,4.62,0,0,1-1.68-.93.64.64,0,0,0-.88,0,.62.62,0,0,0,0,.88,5.92,5.92,0,0,0,4.8,1.42.63.63,0,0,0,.43-.77.65.65,0,0,0-.77-.44Z" transform="translate(-482.66 -478.29)"/><path class="cls-21" d="M534.5,506.58l-2-3.87a.63.63,0,1,0-1.08.63l2,3.87a.62.62,0,0,0,.85.22.63.63,0,0,0,.23-.85Z" transform="translate(-482.66 -478.29)"/><path class="cls-21" d="M529.55,577.09h-3.76a.64.64,0,0,0-.63.62.65.65,0,0,0,.63.63h3.76a.63.63,0,0,0,0-1.25Z" transform="translate(-482.66 -478.29)"/><path class="cls-21" d="M528.92,574.82l-.16,0s-.23,0,0,0l-.3,0h-.3l-.17,0c-.13,0,.14,0,0,0a3.77,3.77,0,0,1-.6-.16l-.08,0h0s-.09,0-.12-.05l-.3-.17a.62.62,0,0,0-.85.23.64.64,0,0,0,.22.85,4,4,0,0,0,3,.47.62.62,0,0,0,.43-.76.64.64,0,0,0-.77-.44Z" transform="translate(-482.66 -478.29)"/><path class="cls-21" d="M606.34,530.27a9.77,9.77,0,0,1,1.26-4.41c.39-.7-.69-1.33-1.08-.63a11.15,11.15,0,0,0-1.43,5,.63.63,0,0,0,.62.63.65.65,0,0,0,.63-.63Z" transform="translate(-482.66 -478.29)"/><path class="cls-21" d="M607.63,531.8l.68-.11-.17,0a11,11,0,0,1,1.28-.09.65.65,0,0,0,.63-.63.64.64,0,0,0-.63-.62,11.66,11.66,0,0,0-2.12.23.62.62,0,0,0-.43.77.63.63,0,0,0,.76.43Z" transform="translate(-482.66 -478.29)"/><path class="cls-21" d="M575,492.23l-1.83,2.44a.65.65,0,0,0-.06.49.63.63,0,0,0,.29.37.62.62,0,0,0,.48.06.74.74,0,0,0,.37-.28l1.83-2.45a.62.62,0,0,0,.06-.48.64.64,0,0,0-.77-.44.76.76,0,0,0-.37.29Z" transform="translate(-482.66 -478.29)"/><path class="cls-21" d="M577.12,492.94v1.63a.63.63,0,0,0,1.25,0v-1.63a.62.62,0,0,0-.62-.62.63.63,0,0,0-.63.62Z" transform="translate(-482.66 -478.29)"/></svg>