<svg width="136" height="127" viewBox="0 0 136 127" fill="none" xmlns="http://www.w3.org/2000/svg">
<g clip-path="url(#clip0_236_1029)">
<path d="M67.313 104.804C79.051 104.648 96.9481 89.552 99.7781 90.429L99.8669 90.456C97.2563 89.7036 94.7192 88.7169 92.2861 87.508C89.2001 85.873 89.2241 78.473 89.2241 78.473C88.1141 75.845 46.4512 78.407 46.4512 78.407C46.4512 78.407 45.517 86.52 42.072 88.114C40.0769 88.9897 38.0262 89.7326 35.9331 90.338L35.9961 90.319C38.3071 89.614 55.576 104.961 67.313 104.804Z" fill="#EDBC94"/>
<path d="M132.497 107.045C130.811 101.438 126.61 99.237 120.956 96.788C115.663 94.494 107.905 92.833 101.183 90.852L100.995 90.797L100.52 90.655L100.336 90.599L99.8669 90.456L99.7781 90.429C96.9481 89.552 79.051 104.648 67.313 104.804C55.575 104.96 38.3071 89.614 35.9961 90.319L35.9331 90.338L35.542 90.455L35.2791 90.534L34.8792 90.654L34.6221 90.729L34.2021 90.851L33.947 90.9241L33.5261 91.044L33.2629 91.119L32.8281 91.241L32.5762 91.3121C26.3232 93.0541 19.2571 94.737 14.5251 96.788C8.87215 99.237 5.12507 101.438 3.44507 107.045C2.87607 108.938 0.21415 126.624 0.00415039 126.623L67.4871 126.75H67.999L135.481 126.623C135.267 126.624 133.066 108.938 132.497 107.045Z" fill="#68AA9E"/>
<path d="M98.9241 49.02C98.0091 48.352 96.0411 48.646 95.0071 49.091C95.0071 49.36 94.997 49.628 94.99 49.897C94.976 50.4137 94.9568 50.9307 94.9321 51.448C94.8768 52.6213 94.795 53.792 94.687 54.96C94.6323 55.5433 94.5715 56.1257 94.5042 56.707C94.4802 56.922 94.453 57.138 94.426 57.353C94.141 59.273 93.883 60.771 93.801 61.419C93.3822 63.7111 92.8483 65.9806 92.2012 68.219C93.0007 68.0146 93.7278 67.5924 94.3018 66.9994C94.8757 66.4064 95.274 65.6658 95.4521 64.86C96.0089 61.5402 96.9575 58.2983 98.2781 55.202C100.056 50.197 98.9241 49.02 98.9241 49.02Z" fill="#F2C498"/>
<path d="M97.1201 56.521C97.1201 56.521 98.7891 51.721 98.2961 51.171C97.4961 50.281 95.4201 52.671 94.7051 54.814C94.6511 55.398 94.5903 55.9807 94.5229 56.562C95.9779 53.091 97.7781 53.717 97.1201 56.521Z" fill="#ECB388"/>
<path d="M93.54 63.922C93.54 63.922 94.865 63.338 95.052 62.528C95.239 61.718 94.652 61.059 95.27 60.803C95.888 60.547 96.525 59.46 96.73 59.153C96.935 58.846 97.874 55.087 97.176 54.013C96.478 52.939 94.5142 56.228 94.5142 56.228L93.54 63.922Z" fill="#F7D5A9"/>
<path d="M94.356 57.934C94.538 57.876 95.9561 56.015 96.3191 56.251C96.8541 56.595 96.4851 58.78 95.6931 59.898C95.145 60.4987 94.5078 61.0117 93.804 61.419L94.356 57.934Z" fill="#E7A277"/>
<path d="M36.4989 49.02C37.4139 48.352 39.382 48.646 40.415 49.091C40.42 49.36 40.426 49.628 40.433 49.897C40.447 50.4137 40.4662 50.9307 40.4909 51.448C40.5462 52.6213 40.628 53.792 40.736 54.96C40.7907 55.5433 40.8515 56.1257 40.9189 56.707C40.9429 56.922 40.97 57.138 40.997 57.353C41.282 59.273 41.54 60.771 41.622 61.419C42.0408 63.7111 42.5749 65.9806 43.2221 68.219C42.4225 68.0145 41.6951 67.5922 41.121 66.9993C40.5469 66.4063 40.1484 65.6658 39.9699 64.86C39.4137 61.5402 38.4655 58.2982 37.1449 55.202C35.3669 50.197 36.4989 49.02 36.4989 49.02Z" fill="#F2C498"/>
<path d="M38.303 56.521C38.303 56.521 36.633 51.721 37.127 51.171C37.927 50.281 40.0031 52.671 40.7181 54.814C40.7721 55.398 40.8329 55.9807 40.9002 56.562C39.4452 53.091 37.645 53.717 38.303 56.521Z" fill="#ECB388"/>
<path d="M41.8831 63.922C41.8831 63.922 40.5571 63.338 40.3711 62.528C40.1851 61.718 40.7711 61.059 40.1531 60.803C39.5351 60.547 38.8981 59.46 38.6931 59.153C38.4881 58.846 37.5491 55.087 38.2471 54.013C38.9451 52.939 40.9089 56.228 40.9089 56.228L41.8831 63.922Z" fill="#F7D5A9"/>
<path d="M41.07 57.934C40.888 57.876 39.4699 56.015 39.1069 56.251C38.5719 56.595 38.9411 58.78 39.7331 59.898C40.2812 60.4987 40.9182 61.0117 41.622 61.419L41.07 57.934Z" fill="#E7A277"/>
<path d="M97.3011 30.424C96.7661 6.04003 68.4763 6.10202 67.7223 6.10802C66.9683 6.11402 38.6782 6.04003 38.1432 30.424C37.7712 47.417 38.0561 46.842 38.6361 49.646C39.2161 52.45 40.5533 58.737 40.8273 61.914C41.1013 65.091 41.0901 74.872 45.1971 81.662C47.6947 85.8669 50.5379 89.8567 53.6971 93.59C54.3101 94.258 55.6853 96.025 56.3263 96.602C57.5653 97.721 62.8262 101.875 67.7262 101.281C72.6262 101.875 77.7461 98.11 79.1261 96.602C79.7081 95.966 81.1412 94.258 81.7552 93.59C84.9145 89.8566 87.7576 85.8668 90.2552 81.662C94.3632 74.872 94.3551 65.09 94.6261 61.914C94.8971 58.738 96.2363 52.45 96.8163 49.646C97.3963 46.842 97.6741 47.417 97.3011 30.424Z" fill="#F2C498"/>
<path d="M64.53 78.033C64.53 78.033 64.8419 74.178 61.8979 73.076C58.9539 71.974 49.108 70.568 48.698 70.276C48.93 70.443 49.1982 71.22 49.3582 71.464C50.6339 73.4644 52.423 75.0859 54.5391 76.159C56.3661 76.969 58.4051 76.959 60.4031 77.196C60.8631 77.248 64.546 77.481 64.53 78.033Z" fill="#EDBC94"/>
<path d="M66.2742 95.697C67.215 95.9637 68.2113 95.9637 69.1521 95.697C71.8291 95.639 74.9399 92.784 74.9399 92.784C73.1814 93.8676 71.2049 94.5483 69.1521 94.777C68.2111 95.0425 67.2151 95.0425 66.2742 94.777C63.5972 94.719 60.157 92.653 60.157 92.653C60.307 92.793 60.457 92.928 60.595 93.059C60.5382 92.9582 60.4679 92.8657 60.386 92.784C60.386 92.784 63.5972 95.643 66.2742 95.697Z" fill="#DB956E"/>
<path d="M66.356 97.018C66.9549 96.9705 67.5565 96.9665 68.156 97.006C70.679 97.367 72.83 95.189 73.999 93.937C74.3405 93.5768 74.656 93.1929 74.9431 92.788C74.9431 92.788 71.832 95.643 69.155 95.701C68.2142 95.9677 67.2179 95.9677 66.2771 95.701C63.6001 95.643 60.3892 92.788 60.3892 92.788C60.4711 92.8697 60.5414 92.9622 60.5981 93.063C60.8815 93.323 61.1516 93.565 61.4089 93.789C64.3389 96.352 65.612 97.09 66.356 97.018Z" fill="#E7A277"/>
<path d="M66.5562 94.772C65.617 94.7341 64.6884 94.5589 63.8 94.252C62.9083 93.956 62.0372 93.6016 61.1921 93.191C60.8671 93.034 60.607 92.9 60.429 92.806C60.251 92.712 60.1521 92.657 60.1521 92.657C60.1521 92.657 60.2461 92.718 60.4211 92.82C60.5961 92.922 60.8492 93.068 61.1702 93.236C62.0041 93.679 62.8737 94.051 63.77 94.348C64.6649 94.6581 65.6049 94.8183 66.552 94.822C66.911 94.848 67.2011 94.892 67.4001 94.922C67.5991 94.952 67.709 94.977 67.709 94.977C67.709 94.977 67.6011 94.949 67.4031 94.906C67.1233 94.8462 66.8407 94.8015 66.5562 94.772Z" fill="#C68260"/>
<path d="M74.677 92.934C74.507 93.025 74.26 93.156 73.95 93.306C73.795 93.383 73.623 93.461 73.439 93.547C73.255 93.633 73.057 93.719 72.845 93.803C72.633 93.887 72.4122 93.976 72.1802 94.065C72.0642 94.108 71.944 94.147 71.824 94.19C71.763 94.21 71.7031 94.233 71.6411 94.252L71.4541 94.309L71.2671 94.367L71.1741 94.395L71.0811 94.42L70.717 94.52C70.597 94.55 70.4771 94.571 70.3611 94.597L70.188 94.633C70.131 94.645 70.0741 94.651 70.0181 94.66L69.6899 94.709C69.5829 94.722 69.4782 94.727 69.3782 94.736L69.085 94.758C68.991 94.765 68.9 94.769 68.814 94.781C68.469 94.82 68.1941 94.881 68.0051 94.916C67.8161 94.951 67.7131 94.984 67.7131 94.984C67.7131 94.984 67.8131 94.964 68.0081 94.931C68.2031 94.898 68.4751 94.857 68.8181 94.831C68.9041 94.822 68.9941 94.821 69.0881 94.817L69.3821 94.804C69.4841 94.8 69.59 94.796 69.698 94.786L70.031 94.744C70.088 94.736 70.1461 94.731 70.2031 94.72L70.3792 94.686C70.4962 94.662 70.617 94.643 70.739 94.613L71.1082 94.52L71.2021 94.496L71.2961 94.467L71.4841 94.41L71.6731 94.351C71.7351 94.332 71.796 94.309 71.856 94.287C71.978 94.244 72.0981 94.203 72.2141 94.159C72.4461 94.067 72.6702 93.979 72.8792 93.885C73.0882 93.791 73.285 93.699 73.469 93.613C73.653 93.527 73.821 93.437 73.969 93.354C74.275 93.193 74.5162 93.054 74.6812 92.954C74.8462 92.854 74.936 92.795 74.936 92.795L74.677 92.934Z" fill="#C68260"/>
<path d="M73.5811 85.722C73.4221 85.436 73.2571 85.141 73.1111 84.827C72.9651 84.513 72.8439 84.291 72.7319 84.081C72.4778 83.6406 72.2795 83.1703 72.1411 82.681C72.1131 82.581 71.904 81.559 71.814 81.122C71.4863 79.1972 70.9654 77.3103 70.259 75.49C69.6648 74.7071 68.7996 74.1743 67.833 73.996V73.97L67.77 73.982L67.71 73.97V73.995C66.7222 74.166 65.8338 74.699 65.218 75.49C64.5122 77.3105 63.9913 79.1973 63.6631 81.122C63.5741 81.559 63.3632 82.584 63.3372 82.681C63.1982 83.1701 62.9997 83.6403 62.7461 84.081C62.6331 84.291 62.5059 84.528 62.3669 84.827C62.2279 85.126 62.056 85.436 61.897 85.722C61.35 86.704 60.878 87.553 61.313 88.716C61.7965 89.6934 62.5631 90.5025 63.5129 91.038C64.0036 91.3804 64.4751 91.7496 64.925 92.144C65.8042 92.5591 66.7269 92.8751 67.676 93.086C67.6972 93.0936 67.7195 93.0973 67.7419 93.097C67.7641 93.0974 67.7863 93.0936 67.8071 93.086C68.7563 92.8752 69.6789 92.5592 70.5581 92.144C71.0084 91.75 71.4796 91.3808 71.97 91.038C72.9197 90.5024 73.6865 89.6933 74.1702 88.716C74.5992 87.553 74.1271 86.704 73.5811 85.722Z" fill="url(#paint0_linear_236_1029)"/>
<path d="M70.9371 78.033C70.9371 78.033 70.6242 74.178 73.5702 73.076C76.5162 71.974 86.3651 70.568 86.7701 70.276C86.5381 70.443 86.2702 71.22 86.1102 71.464C84.8303 73.445 83.0396 75.0442 80.9271 76.093C79.0375 76.7512 77.0598 77.122 75.0601 77.193C74.6051 77.248 70.9201 77.481 70.9371 78.033Z" fill="#EDBC94"/>
<path d="M50.4919 72.157C50.4919 72.157 53.5029 77.672 58.9919 73.834C58.9919 73.834 54.1559 70.842 50.4919 72.157Z" fill="#ECB388"/>
<path d="M58.9919 73.834L58.6589 74.08C58.6049 74.118 58.546 74.164 58.478 74.209L58.2542 74.3501C58.1732 74.3991 58.0881 74.4501 57.9951 74.5091L57.6951 74.6681C57.1905 74.9272 56.6517 75.1137 56.095 75.222C55.4049 75.35 54.6962 75.3378 54.011 75.1861C53.6583 75.1031 53.3143 74.9872 52.9832 74.8401C52.6775 74.7013 52.3834 74.5381 52.104 74.3521C51.6347 74.0384 51.203 73.672 50.8171 73.2601C50.5584 72.9846 50.3194 72.6912 50.1021 72.382C49.9501 72.162 49.8782 72.0341 49.8782 72.0341C49.8782 72.0341 49.9662 72.1521 50.1392 72.3531C50.3844 72.6347 50.6458 72.9018 50.9221 73.153C51.3281 73.5236 51.7691 73.8539 52.239 74.1391C52.5145 74.3051 52.8014 74.4517 53.0972 74.5781C53.4149 74.7095 53.7426 74.8155 54.0771 74.8951C54.7262 75.0387 55.3956 75.0652 56.054 74.9731C56.596 74.8923 57.126 74.7438 57.6311 74.5311L57.9399 74.4001C58.0399 74.3551 58.125 74.3081 58.209 74.2661L58.4441 74.149C58.5151 74.111 58.577 74.0721 58.635 74.0401L58.9919 73.834Z" fill="#423030"/>
<path d="M63.2701 74.9361C63.2701 74.9361 65.0301 75.1491 64.3871 74.1851C64.0516 73.8089 63.6099 73.5435 63.1202 73.4241C63.1202 73.4241 52.4201 68.5821 51.1031 68.1671C49.7861 67.7521 46.6432 68.307 45.9862 66.899C45.9862 66.899 45.5433 71.5931 54.5663 72.6261C54.5663 72.6261 62.7661 74.8891 63.2701 74.9361Z" fill="#423030"/>
<path d="M54.5662 71.0271C54.5662 71.0271 60.5069 72.6661 62.5859 73.1831C60.4079 72.2001 52.244 68.5261 51.103 68.1671C50.077 67.8441 47.9521 68.1071 46.7471 67.5801C47.6991 68.9321 49.8262 70.4841 54.5662 71.0271Z" fill="#493434"/>
<path d="M84.9951 72.157C84.9951 72.157 81.9841 77.672 76.4951 73.834C76.4951 73.834 81.3331 70.842 84.9951 72.157Z" fill="#ECB388"/>
<path d="M76.4951 73.8341L76.8511 74.0391C76.9091 74.0721 76.971 74.1111 77.042 74.1481L77.2751 74.2651L77.543 74.3981L77.8511 74.5281C78.3538 74.7389 78.8815 74.8848 79.4211 74.9621C80.076 75.0504 80.7415 75.0165 81.384 74.8621C81.715 74.7772 82.0385 74.6651 82.3511 74.5271C82.6424 74.3943 82.9241 74.2412 83.1941 74.0691C83.6544 73.7738 84.0844 73.4338 84.478 73.0541C84.7464 72.7967 84.9995 72.5239 85.2361 72.2371C85.4031 72.0371 85.4871 71.9131 85.4871 71.9131C85.4871 71.9131 85.4189 72.0431 85.2729 72.2651C85.0658 72.5788 84.8358 72.877 84.585 73.1571C84.2125 73.5777 83.7928 73.9539 83.334 74.2781C83.0601 74.4699 82.7715 74.6398 82.4709 74.7861C82.1449 74.9395 81.8051 75.0617 81.4561 75.1511C80.7764 75.3147 80.0703 75.3358 79.3821 75.2131C78.8275 75.108 78.2909 74.9235 77.7891 74.6651L77.489 74.5081C77.397 74.4531 77.312 74.3981 77.231 74.3491L77.0081 74.2091C76.9411 74.1641 76.8821 74.1191 76.8281 74.0811L76.4951 73.8341Z" fill="#423030"/>
<path d="M72.217 74.9361C72.217 74.9361 70.457 75.1491 71.1 74.1851C71.4359 73.8088 71.8781 73.5434 72.3681 73.4241C72.3681 73.4241 83.068 68.5821 84.385 68.1671C85.702 67.7521 88.8439 68.307 89.5009 66.899C89.5009 66.899 89.9451 71.5931 80.9211 72.6261C80.9211 72.6261 72.721 74.8891 72.217 74.9361Z" fill="#423030"/>
<path d="M80.969 71.0271C80.969 71.0271 75.027 72.6661 72.949 73.1831C75.127 72.2001 83.2901 68.5261 84.4321 68.1671C85.4581 67.8441 87.5831 68.1071 88.7871 67.5801C87.8351 68.9321 85.708 70.4841 80.969 71.0271Z" fill="#493434"/>
<path d="M65.48 97.93C66.9629 98.3001 68.5141 98.3001 69.9971 97.93C68.5435 97.3701 66.9336 97.3701 65.48 97.93Z" fill="#ECB388"/>
<path d="M73.3859 85.257C73.3859 85.257 72.5168 84.815 71.6588 87.114C71.6588 87.114 70.149 78.286 71.195 76.381C71.195 76.381 73.8869 76.661 72.5829 76.898C70.3069 77.312 73.1959 84.317 73.3859 85.257Z" fill="url(#paint1_linear_236_1029)"/>
<path d="M62.1111 85.257C62.1111 85.257 62.9791 84.815 63.8381 87.114C63.8381 87.114 65.348 78.286 64.302 76.381C64.302 76.381 61.6091 76.661 62.9131 76.898C65.1901 77.312 62.3011 84.317 62.1111 85.257Z" fill="url(#paint2_linear_236_1029)"/>
<path d="M67.4991 59.896C83.1022 59.896 95.7511 48.3405 95.7511 34.086C95.7511 19.8315 83.1022 8.276 67.4991 8.276C51.8959 8.276 39.2471 19.8315 39.2471 34.086C39.2471 48.3405 51.8959 59.896 67.4991 59.896Z" fill="url(#paint3_radial_236_1029)"/>
<path d="M94.3302 48.804C94.3032 47.7457 94.0647 46.7036 93.629 45.7388C93.1933 44.774 92.5691 43.9061 91.7931 43.186C91.2151 42.652 90.5843 42.176 90.0243 41.621C89.5903 41.907 89.1243 42.156 88.6713 42.403C84.1623 44.844 78.5431 47.103 73.3971 45.51C74.2621 45.51 74.8801 45.318 74.7711 44.333C70.9511 46.624 65.6033 48.269 61.3163 46.312C61.0443 46.188 60.8561 46 60.5621 45.996C60.0368 45.9906 59.5124 45.9515 58.9921 45.879C58.0216 45.7484 57.074 45.4839 56.1761 45.093C54.3536 44.3025 52.8765 42.8827 52.0143 41.093C52.3699 41.1332 52.7283 41.1396 53.0851 41.112C52.4149 40.9934 51.7598 40.8019 51.1312 40.541C49.8224 40.0634 48.6694 39.2365 47.7972 38.15C47.6331 38.4837 47.4367 38.8005 47.211 39.096C46.516 39.991 45.4503 40.373 44.6603 41.151C43.7458 42.359 42.8434 43.5761 41.9532 44.802C41.1382 46.1748 40.7227 47.7478 40.7533 49.344C40.7724 49.6645 40.809 49.9836 40.8631 50.3C41.0645 49.2692 41.4321 48.278 41.9513 47.365C42.3435 46.743 42.7777 46.1487 43.2511 45.586C43.6711 44.9285 44.1392 44.3027 44.6512 43.714C45.4412 42.936 46.5073 42.554 47.2023 41.659C47.4279 41.3635 47.6241 41.0467 47.7882 40.713C48.6603 41.7995 49.8133 42.6265 51.1222 43.104C51.7508 43.3649 52.4061 43.5564 53.0763 43.675C53.0808 43.6728 53.0846 43.6693 53.0873 43.665L53.0763 43.675C52.7195 43.7031 52.3608 43.6967 52.0052 43.656C52.8672 45.4459 54.3444 46.8658 56.1671 47.656C57.0649 48.0469 58.0128 48.3114 58.9833 48.442C59.5036 48.5145 60.0278 48.5536 60.5531 48.559C60.8471 48.559 61.0352 48.751 61.3072 48.875C65.5942 50.832 70.9421 49.188 74.7621 46.896C74.8711 47.881 74.2531 48.073 73.3881 48.073C78.534 49.673 84.1532 47.407 88.6622 44.966C89.1182 44.719 89.5812 44.466 90.0152 44.184C90.5752 44.739 91.206 45.215 91.784 45.75C93.2573 47.1083 94.1547 48.9789 94.2921 50.978C94.3478 50.2548 94.3606 49.5288 94.3302 48.804Z" fill="#EDBC94"/>
<path d="M79.1191 96.597C77.7421 98.105 72.619 101.87 67.719 101.276C62.819 101.87 57.5621 97.716 56.3191 96.597C55.6781 96.02 54.3029 94.253 53.6899 93.585C50.7092 90.0686 48.0139 86.32 45.6292 82.375C45.2045 84.2037 44.3511 85.9052 43.1392 87.339C46.7392 94.846 54.6499 101.891 67.7319 101.891C80.7179 101.891 87.2461 94.846 92.3071 87.517L92.2791 87.503C90.8011 86.72 90.0371 84.615 89.6411 82.634C87.2978 86.485 84.6562 90.1466 81.741 93.585C81.134 94.258 79.7011 95.966 79.1191 96.597Z" fill="#ECB388"/>
<path d="M42.3261 102.297C42.2014 102.594 42.0734 102.889 41.942 103.183L42.1959 102.82C42.2449 102.646 42.2881 102.472 42.3261 102.297ZM63.5561 -0.00299072C61.0121 0.00931683 58.4802 0.348748 56.0229 1.00699C49.273 2.88109 43.1275 6.48004 38.1906 11.4498C33.2536 16.4196 29.6952 22.5889 27.8659 29.351C25.0339 40.335 27.049 52.014 30.474 62.827C33.899 73.64 38.7091 84 41.6491 94.954C42.4474 97.3147 42.6799 99.8299 42.328 102.297C45.6127 94.4774 46.8493 85.9495 45.921 77.519C44.977 69.061 41.9459 60.057 45.6789 52.409C46.4563 50.5486 47.9115 49.053 49.7499 48.225C50.7242 47.9145 51.7415 47.7592 52.7641 47.765C57.5641 47.58 62.4 47.714 67.111 46.765C71.979 45.786 73.9109 44.296 76.4979 40.546L76.713 44.446C76.688 45.346 77.4129 45.473 78.3129 45.473C78.4879 45.473 78.669 45.473 78.852 45.463C79.035 45.453 79.221 45.454 79.404 45.454C79.587 45.454 79.775 45.459 79.953 45.474C86.381 46.016 88.8061 52.341 88.8061 52.341C90.3971 57.241 92.006 62.241 91.942 67.392C91.874 72.867 89.9229 78.117 88.7519 83.465C87.5809 88.813 90.1 95.519 93.029 100.144C94.304 88.819 100.439 75.332 103.535 63.287C106.631 51.242 107.798 38.35 104.194 26.446C103.154 22.8268 101.533 19.4008 99.3939 16.302C96.8481 12.8042 93.5177 9.95219 89.6698 7.97495C85.822 5.9977 81.5639 4.95035 77.2379 4.91699C76.9589 4.91699 76.679 4.922 76.4 4.931L76.5661 4.715C73.1661 1.345 68.4161 -0.00299072 63.5561 -0.00299072Z" fill="#5B4F4F"/>
<path d="M106.235 47.297C106.235 47.297 100.496 65.297 106.417 92.047C106.417 92.047 98.2462 91.765 93.4962 87.614C88.7462 83.463 106.235 47.297 106.235 47.297Z" fill="#5B4F4F"/>
<path d="M28.3611 47.297C28.3611 47.297 34.099 65.297 28.178 92.047C28.178 92.047 36.3491 91.765 41.0991 87.614C45.8491 83.463 28.3611 47.297 28.3611 47.297Z" fill="#5B4F4F"/>
<path d="M78.856 7.57001C78.856 7.57001 82.439 22.635 78.856 38.135" stroke="#FEE0C2" stroke-width="2" stroke-miterlimit="10"/>
<path d="M78.7261 23.968C75.4725 21.7678 71.5498 20.7797 67.6421 21.176C60.2811 21.61 54.7371 24.998 49.1421 29.801C39.4421 38.127 39.7311 50.585 39.0691 54.501C37.7141 62.515 39.3692 70.727 41.5772 78.548C43.2482 84.456 45.241 90.792 43.187 96.578" stroke="#3C2415" stroke-miterlimit="10"/>
<path d="M33.8921 70.968C34.8921 82.968 31.5801 93.885 30.8921 97.968C30.2074 102.156 29.7962 106.384 29.6611 110.626" stroke="#3C2415" stroke-miterlimit="10"/>
<path d="M26.3091 82.968C23.4761 95.635 24.8091 96.635 25.1421 101.635C25.4261 105.897 23.6261 114.135 23.4761 118.301" stroke="#3C2415" stroke-width="0.7" stroke-miterlimit="10"/>
<path d="M24.791 64.14C24.6371 66.4054 24.3366 68.6585 23.8911 70.885C22.8911 75.038 22.3751 83.385 22.2251 87.551" stroke="#3C2415" stroke-miterlimit="10"/>
<path d="M109.456 47.316C111.138 51.801 109.128 56.174 110.138 62.551C111.268 69.68 113.569 75.96 113.222 78.135" stroke="#3C2415" stroke-miterlimit="10"/>
<path d="M113.732 84.397C113.741 90.259 112.832 93.214 116.142 97.797C119.452 102.38 116.823 106.524 119.392 111.047" stroke="#3C2415" stroke-miterlimit="10"/>
<path d="M107.556 71.797C107.139 79.547 110.389 86.797 111.556 97.297" stroke="#3C2415" stroke-miterlimit="10"/>
<path d="M78.2671 11.297C66.8921 6.17199 53.6421 11.422 47.3921 16.922C42.5481 21.185 35.7671 32.297 35.3921 38.547C34.9051 46.66 38.5322 57.559 40.7442 65.379C42.4152 71.287 44.408 77.623 42.354 83.409" stroke="#3C2415" stroke-miterlimit="10"/>
<path d="M74.6731 7.46598C71.2551 5.12898 66.8732 4.69796 62.7432 4.94196C55.3822 5.37596 47.8431 7.94799 42.9431 13.454C39.8021 16.982 23.395 36.554 35.304 61.275C37.968 66.806 38.9671 73.518 36.9141 79.304" stroke="#3C2415" stroke-miterlimit="10"/>
<path d="M78.2261 30.468C73.3151 27.112 71.0581 28.016 66.2261 28.301C58.8641 28.735 53.2881 31.701 48.3841 37.207C45.2421 40.735 43.3841 45.198 41.6841 49.607C40.1567 53.2736 39.0001 57.0839 38.232 60.981C36.877 68.994 38.532 77.207 40.74 85.028C42.411 90.936 44.4041 97.272 42.3501 103.058" stroke="#3C2415" stroke-miterlimit="10"/>
<path d="M78.1121 15.874C69.7671 13.801 63.4261 15.6021 56.8611 18.574C53.0447 20.3938 49.6372 22.9691 46.845 26.144C42.3103 31.1884 38.9872 37.2015 37.1287 43.725C35.2702 50.2485 34.9256 57.1102 36.1211 63.787C36.9211 68.06 38.3541 72.194 39.1971 76.459C40.5401 83.253 40.365 90.253 39.897 97.159" stroke="#3C2415" stroke-miterlimit="10"/>
<path d="M82.0562 28.297C84.2232 27.297 93.0831 31.355 94.7231 38.631C96.7231 47.506 94.6392 64.672 92.5142 72.672C91.7142 75.701 89.178 85.677 89.73 88.762C90.282 91.847 92.0891 94.862 94.9631 96.116" stroke="#3C2415" stroke-miterlimit="10"/>
<path d="M80.7261 37.297C83.5731 36.254 90.7531 39.521 92.3921 46.797C93.1937 50.8325 93.584 54.9388 93.5571 59.053" stroke="#3C2415" stroke-miterlimit="10"/>
<path d="M81.6282 33.097C83.7282 32.471 90.5031 35.278 92.1421 42.554C92.9437 46.5894 93.334 50.6958 93.3071 54.81" stroke="#3C2415" stroke-miterlimit="10"/>
<path d="M79.3921 40.468C83.0591 40.301 91.0031 44.525 92.6421 51.801C93.4437 55.8365 93.834 59.9428 93.8071 64.057" stroke="#3C2415" stroke-miterlimit="10"/>
<path d="M82.8782 24.653C83.7665 23.7143 84.9609 23.1237 86.2461 22.9877C87.5313 22.8516 88.8227 23.1791 89.8879 23.911C98.3879 29.926 98.9511 45.164 97.6421 52.426C96.3331 59.688 91.5901 78.966 92.1421 82.051C92.6941 85.136 94.5191 92.551 97.3921 93.801" stroke="#3C2415" stroke-miterlimit="10"/>
<path d="M82.2261 17.635C83.8621 15.669 93.892 15.635 96.147 22.711C98.3206 29.7759 98.7371 37.2646 97.3601 44.527C96.0501 51.789 93.6781 58.817 92.1111 66.027C91.2948 69.062 91.0794 72.2273 91.4771 75.345C92.0291 78.43 93.836 81.445 96.709 82.699" stroke="#3C2415" stroke-miterlimit="10"/>
<path d="M82.7261 14.968C98.0591 8.13498 101.56 32.091 101.392 39.468C101.226 46.801 100.059 60.468 99.0591 68.135C98.6541 71.242 97.5591 82.301 102.059 86.801" stroke="#3C2415" stroke-miterlimit="10"/>
<path d="M81.3921 12.797C84.1531 11.236 90.1582 11.205 93.0972 12.397C96.3365 13.8841 98.8883 16.5485 100.234 19.849C101.551 23.1247 102.391 26.5725 102.728 30.087C103.72 37.387 104.328 44.877 102.741 52.072C101.641 57.072 99.5121 61.778 97.6831 66.562C95.8541 71.346 94.2981 76.353 94.4231 81.473C94.5481 86.593 96.5971 91.889 100.767 94.861" stroke="#3C2415" stroke-miterlimit="10"/>
<path d="M77.635 6.61305C75.922 5.64805 74.8681 3.81904 73.2671 2.67604C70.8391 0.942039 67.5972 1.04603 64.6182 1.22203" stroke="#3C2415" stroke-miterlimit="10"/>
<path d="M81.0562 8.29697C82.9222 7.52197 88.3761 8.45998 90.2651 9.17698C92.1238 9.97524 93.8745 11.0043 95.4761 12.24" stroke="#3C2415" stroke-miterlimit="10"/>
<path d="M77.3921 35.635C70.3921 29.385 51.3921 37.051 48.8921 45.551C47.0401 51.851 42.892 57.7 43.666 64.219C44.44 70.738 46.026 77.151 46.53 83.696C47.034 90.241 46.3552 97.127 42.9302 102.725" stroke="#3C2415" stroke-miterlimit="10"/>
<path d="M76.0562 42.635C70.5562 42.635 65.8892 43.051 59.8892 46.301C54.1172 49.428 48.6112 51.828 45.8892 57.801" stroke="#3C2415" stroke-miterlimit="10"/>
<path d="M76.2261 38.297C70.0591 36.797 64.8921 37.547 58.8921 40.797C53.1201 43.924 48.6141 47.574 45.8921 53.547" stroke="#3C2415" stroke-miterlimit="10"/>
<path d="M71.792 74.881C75.9644 72.669 80.3498 70.8842 84.8811 69.554C84.8811 69.554 84.798 69.554 86.481 69.293C86.481 69.293 88.5731 69.139 90.5811 69.063C90.8991 68.8308 91.191 68.5645 91.4512 68.269L90.6912 66.649L81.8359 66.913L71.1802 71.933L69.9561 74.797C69.9561 74.797 70.432 75.583 71.792 74.881Z" fill="url(#paint4_radial_236_1029)"/>
<path d="M63.5562 74.881C59.3837 72.669 54.9983 70.8842 50.467 69.554C50.467 69.554 50.5499 69.554 48.8669 69.293C48.8669 69.293 46.7741 69.139 44.7671 69.063C44.7671 69.063 46.2531 68.941 45.6401 68.301L44.657 66.649L53.511 66.913L64.167 71.933L65.3821 74.797C65.3821 74.797 64.9122 75.583 63.5562 74.881Z" fill="url(#paint5_radial_236_1029)"/>
</g>
<defs>
<linearGradient id="paint0_linear_236_1029" x1="67.7397" y1="93.097" x2="67.7397" y2="73.97" gradientUnits="userSpaceOnUse">
<stop offset="0.128" stop-color="#F5CFA3"/>
<stop offset="0.406" stop-color="#F3CA9E"/>
<stop offset="1" stop-color="#F2C498"/>
</linearGradient>
<linearGradient id="paint1_linear_236_1029" x1="72.1059" y1="76.381" x2="72.1059" y2="87.114" gradientUnits="userSpaceOnUse">
<stop stop-color="#EDBC94"/>
<stop offset="0.628" stop-color="#EDBD95"/>
<stop offset="0.854" stop-color="#F0C49A"/>
<stop offset="1" stop-color="#F5CFA3"/>
</linearGradient>
<linearGradient id="paint2_linear_236_1029" x1="63.3911" y1="76.381" x2="63.3911" y2="87.114" gradientUnits="userSpaceOnUse">
<stop stop-color="#EDBC94"/>
<stop offset="0.628" stop-color="#EDBD95"/>
<stop offset="0.854" stop-color="#F0C49A"/>
<stop offset="1" stop-color="#F5CFA3"/>
</linearGradient>
<radialGradient id="paint3_radial_236_1029" cx="0" cy="0" r="1" gradientUnits="userSpaceOnUse" gradientTransform="translate(65.1124 34.086) scale(27.0618 27.0489)">
<stop stop-color="#F4CAA6"/>
<stop offset="0.668" stop-color="#F3C9A4"/>
<stop offset="0.908" stop-color="#F2C69D"/>
<stop offset="1" stop-color="#F2C498"/>
</radialGradient>
<radialGradient id="paint4_radial_236_1029" cx="0" cy="0" r="1" gradientUnits="userSpaceOnUse" gradientTransform="translate(-1445.65 70.9108) scale(8.18369 8.17417)">
<stop stop-color="#F4CAA6"/>
<stop offset="0.668" stop-color="#F3C9A4"/>
<stop offset="0.908" stop-color="#F2C69D"/>
<stop offset="1" stop-color="#F2C498"/>
</radialGradient>
<radialGradient id="paint5_radial_236_1029" cx="0" cy="0" r="1" gradientUnits="userSpaceOnUse" gradientTransform="translate(-1420.76 70.9108) scale(7.92175 7.92698)">
<stop stop-color="#F4CAA6"/>
<stop offset="0.668" stop-color="#F3C9A4"/>
<stop offset="0.908" stop-color="#F2C69D"/>
<stop offset="1" stop-color="#F2C498"/>
</radialGradient>
<clipPath id="clip0_236_1029">
<rect width="135.477" height="126.751" fill="white"/>
</clipPath>
</defs>
</svg>
