<svg width="136" height="127" viewBox="0 0 136 127" fill="none" xmlns="http://www.w3.org/2000/svg">
<g clip-path="url(#clip0_236_801)">
<path opacity="0.2" d="M44.727 13.536C44.727 13.536 46.977 13.898 48.727 14.079C50.477 14.26 44.477 18.604 43.727 20.595C42.977 22.586 49.977 24.759 52.727 24.759C55.477 24.759 47.727 26.388 47.727 26.388C47.727 26.388 55.481 32.132 61.477 32.313C71.227 32.613 75.727 28.379 76.727 27.836C77.727 27.293 77.227 32.436 75.977 32.977C74.727 33.518 82.73 30.639 84.727 28.922C87.727 26.345 90.727 21.702 90.227 17.522C90.074 16.243 86.977 9.10499 73.727 7.74699C68.3002 7.39216 62.8508 7.63495 57.477 8.47099C53.977 9.19099 48.227 10.997 44.727 13.536V13.536Z" fill="#FEE0C2"/>
<path d="M99.779 89.734C97.1993 88.9865 94.6918 88.0089 92.2869 86.8129C89.1999 85.1779 89.2239 77.7779 89.2239 77.7779C88.1149 75.1499 46.451 77.712 46.451 77.712C46.451 77.712 45.517 85.825 42.072 87.419C40.0974 88.2847 38.0681 89.0196 35.997 89.6189C32.53 90.6759 50.231 106.502 67.921 106.537C85.611 106.572 103.291 90.821 99.779 89.734Z" fill="#EDBC94"/>
<path d="M132.497 106.349C130.812 100.743 126.61 98.542 120.957 96.093C115.304 93.644 106.8 91.907 99.7791 89.734C96.9491 88.857 79.051 103.953 67.314 104.109C55.577 104.265 38.307 88.919 35.996 89.624C29.063 91.738 20.144 93.656 14.521 96.093C8.868 98.542 5.12104 100.743 3.44104 106.349C2.87204 108.243 0.211 125.929 0 125.928L67.483 126.055H67.995L135.478 125.928C135.268 125.929 133.066 108.243 132.497 106.349Z" fill="#68AA9E"/>
<path d="M98.9241 48.3249C98.0101 47.6569 96.0421 47.9509 95.0081 48.3959C95.0081 48.6649 94.998 48.9329 94.991 49.2019C94.9763 49.7186 94.9567 50.2356 94.932 50.7529C94.878 51.9263 94.7963 53.0969 94.687 54.2649C94.633 54.8482 94.5723 55.4306 94.505 56.0119C94.48 56.2269 94.454 56.4429 94.427 56.6579C94.141 58.5779 93.883 60.0759 93.801 60.7239C93.3817 63.0159 92.8477 65.2854 92.201 67.5239C93.0006 67.3194 93.7277 66.8972 94.3016 66.3042C94.8756 65.7112 95.2738 64.9707 95.452 64.1649C96.0082 60.8451 96.9569 57.603 98.2781 54.5069C100.056 49.5049 98.9241 48.3249 98.9241 48.3249V48.3249Z" fill="#F2C498"/>
<path d="M97.12 55.8259C97.12 55.8259 98.79 51.0259 98.296 50.4759C97.496 49.5859 95.4211 51.9759 94.7061 54.1189C94.6507 54.7029 94.5897 55.2856 94.5231 55.8669C95.9781 52.3969 97.778 53.0219 97.12 55.8259V55.8259Z" fill="#ECB388"/>
<path d="M93.541 63.2269C93.541 63.2269 94.866 62.643 95.052 61.833C95.238 61.023 94.652 60.364 95.27 60.108C95.888 59.852 96.525 58.765 96.731 58.458C96.937 58.151 97.875 54.392 97.176 53.318C96.477 52.244 94.515 55.5329 94.515 55.5329L93.541 63.2269Z" fill="#F7D5A9"/>
<path d="M94.353 57.2389C94.535 57.1809 95.953 55.32 96.316 55.556C96.851 55.899 96.483 58.085 95.691 59.203C95.1423 59.8034 94.5049 60.3163 93.801 60.724L94.353 57.2389Z" fill="#E7A277"/>
<path d="M36.499 48.3249C37.414 47.6569 39.382 47.9509 40.416 48.3959C40.416 48.6649 40.426 48.9329 40.434 49.2019C40.448 49.7186 40.467 50.2356 40.491 50.7529C40.547 51.9263 40.6291 53.0969 40.7371 54.2649C40.7911 54.8482 40.8517 55.4306 40.9191 56.0119C40.9441 56.2269 40.9701 56.4429 40.9971 56.6579C41.2831 58.5779 41.5411 60.0759 41.6231 60.7239C42.0418 63.016 42.5758 65.2856 43.223 67.5239C42.4235 67.3195 41.6963 66.8974 41.1223 66.3043C40.5484 65.7113 40.1502 64.9708 39.9721 64.1649C39.4159 60.845 38.4672 57.603 37.146 54.5069C35.367 49.5049 36.499 48.3249 36.499 48.3249Z" fill="#F2C498"/>
<path d="M38.303 55.8259C38.303 55.8259 36.6341 51.0259 37.1271 50.4759C37.9271 49.5859 40.003 51.9759 40.718 54.1189C40.7734 54.7029 40.834 55.2856 40.9 55.8669C39.446 52.3969 37.646 53.0219 38.303 55.8259V55.8259Z" fill="#ECB388"/>
<path d="M41.8831 63.2269C41.8831 63.2269 40.5581 62.643 40.3721 61.833C40.1861 61.023 40.7721 60.364 40.1531 60.108C39.5341 59.852 38.8991 58.765 38.6931 58.458C38.4871 58.151 37.5491 54.392 38.2471 53.318C38.9451 52.244 40.9091 55.5329 40.9091 55.5329L41.8831 63.2269Z" fill="#F7D5A9"/>
<path d="M41.0711 57.2389C40.8891 57.1809 39.4711 55.32 39.1071 55.556C38.5731 55.899 38.9411 58.085 39.7331 59.203C40.2818 59.8034 40.9192 60.3163 41.6231 60.724L41.0711 57.2389Z" fill="#E7A277"/>
<path d="M97.302 29.729C96.767 5.34496 68.477 5.40696 67.723 5.41296C66.969 5.41896 38.6791 5.34496 38.1441 29.729C37.7711 46.722 38.056 46.147 38.637 48.951C39.218 51.755 40.553 58.042 40.827 61.219C41.101 64.396 41.09 74.176 45.198 80.967C47.6954 85.172 50.5386 89.1617 53.698 92.895C54.312 93.563 55.686 95.3299 56.327 95.9069C57.567 97.0259 62.8271 101.18 67.7271 100.586C72.6271 101.18 77.7461 97.4149 79.1271 95.9069C79.7081 95.2709 81.142 93.563 81.755 92.895C84.915 89.1621 87.7581 85.1723 90.255 80.967C94.362 74.176 94.355 64.395 94.625 61.219C94.895 58.043 96.2351 51.755 96.8161 48.951C97.3971 46.147 97.675 46.722 97.302 29.729V29.729Z" fill="#F2C498"/>
<path d="M64.53 77.3379C64.53 77.3379 64.8421 73.482 61.8981 72.381C58.9541 71.28 49.108 69.8729 48.698 69.5809C48.93 69.7479 49.198 70.5249 49.359 70.7689C50.6337 72.7711 52.4227 74.3943 54.5391 75.4689C56.3661 76.2789 58.4051 76.269 60.4031 76.506C60.8631 76.553 64.547 76.7859 64.53 77.3379V77.3379Z" fill="#EDBC94"/>
<path d="M66.274 95.006C67.2149 95.2726 68.2112 95.2726 69.152 95.006C71.83 94.948 74.9401 92.093 74.9401 92.093C73.1816 93.1767 71.2048 93.8573 69.152 94.086C68.211 94.3514 67.215 94.3514 66.274 94.086C63.597 94.028 60.158 91.962 60.158 91.962C60.3073 92.102 60.453 92.2373 60.595 92.368C60.5385 92.267 60.4681 92.1744 60.386 92.093C60.386 92.093 63.597 94.948 66.274 95.006V95.006Z" fill="#DB956E"/>
<path d="M66.355 96.323C66.9539 96.2753 67.5555 96.2709 68.155 96.31C70.678 96.672 72.829 94.494 73.999 93.241C74.3397 92.8807 74.6548 92.4971 74.942 92.093C74.942 92.093 71.8321 94.948 69.1541 95.006C68.2132 95.2726 67.2168 95.2726 66.276 95.006C63.599 94.948 60.3881 92.093 60.3881 92.093C60.4702 92.1744 60.5405 92.267 60.597 92.368C60.881 92.628 61.1513 92.8703 61.408 93.095C64.34 95.657 65.613 96.397 66.355 96.323V96.323Z" fill="#E7A277"/>
<path d="M66.561 94.077C66.1396 94.055 65.7196 94.0103 65.303 93.943C64.7952 93.8468 64.2941 93.7179 63.803 93.557C62.9109 93.2615 62.0397 92.9067 61.1951 92.495C60.8691 92.34 60.61 92.205 60.431 92.111C60.252 92.017 60.155 91.962 60.155 91.962C60.155 91.962 60.249 92.023 60.423 92.125C60.597 92.227 60.851 92.373 61.172 92.541C62.0059 92.9839 62.8756 93.3559 63.772 93.653C64.2668 93.8161 64.7732 93.9414 65.287 94.028C65.7073 94.0867 66.1308 94.1201 66.5551 94.128C66.9141 94.154 67.203 94.198 67.402 94.228C67.601 94.258 67.7111 94.283 67.7111 94.283C67.7111 94.283 67.603 94.255 67.406 94.212C67.1269 94.152 66.8449 94.1069 66.561 94.077Z" fill="#C68260"/>
<path d="M74.678 92.239C74.508 92.33 74.2611 92.461 73.9501 92.611C73.7961 92.688 73.6231 92.766 73.4401 92.852C73.2571 92.938 73.0571 93.024 72.8461 93.108C72.6351 93.192 72.413 93.281 72.181 93.37C72.065 93.413 71.945 93.452 71.824 93.495C71.764 93.515 71.704 93.538 71.642 93.557L71.455 93.615L71.2681 93.672L71.175 93.701L71.082 93.725L70.717 93.825C70.597 93.855 70.478 93.876 70.361 93.902L70.189 93.938C70.132 93.95 70.0751 93.956 70.0181 93.965L69.6901 94.014C69.5831 94.027 69.4791 94.032 69.3781 94.041L69.0861 94.063C68.9861 94.07 68.9 94.074 68.814 94.086C68.469 94.125 68.195 94.186 68.006 94.221C67.817 94.256 67.713 94.289 67.713 94.289C67.713 94.289 67.8131 94.269 68.0131 94.236C68.2131 94.203 68.481 94.163 68.824 94.136C68.91 94.128 69 94.127 69.093 94.123L69.387 94.11C69.488 94.106 69.595 94.102 69.703 94.092L70.036 94.05C70.093 94.042 70.151 94.037 70.209 94.026L70.384 93.992C70.502 93.968 70.623 93.949 70.745 93.919L71.114 93.826L71.208 93.802L71.301 93.773L71.49 93.716L71.678 93.657C71.74 93.638 71.8011 93.615 71.8621 93.594C71.9831 93.55 72.104 93.509 72.22 93.465C72.452 93.373 72.676 93.285 72.885 93.191C73.094 93.097 73.29 93.005 73.475 92.919C73.66 92.833 73.827 92.743 73.975 92.66C74.281 92.499 74.522 92.36 74.688 92.26C74.854 92.16 74.942 92.1 74.942 92.1C74.942 92.1 74.848 92.147 74.678 92.239V92.239Z" fill="#C68260"/>
<path d="M73.5811 85.027C73.4221 84.741 73.258 84.446 73.111 84.127C72.972 83.827 72.8451 83.59 72.7321 83.381C72.4787 82.9403 72.2804 82.4701 72.142 81.981C72.114 81.881 71.9041 80.859 71.8151 80.422C71.4868 78.4973 70.9658 76.6104 70.26 74.79C69.6654 74.007 68.7999 73.4742 67.833 73.296V73.27L67.771 73.282L67.7111 73.27V73.295C66.7232 73.4657 65.8346 73.9988 65.219 74.79C64.5129 76.6104 63.9916 78.4972 63.663 80.422C63.575 80.859 63.363 81.884 63.337 81.981C63.1987 82.4703 63.0001 82.9406 62.746 83.381C62.634 83.59 62.5061 83.828 62.3671 84.127C62.2201 84.441 62.056 84.736 61.897 85.027C61.351 86.009 60.879 86.857 61.313 88.021C61.7967 88.9982 62.5633 89.8073 63.5131 90.343C64.0034 90.6858 64.4747 91.055 64.9251 91.449C65.8039 91.8641 66.7263 92.18 67.6751 92.391C67.7178 92.4059 67.7643 92.4059 67.807 92.391C68.7561 92.1799 69.6788 91.864 70.558 91.449C71.0079 91.0546 71.4793 90.6853 71.97 90.343C72.9196 89.8072 73.6862 88.9981 74.1701 88.021C74.6001 86.857 74.1281 86.009 73.5811 85.027V85.027Z" fill="url(#paint0_linear_236_801)"/>
<path d="M70.937 77.3379C70.937 77.3379 70.6251 73.482 73.5701 72.381C76.5151 71.28 86.37 69.8729 86.77 69.5809C86.538 69.7479 86.27 70.5249 86.109 70.7689C84.8296 72.7504 83.0389 74.3497 80.926 75.3979C79.0368 76.0563 77.0595 76.4271 75.0601 76.4979C74.6051 76.5529 70.92 76.7859 70.937 77.3379Z" fill="#EDBC94"/>
<path d="M50.491 71.462C50.491 71.462 53.502 76.977 58.991 73.139C58.991 73.139 54.154 70.147 50.491 71.462Z" fill="#ECB388"/>
<path d="M58.991 73.139L58.658 73.385C58.603 73.423 58.5441 73.469 58.4771 73.514L58.2531 73.655C58.1721 73.704 58.086 73.76 57.993 73.814L57.693 73.973C57.1885 74.2324 56.6499 74.4189 56.093 74.527C55.403 74.6549 54.6943 74.6427 54.009 74.491C53.6567 74.4079 53.3129 74.292 52.9821 74.145C52.6765 74.0061 52.3825 73.8429 52.103 73.657C51.6334 73.3433 51.2013 72.977 50.8151 72.565C50.5566 72.2896 50.318 71.9962 50.1011 71.687C49.9481 71.467 49.8771 71.339 49.8771 71.339C49.8771 71.339 49.964 71.457 50.137 71.658C50.3825 71.9394 50.644 72.2065 50.92 72.458C51.3263 72.8283 51.7673 73.1585 52.2371 73.444C52.5128 73.6102 52.7998 73.7569 53.0961 73.883C53.4135 74.0144 53.7409 74.1205 54.0751 74.2C54.7242 74.3437 55.3936 74.3701 56.052 74.278C56.5941 74.1974 57.124 74.0489 57.629 73.836L57.939 73.705C58.039 73.66 58.123 73.613 58.208 73.571L58.442 73.454C58.513 73.416 58.576 73.377 58.634 73.345L58.991 73.139Z" fill="#423030"/>
<path d="M63.27 74.241C63.27 74.241 65.0311 74.454 64.3881 73.489C64.052 73.1132 63.6098 72.8483 63.12 72.729C63.12 72.729 52.42 67.887 51.103 67.472C49.786 67.057 46.643 67.612 45.986 66.204C45.986 66.204 45.543 70.898 54.566 71.931C54.566 71.931 62.766 74.197 63.27 74.241V74.241Z" fill="#423030"/>
<path d="M54.566 70.332C54.566 70.332 60.5081 71.971 62.5861 72.488C60.4081 71.505 52.245 67.831 51.103 67.472C50.078 67.149 47.952 67.412 46.748 66.885C47.7 68.237 49.827 69.789 54.566 70.332Z" fill="#493434"/>
<path d="M84.991 71.462C84.991 71.462 81.98 76.977 76.491 73.139C76.491 73.139 81.334 70.147 84.991 71.462Z" fill="#ECB388"/>
<path d="M76.491 73.139L76.847 73.339C76.904 73.372 76.966 73.41 77.038 73.448L77.271 73.565L77.538 73.698L77.847 73.828C78.3494 74.0388 78.8767 74.1847 79.416 74.262C80.0712 74.3502 80.7371 74.3163 81.38 74.162C81.711 74.077 82.0345 73.965 82.347 73.827C82.6383 73.6939 82.92 73.5409 83.1901 73.369C83.6501 73.0733 84.0801 72.7334 84.474 72.354C84.742 72.0966 84.9947 71.8238 85.231 71.537C85.398 71.337 85.4821 71.213 85.4821 71.213C85.4821 71.213 85.414 71.343 85.269 71.565C85.0612 71.8782 84.8313 72.1763 84.5811 72.457C84.2084 72.8773 83.7885 73.2534 83.33 73.578C83.0561 73.7698 82.7677 73.9397 82.467 74.086C82.1405 74.2392 81.8004 74.3614 81.451 74.451C80.7714 74.6146 80.0653 74.6357 79.3771 74.513C78.8228 74.4079 78.2866 74.2233 77.785 73.965L77.485 73.808C77.392 73.753 77.3071 73.698 77.2271 73.649L77.0031 73.509C76.9371 73.464 76.878 73.419 76.824 73.38L76.491 73.139Z" fill="#423030"/>
<path d="M72.218 74.241C72.218 74.241 70.458 74.454 71.101 73.489C71.4368 73.1133 71.8785 72.8483 72.368 72.729C72.368 72.729 83.068 67.887 84.385 67.472C85.702 67.057 88.845 67.612 89.502 66.204C89.502 66.204 89.9449 70.898 80.9219 71.931C80.9219 71.931 72.722 74.197 72.218 74.241V74.241Z" fill="#423030"/>
<path d="M80.969 70.332C80.969 70.332 75.028 71.971 72.949 72.488C75.127 71.505 83.291 67.831 84.433 67.472C85.458 67.149 87.583 67.412 88.788 66.885C87.836 68.237 85.709 69.789 80.969 70.332Z" fill="#493434"/>
<path d="M65.481 97.235C66.9639 97.6049 68.5151 97.6049 69.998 97.235C68.5444 96.675 66.9346 96.675 65.481 97.235V97.235Z" fill="#ECB388"/>
<path d="M73.386 84.5609C73.386 84.5609 72.518 84.1199 71.659 86.4189C71.659 86.4189 70.149 77.5909 71.196 75.6849C71.196 75.6849 73.888 75.9659 72.584 76.2029C70.307 76.6169 73.196 83.6219 73.386 84.5609V84.5609Z" fill="url(#paint1_linear_236_801)"/>
<path d="M62.111 84.5609C62.111 84.5609 62.98 84.1199 63.838 86.4189C63.838 86.4189 65.348 77.5909 64.302 75.6849C64.302 75.6849 61.6101 75.9659 62.9141 76.2029C65.1911 76.6169 62.301 83.6219 62.111 84.5609Z" fill="url(#paint2_linear_236_801)"/>
<path d="M67.493 59.8159C83.0962 59.8159 95.745 48.2604 95.745 34.0059C95.745 19.7515 83.0962 8.19592 67.493 8.19592C51.8899 8.19592 39.241 19.7515 39.241 34.0059C39.241 48.2604 51.8899 59.8159 67.493 59.8159Z" fill="url(#paint3_radial_236_801)"/>
<path d="M84.791 8.26597C82.4444 7.16533 79.9877 6.31661 77.4621 5.73398C74.2801 4.97798 62.912 4.74496 61.423 4.64496C60.878 4.60796 58.323 4.81997 59.579 5.86197C58.358 4.85197 54.2141 5.92098 52.8681 6.24598C52.3091 6.38098 49.776 7.65896 51.5 8.16996C50.308 8.21696 47.6841 8.66996 46.7841 9.35996C49.1501 11.645 38.568 14.665 41.74 16.643C41.453 16.464 38.055 21.25 37.788 21.702C37.1986 22.6408 36.7894 23.6812 36.5811 24.77C36.4221 25.79 36.8531 26.752 36.8111 27.763C36.7691 28.774 36.237 29.693 36.356 30.714C36.634 33.107 35.748 35.427 35.856 37.857C36.0756 40.8065 36.668 43.7163 37.619 46.517C38.2973 48.434 38.879 50.3838 39.3621 52.359C40.1093 55.7118 40.6321 59.1106 40.927 62.533C41.4071 59.0592 41.5218 55.5447 41.2691 52.047C41.1691 50.905 40.8121 49.789 40.7521 48.652C40.7215 47.0558 41.1371 45.4828 41.9521 44.11C42.346 43.4877 42.7824 42.8933 43.2581 42.331C43.6778 41.6732 44.1457 41.0475 44.658 40.459C45.449 39.681 45.286 38.118 45.981 37.223C46.209 36.93 46.6391 32.694 48.2001 32.639C51.0711 32.539 53.439 41.668 55.069 40.328C56.699 38.988 59.2051 42.742 60.8111 43.096C66.1018 44.2187 71.6218 43.2251 76.189 40.328C76.299 41.314 76.609 41.907 77.871 41.812C85.827 41.212 86.7491 32.27 89.4151 32.372C92.0811 32.474 92.9601 40.279 93.5391 40.814C95.1651 42.314 94.208 45.903 94.328 48.114C94.3534 49.6953 94.2726 51.2765 94.0861 52.847C93.9861 54.129 94.032 55.388 94.032 56.668C94.032 57.911 94.2101 59.176 94.3111 60.418C94.3691 61.125 94.423 61.835 94.511 62.538C95.0225 57.8594 95.8025 53.2141 96.8471 48.625C97.0191 47.874 97.291 47.151 97.47 46.402C97.7641 45.0203 97.9286 43.6142 97.9611 42.202C98.0551 40.169 97.7611 38.092 98.1861 36.084C98.4281 34.952 98.9581 33.896 99.1331 32.749L99.1531 32.606C99.4531 30.197 98.22 27.906 97.808 25.586C97.562 24.199 97.854 21.841 96.434 21.003C96.6761 21.1668 96.9371 21.3011 97.2111 21.403C97.3901 19.631 95.6931 18.133 95.1431 16.561C94.816 15.6431 94.1643 14.8766 93.3111 14.406C92.6111 14.116 91.0021 13.744 91.1281 12.781C91.3211 12.835 90.8281 11.974 90.4781 11.718L84.791 8.26597Z" fill="#423030"/>
<path d="M93.541 40.814C92.962 40.279 92.083 32.475 89.417 32.372C86.751 32.269 85.829 41.21 77.873 41.812C76.611 41.907 76.301 41.312 76.191 40.328C71.6238 43.2251 66.1037 44.2187 60.813 43.096C59.207 42.742 56.701 38.988 55.071 40.328C53.441 41.668 51.071 32.536 48.202 32.639C46.641 32.694 46.211 36.93 45.983 37.223C45.283 38.123 45.451 39.681 44.66 40.459C44.1477 41.0475 43.6798 41.6732 43.26 42.331C42.7843 42.8932 42.3479 43.4876 41.954 44.11C41.139 45.4827 40.7235 47.0558 40.754 48.652C40.762 48.7853 40.773 48.9186 40.787 49.052C40.9432 47.8315 41.3391 46.6539 41.952 45.587C42.3462 44.9648 42.7826 44.3704 43.258 43.808C43.6781 43.1504 44.1459 42.5247 44.6579 41.936C45.4489 41.158 45.2859 39.595 45.9809 38.701C46.2089 38.407 46.6391 34.172 48.2001 34.116C51.0711 34.016 53.439 43.145 55.069 41.806C56.699 40.467 59.205 44.22 60.811 44.574C66.1018 45.6966 71.6217 44.7031 76.1889 41.806C76.2989 42.791 76.609 43.384 77.871 43.289C85.827 42.689 86.749 33.747 89.415 33.85C92.081 33.953 92.96 41.757 93.539 42.291C94.1604 42.9735 94.4967 43.8681 94.479 44.791C94.556 43.214 94.471 41.674 93.541 40.814V40.814Z" fill="#EDBC94"/>
<path d="M91.241 21.582C91.3533 24.4318 90.9793 27.2799 90.135 30.004C90.135 30.004 92.0001 35.267 94.5231 37.893C97.0461 40.519 96.366 36.649 96.568 35.958C96.77 35.267 96.079 18.54 91.241 21.582V21.582Z" fill="#493434"/>
<path d="M45.9831 21.2119C45.9831 21.2119 42.96 26.8119 44.302 30.4289C44.302 30.4289 43.5421 35.2669 41.0191 37.8929C38.4961 40.5189 39.176 36.6489 38.974 35.9579C38.772 35.2669 37.9761 18.1259 45.9831 21.2119Z" fill="#493434"/>
<path d="M79.12 95.9069C77.742 97.4149 72.62 101.18 67.72 100.586C62.82 101.18 57.5631 97.0259 56.3201 95.9069C55.6791 95.3299 54.305 93.5629 53.691 92.8949C50.711 89.378 48.0155 85.6295 45.63 81.6849C45.2053 83.5136 44.3519 85.2151 43.14 86.6489C46.74 94.1559 54.652 101.201 67.733 101.201C80.719 101.201 87.248 94.1559 92.309 86.8269L92.281 86.8129C90.802 86.0299 90.0391 83.9249 89.6431 81.9439C87.2995 85.7948 84.6581 89.4563 81.743 92.8949C81.135 93.5629 79.701 95.2709 79.12 95.9069V95.9069Z" fill="#ECB388"/>
<path d="M43.76 102.823C44.485 100.262 43.901 97.523 43.211 94.957C40.271 84.003 35.46 73.643 32.036 62.83C28.612 52.017 26.5959 40.338 29.4279 29.355C31.2572 22.5927 34.8153 16.4231 39.7523 11.4532C44.6893 6.48325 50.835 2.88417 57.5849 1.00998C64.6289 -0.856016 72.956 -0.416038 78.128 4.71796L77.962 4.93397C82.4284 4.82932 86.8536 5.80919 90.8584 7.78962C94.8631 9.77005 98.328 12.692 100.956 16.305C103.095 19.4038 104.716 22.8298 105.756 26.449C109.356 38.349 108.194 51.243 105.097 63.289C102 75.335 95.866 88.822 94.591 100.148C91.662 95.522 89.1429 88.816 90.3139 83.468C91.4849 78.12 93.436 72.868 93.504 67.395C93.568 62.246 91.959 57.241 90.368 52.344C90.368 52.344 87.942 46.019 81.515 45.477C80.09 45.356 78.24 45.877 78.279 44.449L78.0639 40.549C75.4769 44.299 73.545 45.789 68.677 46.768C63.966 47.715 59.1309 47.581 54.3299 47.768C53.3072 47.7621 52.2901 47.9177 51.316 48.229C49.4771 49.0562 48.0215 50.5515 47.244 52.412C43.512 60.06 46.544 69.064 47.487 77.522C48.4511 86.2778 47.0789 95.1327 43.51 103.186" fill="#624444"/>
<path d="M78.3101 7.56995C78.3101 7.56995 81.8931 22.6349 78.3101 38.1349" stroke="#FEE0C2" stroke-width="2" stroke-miterlimit="10"/>
<path d="M107.799 47.297C107.799 47.297 102.06 65.297 107.981 92.047C107.981 92.047 99.81 91.765 95.06 87.614C90.31 83.463 107.799 47.297 107.799 47.297Z" fill="#624444"/>
<path d="M29.925 47.297C29.925 47.297 35.6631 65.297 29.7421 92.047C29.7421 92.047 37.913 91.765 42.663 87.614C47.413 83.463 29.925 47.297 29.925 47.297Z" fill="#624444"/>
<path d="M72.037 74.381C76.2094 72.1689 80.5947 70.3842 85.126 69.0539C85.126 69.0539 85.0431 69.0539 86.7261 68.7929C86.7261 68.7929 88.819 68.6389 90.826 68.5629C91.1444 68.3307 91.4364 68.0644 91.697 67.7689L90.936 66.1489L82.082 66.4129L71.425 71.4329L70.21 74.2969C70.21 74.2969 70.677 75.083 72.037 74.381V74.381Z" fill="#F2C498"/>
<path d="M65.798 74.381C61.6255 72.1689 57.2403 70.3842 52.709 69.0539C52.709 69.0539 52.792 69.0539 51.109 68.7929C51.109 68.7929 49.016 68.6389 47.009 68.5629C46.6907 68.3307 46.3986 68.0645 46.1381 67.7689L46.899 66.1489L55.7531 66.4129L66.41 71.4329L67.625 74.2969C67.625 74.2969 67.158 75.083 65.798 74.381V74.381Z" fill="#F2C498"/>
</g>
<defs>
<linearGradient id="paint0_linear_236_801" x1="67.7403" y1="92.4022" x2="67.7403" y2="73.27" gradientUnits="userSpaceOnUse">
<stop offset="0.128" stop-color="#F5CFA3"/>
<stop offset="0.406" stop-color="#F3CA9E"/>
<stop offset="1" stop-color="#F2C498"/>
</linearGradient>
<linearGradient id="paint1_linear_236_801" x1="72.1062" y1="75.6849" x2="72.1062" y2="86.4189" gradientUnits="userSpaceOnUse">
<stop stop-color="#EDBC94"/>
<stop offset="0.628" stop-color="#EDBD95"/>
<stop offset="0.854" stop-color="#F0C49A"/>
<stop offset="1" stop-color="#F5CFA3"/>
</linearGradient>
<linearGradient id="paint2_linear_236_801" x1="63.391" y1="75.6849" x2="63.391" y2="86.4189" gradientUnits="userSpaceOnUse">
<stop stop-color="#EDBC94"/>
<stop offset="0.628" stop-color="#EDBD95"/>
<stop offset="0.854" stop-color="#F0C49A"/>
<stop offset="1" stop-color="#F5CFA3"/>
</linearGradient>
<radialGradient id="paint3_radial_236_801" cx="0" cy="0" r="1" gradientUnits="userSpaceOnUse" gradientTransform="translate(65.1064 34.0059) scale(27.0618 27.0489)">
<stop stop-color="#F4CAA6"/>
<stop offset="0.668" stop-color="#F3C9A4"/>
<stop offset="0.908" stop-color="#F2C69D"/>
<stop offset="1" stop-color="#F2C498"/>
</radialGradient>
<clipPath id="clip0_236_801">
<rect width="135.478" height="126.056" fill="white"/>
</clipPath>
</defs>
</svg>
