<svg width="133" height="126" viewBox="0 0 133 126" fill="none" xmlns="http://www.w3.org/2000/svg">
<g clip-path="url(#clip0_236_970)">
<path d="M97.298 90.329C94.7821 89.6008 92.3369 88.6476 89.9919 87.4809C86.9819 85.8809 87.006 78.6699 87.006 78.6699C85.924 76.1079 45.2969 78.607 45.2969 78.607C45.2969 78.607 44.386 86.5179 41.027 88.0709C39.1013 88.9168 37.122 89.6351 35.1019 90.221C31.7389 91.247 48.8019 105.24 65.9669 105.279C83.3049 105.319 100.739 91.397 97.298 90.329Z" fill="#EDBC94"/>
<path d="M129.203 106.531C127.559 101.064 123.462 98.918 117.949 96.531C112.436 94.144 104.144 92.45 97.298 90.331C94.538 89.476 77.0849 104.196 65.6399 104.349C54.1949 104.502 37.3549 89.537 35.1019 90.224C28.3409 92.285 19.6429 94.156 14.1599 96.532C8.64791 98.92 4.99899 101.066 3.35999 106.532C2.80499 108.379 0.209906 125.625 0.00390625 125.625L65.809 125.748H66.309L132.109 125.625C131.905 125.624 129.758 108.378 129.203 106.531Z" fill="#68AA9E"/>
<path d="M96.464 49.95C95.573 49.299 93.6539 49.585 92.6459 50.019C92.6409 50.281 92.6359 50.543 92.6279 50.805C92.6153 51.3103 92.5966 51.8147 92.5719 52.318C92.5192 53.462 92.4396 54.6033 92.3329 55.742C92.2802 56.3113 92.2209 56.878 92.1549 57.442C92.1309 57.652 92.105 57.862 92.079 58.072C91.8 59.944 91.5489 61.405 91.4689 62.036C91.061 64.2725 90.5407 66.4869 89.9099 68.671C90.6897 68.4721 91.399 68.0606 91.9587 67.4824C92.5184 66.9042 92.9066 66.1819 93.08 65.396C93.6226 62.1587 94.5478 58.9972 95.8359 55.978C97.5689 51.097 96.464 49.95 96.464 49.95Z" fill="#F2C498"/>
<path d="M94.7059 57.264C94.7059 57.264 96.3339 52.581 95.8519 52.047C95.0699 51.179 93.0519 53.506 92.3519 55.6C92.2993 56.1694 92.24 56.736 92.174 57.3C93.592 53.919 95.3469 54.53 94.7059 57.264Z" fill="#ECB388"/>
<path d="M91.215 64.481C91.215 64.481 92.507 63.912 92.689 63.122C92.871 62.332 92.3009 61.689 92.9009 61.44C93.5009 61.191 94.1249 60.131 94.3259 59.831C94.5269 59.531 95.4409 55.866 94.7599 54.819C94.0789 53.772 92.1649 56.979 92.1649 56.979L91.215 64.481Z" fill="#F7D5A9"/>
<path d="M92.007 58.642C92.184 58.586 93.5639 56.771 93.9219 57.001C94.4429 57.336 94.0839 59.4679 93.3109 60.5579C92.7764 61.1434 92.1552 61.6432 91.4689 62.04L92.007 58.642Z" fill="#E7A277"/>
<path d="M35.5919 49.95C36.4839 49.299 38.4029 49.585 39.4109 50.019C39.4159 50.281 39.4209 50.543 39.4289 50.805C39.4416 51.3103 39.4603 51.8147 39.485 52.318C39.539 53.462 39.6185 54.6033 39.7238 55.742C39.7772 56.3113 39.8366 56.878 39.9019 57.442C39.9259 57.652 39.9519 57.862 39.9779 58.072C40.2569 59.944 40.5079 61.405 40.5879 62.036C40.9957 64.2725 41.5162 66.4869 42.1469 68.671C41.3671 68.4721 40.6576 68.0606 40.0977 67.4824C39.5379 66.9042 39.1496 66.1819 38.9759 65.396C38.4338 62.1586 37.509 58.9971 36.2209 55.978C34.4879 51.097 35.5919 49.95 35.5919 49.95Z" fill="#F2C498"/>
<path d="M37.3509 57.264C37.3509 57.264 35.7229 52.581 36.2049 52.047C36.9869 51.179 39.0049 53.506 39.7049 55.6C39.7576 56.1694 39.8169 56.736 39.8829 57.3C38.4649 53.919 36.7099 54.53 37.3509 57.264Z" fill="#ECB388"/>
<path d="M40.8419 64.481C40.8419 64.481 39.5499 63.912 39.3679 63.122C39.1859 62.332 39.7559 61.689 39.1549 61.44C38.5539 61.191 37.932 60.131 37.731 59.831C37.53 59.531 36.6159 55.866 37.2969 54.819C37.9779 53.772 39.897 56.979 39.897 56.979L40.8419 64.481Z" fill="#F7D5A9"/>
<path d="M40.0499 58.642C39.8719 58.586 38.4929 56.771 38.1349 57.001C37.6139 57.336 37.973 59.4679 38.746 60.5579C39.2804 61.1434 39.9016 61.6433 40.5879 62.04L40.0499 58.642Z" fill="#E7A277"/>
<path d="M94.878 31.8169C94.357 8.03795 66.771 8.09897 66.035 8.10497C65.299 8.11097 37.7129 8.03795 37.1919 31.8169C36.8279 48.3869 37.1059 47.827 37.6719 50.561C38.2379 53.295 39.542 59.426 39.808 62.523C40.074 65.62 40.065 75.158 44.07 81.781C46.5049 85.8816 49.2775 89.7721 52.3589 93.4119C52.9589 94.063 54.2969 95.786 54.9209 96.349C56.1309 97.44 61.258 101.491 66.035 100.912C70.812 101.491 75.805 97.819 77.148 96.349C77.715 95.728 79.113 94.063 79.711 93.4119C82.7924 89.7721 85.565 85.8816 87.9999 81.781C92.0049 75.158 91.994 65.621 92.261 62.523C92.528 59.425 93.831 53.295 94.398 50.561C94.965 47.827 95.246 48.3869 94.878 31.8169Z" fill="#F2C498"/>
<path d="M62.9259 78.2419C62.9259 78.2419 63.2259 74.4819 60.3589 73.4069C57.4919 72.3319 47.8879 70.9619 47.4889 70.6749C47.7149 70.8379 47.9719 71.5959 48.1329 71.8339C49.3766 73.7848 51.1214 75.3659 53.1849 76.4119C54.9659 77.2019 56.954 77.1949 58.902 77.4229C59.35 77.4759 62.9419 77.7039 62.9259 78.2419Z" fill="#EDBC94"/>
<path d="M64.627 95.47C65.5442 95.73 66.5157 95.73 67.433 95.47C70.044 95.414 73.0769 92.63 73.0769 92.63C71.362 93.6863 69.4347 94.3498 67.433 94.573C66.5157 94.833 65.5442 94.833 64.627 94.573C62.016 94.516 58.662 92.502 58.662 92.502C58.808 92.639 58.95 92.77 59.089 92.902C59.0354 92.8036 58.968 92.7133 58.8889 92.634C58.8889 92.634 62.016 95.414 64.627 95.47Z" fill="#DB956E"/>
<path d="M64.705 96.754C65.2886 96.7082 65.8748 96.7042 66.459 96.742C68.919 97.094 71.0169 94.971 72.1589 93.749C72.4915 93.398 72.799 93.0241 73.079 92.63C73.079 92.63 70.0459 95.414 67.4349 95.47C66.5177 95.73 65.5462 95.73 64.6289 95.47C62.0179 95.414 58.887 92.63 58.887 92.63C58.966 92.7094 59.0333 92.7996 59.0869 92.898C59.3629 93.1507 59.6263 93.3867 59.877 93.606C62.74 96.105 63.978 96.824 64.705 96.754Z" fill="#E7A277"/>
<path d="M64.9059 94.564C64.4951 94.5428 64.0859 94.499 63.6799 94.433C63.1852 94.3398 62.6971 94.2143 62.2189 94.057C61.3496 93.7685 60.5004 93.4228 59.6769 93.022C59.3589 92.87 59.1059 92.739 58.9309 92.647C58.7559 92.555 58.662 92.502 58.662 92.502C58.662 92.502 58.754 92.561 58.924 92.661C59.094 92.761 59.3409 92.902 59.6539 93.061C60.467 93.4931 61.315 93.856 62.189 94.146C63.0619 94.4475 63.9784 94.6036 64.902 94.608C65.252 94.633 65.5339 94.676 65.7279 94.708C65.9219 94.74 66.028 94.763 66.028 94.763C66.028 94.763 65.9219 94.735 65.7279 94.693C65.4564 94.6353 65.182 94.5923 64.9059 94.564Z" fill="#C68260"/>
<path d="M72.8209 92.7719C72.6549 92.8609 72.415 92.9889 72.111 93.1349C71.961 93.2099 71.793 93.2849 71.611 93.3699C71.429 93.4549 71.2379 93.5369 71.0309 93.6189C70.8239 93.7009 70.6089 93.7879 70.3829 93.8739C70.2699 93.9169 70.1529 93.9539 70.0359 93.9959C69.9759 94.0159 69.9179 94.0379 69.8569 94.0569L69.6749 94.1129L69.4929 94.1689L69.402 94.1969L69.3119 94.2209L68.9559 94.3139C68.8389 94.3439 68.7219 94.3649 68.6089 94.3889L68.4399 94.4249C68.3849 94.4359 68.3289 94.4419 68.2739 94.4509L67.954 94.4989C67.854 94.5119 67.7539 94.5159 67.6539 94.5249L67.3689 94.5459C67.2769 94.5529 67.1879 94.5569 67.1039 94.5689C66.8391 94.5993 66.5761 94.6433 66.3159 94.7009C66.1319 94.7409 66.0309 94.7679 66.0309 94.7679C66.0309 94.7679 66.131 94.7469 66.319 94.7159C66.507 94.6849 66.7739 94.6439 67.1089 94.6159C67.1919 94.6079 67.28 94.6069 67.371 94.6029L67.658 94.5899C67.757 94.5849 67.8579 94.5829 67.9659 94.5729L68.2909 94.5319C68.3459 94.5239 68.403 94.5189 68.459 94.5089L68.6299 94.4759C68.7449 94.4529 68.863 94.4329 68.981 94.4049L69.3419 94.3129L69.433 94.2899L69.5249 94.2619L69.7079 94.2059L69.892 94.1489C69.953 94.1299 70.0119 94.1079 70.0709 94.0869C70.1899 94.0439 70.3069 94.0049 70.4209 93.9609C70.6459 93.8719 70.865 93.7869 71.069 93.6939C71.273 93.6009 71.4689 93.5129 71.6439 93.4289C71.8189 93.3449 71.9869 93.2579 72.1349 93.1769C72.4349 93.0189 72.668 92.8769 72.835 92.7829C73.002 92.6889 73.0829 92.6279 73.0829 92.6279C73.0829 92.6279 72.9869 92.6829 72.8209 92.7719Z" fill="#C68260"/>
<path d="M71.751 85.7389C71.597 85.4599 71.436 85.1719 71.294 84.8659C71.158 84.5749 71.033 84.3429 70.924 84.1389C70.6762 83.7096 70.4826 83.251 70.3479 82.7739C70.3209 82.6739 70.116 81.6799 70.029 81.2539C69.7092 79.377 69.2013 77.5371 68.513 75.7619C67.9337 74.9981 67.0898 74.4784 66.147 74.3049V74.2789L66.086 74.2909L66.027 74.2789V74.3039C65.0637 74.4702 64.197 74.9901 63.597 75.7619C62.9087 77.5371 62.4008 79.377 62.081 81.2539C61.994 81.6799 61.789 82.6789 61.762 82.7739C61.6278 83.2512 61.4342 83.7098 61.186 84.1389C61.077 84.3389 60.9529 84.5749 60.8169 84.8659C60.6739 85.1719 60.517 85.4599 60.358 85.7389C60.0351 86.1437 59.8147 86.6205 59.7156 87.1287C59.6166 87.6369 59.6418 88.1615 59.789 88.6579C60.2593 89.6113 61.0061 90.4006 61.9319 90.9229C62.4101 91.2571 62.8698 91.617 63.309 92.0009C64.1659 92.4065 65.0655 92.7147 65.991 92.9199C66.0324 92.9346 66.0775 92.9346 66.1189 92.9199C67.0445 92.7149 67.9442 92.4067 68.8009 92.0009C69.2405 91.617 69.7005 91.2571 70.179 90.9229C71.1044 90.4003 71.8508 89.611 72.321 88.6579C72.4682 88.1615 72.4933 87.6368 72.3941 87.1285C72.2948 86.6203 72.0742 86.1435 71.751 85.7389Z" fill="url(#paint0_linear_236_970)"/>
<path d="M69.1779 78.2419C69.1779 78.2419 68.8779 74.4819 71.7459 73.4069C74.6139 72.3319 84.2239 70.9619 84.6219 70.6749C84.3959 70.8379 84.1389 71.5959 83.9779 71.8339C82.7298 73.7657 80.9838 75.3251 78.9239 76.3479C77.0819 76.9908 75.1537 77.3532 73.2039 77.4229C72.7509 77.4759 69.1569 77.7039 69.1779 78.2419Z" fill="#EDBC94"/>
<path d="M49.2379 72.511C49.2379 72.511 52.1739 77.889 57.5259 74.147C57.5259 74.147 52.8079 71.229 49.2379 72.511Z" fill="#ECB388"/>
<path d="M57.5259 74.147L57.2009 74.387C57.1479 74.424 57.0909 74.469 57.0249 74.513L56.8069 74.649L56.553 74.805L56.2529 74.96C55.7616 75.2126 55.2371 75.3947 54.6949 75.501C54.0217 75.6249 53.3304 75.6127 52.662 75.465C52.3188 75.3843 51.984 75.2715 51.662 75.128C51.3639 74.9929 51.0772 74.8337 50.8049 74.652C50.3471 74.346 49.9257 73.9887 49.549 73.587C49.2954 73.3189 49.0613 73.0328 48.8489 72.731C48.7009 72.517 48.631 72.391 48.631 72.391C48.631 72.391 48.7159 72.507 48.8849 72.703C49.124 72.9778 49.3788 73.2386 49.6479 73.484C50.0439 73.845 50.4739 74.1669 50.9319 74.445C51.2008 74.6071 51.4809 74.7501 51.7699 74.873C52.0791 75.0022 52.3986 75.1056 52.725 75.182C53.3579 75.3224 54.0108 75.3484 54.653 75.259C55.1812 75.1795 55.6974 75.0347 56.1899 74.828L56.49 74.7C56.584 74.656 56.6709 74.61 56.7529 74.569L56.981 74.455C57.051 74.418 57.112 74.38 57.168 74.348L57.5259 74.147Z" fill="#423030"/>
<path d="M61.6969 75.221C61.6969 75.221 63.414 75.429 62.787 74.489C62.4598 74.122 62.0287 73.8633 61.5509 73.747C61.5509 73.747 51.1189 69.025 49.8319 68.621C48.5449 68.217 45.4839 68.758 44.8429 67.385C44.8429 67.385 44.411 71.962 53.21 72.969C53.21 72.969 61.2059 75.175 61.6969 75.221Z" fill="#423030"/>
<path d="M53.21 71.409C53.21 71.409 59.0039 73.009 61.0299 73.509C58.9069 72.55 50.946 68.968 49.83 68.618C48.83 68.303 46.758 68.56 45.584 68.045C46.514 69.367 48.588 70.88 53.21 71.409Z" fill="#493434"/>
<path d="M82.8779 72.511C82.8779 72.511 79.942 77.889 74.59 74.147C74.594 74.147 79.3109 71.229 82.8779 72.511Z" fill="#ECB388"/>
<path d="M74.5939 74.147L74.9409 74.347C74.9969 74.379 75.058 74.417 75.127 74.453L75.3539 74.567L75.615 74.697L75.9149 74.823C76.4051 75.029 76.9196 75.1715 77.4459 75.247C78.0846 75.3323 78.7337 75.2984 79.36 75.147C79.6828 75.0646 79.9982 74.9555 80.303 74.821C80.587 74.6912 80.8616 74.5418 81.1249 74.374C81.5735 74.0856 81.993 73.7541 82.377 73.384C82.6384 73.1317 82.8852 72.8646 83.116 72.584C83.279 72.384 83.361 72.267 83.361 72.267C83.361 72.267 83.294 72.394 83.152 72.611C82.9493 72.9163 82.7254 73.207 82.4819 73.481C82.118 73.8907 81.7084 74.2575 81.261 74.574C80.9941 74.7609 80.7129 74.9264 80.4199 75.069C80.102 75.2188 79.7705 75.3379 79.4299 75.425C78.767 75.5845 78.0782 75.6049 77.407 75.485C76.8667 75.3827 76.344 75.2032 75.855 74.952L75.5549 74.798C75.4649 74.745 75.382 74.691 75.303 74.643L75.0859 74.507C75.0199 74.463 74.9639 74.419 74.9109 74.381L74.5939 74.147Z" fill="#423030"/>
<path d="M70.4218 75.221C70.4218 75.221 68.7048 75.429 69.3328 74.489C69.6601 74.122 70.0912 73.8633 70.5689 73.747C70.5689 73.747 80.9999 69.025 82.2869 68.621C83.5739 68.217 86.6358 68.758 87.2758 67.385C87.2758 67.385 87.7089 71.962 78.9099 72.969C78.9099 72.969 70.9138 75.175 70.4218 75.221Z" fill="#423030"/>
<path d="M78.9559 71.409C78.9559 71.409 73.162 73.009 71.136 73.509C73.259 72.55 81.2199 68.968 82.3359 68.618C83.3359 68.303 85.4089 68.56 86.5829 68.045C85.6519 69.367 83.5779 70.88 78.9559 71.409Z" fill="#493434"/>
<path d="M63.8529 97.6439C65.2975 98.0039 66.8083 98.0039 68.2529 97.6439C66.8369 97.0992 65.269 97.0992 63.8529 97.6439Z" fill="#ECB388"/>
<path d="M71.5619 85.285C71.5619 85.285 70.7149 84.855 69.8779 87.096C69.8779 87.096 68.4049 78.488 69.4249 76.63C69.4249 76.63 72.0509 76.903 70.7789 77.135C68.5589 77.538 71.3779 84.369 71.5619 85.285Z" fill="url(#paint1_linear_236_970)"/>
<path d="M60.5669 85.285C60.5669 85.285 61.414 84.855 62.251 87.096C62.251 87.096 63.7239 78.488 62.7029 76.63C62.7029 76.63 60.078 76.903 61.35 77.135C63.57 77.538 60.7529 84.369 60.5669 85.285Z" fill="url(#paint2_linear_236_970)"/>
<path d="M93.902 36.3379C93.902 50.2379 81.5669 61.506 66.3519 61.506C51.1369 61.506 38.803 50.2379 38.803 36.3379C38.803 22.4379 51.1369 11.1699 66.3519 11.1699C81.5669 11.1699 93.902 22.4379 93.902 36.3379Z" fill="url(#paint3_radial_236_970)"/>
<path d="M77.152 96.349C75.809 97.819 70.8159 101.491 66.0389 100.912C61.2619 101.491 56.1389 97.44 54.9249 96.349C54.3009 95.786 52.9609 94.063 52.3629 93.412C49.4562 89.9827 46.8276 86.3271 44.502 82.48C44.0876 84.2632 43.2554 85.9225 42.074 87.321C45.586 94.642 53.2989 101.511 66.0549 101.511C78.7179 101.511 85.0839 94.642 90.0189 87.494L89.9919 87.481C88.5509 86.717 87.8049 84.665 87.4199 82.733C85.1357 86.488 82.5612 90.0585 79.72 93.412C79.117 94.063 77.719 95.728 77.152 96.349Z" fill="#ECB388"/>
<path d="M86.0559 13.84C84.2247 12.755 82.3201 11.799 80.356 10.979C79.214 10.579 76.446 14.632 66.376 15.112H66.3519C56.2809 14.632 53.2769 10.232 52.1719 10.724C50.2719 11.566 48.9409 12.21 46.6979 13.232L46.6719 13.244C47.0429 16.744 48.9179 22.932 50.3719 26.771C50.5929 23.51 54.1269 21.51 57.4719 23.471C59.6449 24.744 57.9669 27.202 57.8719 31.553C57.7789 35.737 59.9119 39.86 66.3719 40.111C72.8329 39.86 74.9659 35.737 74.8719 31.553C74.7719 27.202 73.097 24.744 75.272 23.471C78.615 21.511 82.5589 23.248 83.4719 25.59C85.0271 21.8588 85.9022 17.8794 86.0559 13.84Z" fill="#D8B49A"/>
<path d="M96.678 34.487L96.6489 34.625C96.6679 34.673 96.6859 34.725 96.7059 34.769C96.7209 34.6741 96.7113 34.5771 96.678 34.487Z" fill="#423030"/>
<path d="M96.678 34.487L96.6489 34.625C96.6679 34.673 96.6859 34.725 96.7059 34.769C96.7209 34.6741 96.7113 34.5771 96.678 34.487Z" fill="#423030"/>
<path d="M95.5928 27.783C94.9648 25.36 94.5758 22.831 93.4008 20.592C93.1674 20.1296 92.8966 19.6871 92.5909 19.269C88.7199 14.153 87.7199 14.792 86.0559 13.84C85.7949 18.34 83.1989 25.254 83.4919 25.726C83.7849 26.198 85.7539 30.788 86.6019 31.758C88.1568 33.4382 89.3266 35.4373 90.0299 37.616C90.4212 39.0148 90.6577 40.4524 90.7349 41.903C91.6145 43.1977 92.158 44.6908 92.3168 46.248C92.4168 47.418 91.9169 48.569 91.9849 49.739C92.0095 51.2809 91.9302 52.8227 91.7479 54.354C91.6479 55.605 91.6959 56.832 91.6959 58.081C91.6959 59.292 91.8688 60.526 91.9678 61.738C92.0929 62.4201 92.1599 63.1115 92.1679 63.805C92.7665 58.8347 93.6787 53.9072 94.8989 49.052C95.5841 45.5716 96.0298 42.0483 96.2329 38.507C96.6821 34.9234 96.4651 31.2877 95.5928 27.783Z" fill="#423030"/>
<path d="M41.012 16.884C38.651 19.076 37.168 22.349 36.178 25.384C35.397 27.778 35.9869 30.273 35.8019 32.726C35.2239 40.385 36.784 46.526 38.267 53.88C39.0349 57.1472 39.5844 60.4618 39.912 63.802C40.3803 60.4144 40.4923 56.987 40.246 53.576C40.146 52.463 39.801 51.376 39.746 50.266C39.595 47.395 42.0459 44.846 42.6459 42.1C43.0075 40.7512 43.5814 39.4685 44.346 38.3C44.976 37.068 45.6339 34.823 46.1459 33.527C46.561 32.5391 47.2054 31.6643 48.0259 30.975C49.0643 29.7313 49.8604 28.304 50.373 26.767C50.583 25.745 50.4249 25.667 49.8899 24.784C48.3655 21.0769 47.2874 17.2017 46.678 13.24C45.084 13.961 44.624 13.529 41.012 16.884Z" fill="#423030"/>
<path d="M73.596 52.677C77.6061 52.677 80.857 48.7872 80.857 43.989C80.857 39.1907 77.6061 35.301 73.596 35.301C69.5858 35.301 66.335 39.1907 66.335 43.989C66.335 48.7872 69.5858 52.677 73.596 52.677Z" fill="url(#paint4_radial_236_970)"/>
<path d="M40.5549 102.823C41.2809 100.262 40.6969 97.523 40.0069 94.957C37.0669 84.003 32.2559 73.643 28.8319 62.83C25.4079 52.017 23.3918 40.338 26.2238 29.355C28.0528 22.5931 31.6105 16.4237 36.547 11.4538C41.4834 6.48392 47.6285 2.88463 54.3779 1.00998C61.4219 -0.856016 69.7489 -0.416038 74.9209 4.71796L74.7548 4.93397C79.2213 4.82949 83.6465 5.80945 87.6512 7.78986C91.6559 9.77028 95.1207 12.6921 97.7489 16.305C99.8882 19.4037 101.509 22.8298 102.549 26.449C106.149 38.349 104.987 51.243 101.89 63.289C98.7928 75.335 92.6589 88.822 91.3839 100.148C88.4549 95.522 85.9359 88.816 87.1069 83.468C88.2779 78.12 90.2288 72.868 90.2968 67.395C90.3608 62.246 88.7519 57.241 87.1599 52.344C87.1599 52.344 84.7349 46.019 78.3079 45.477C76.8829 45.356 75.0329 45.877 75.0719 44.449L74.8569 40.549C72.2699 44.299 70.3379 45.789 65.4699 46.768C60.7589 47.715 55.9239 47.581 51.1229 47.768C50.1002 47.7621 49.083 47.9177 48.1088 48.229C46.27 49.0562 44.8145 50.5515 44.0369 52.412C40.3049 60.06 43.3369 69.064 44.2799 77.522C45.2442 86.2778 43.8716 95.1329 40.3018 103.186" fill="#624444"/>
<path d="M104.595 47.297C104.595 47.297 98.8559 65.297 104.777 92.047C104.777 92.047 96.6059 91.765 91.8559 87.614C87.1059 83.463 104.595 47.297 104.595 47.297Z" fill="#624444"/>
<path d="M26.7209 47.297C26.7209 47.297 32.459 65.297 26.538 92.047C26.538 92.047 34.709 91.765 39.459 87.614C44.209 83.463 26.7209 47.297 26.7209 47.297Z" fill="#624444"/>
<path d="M80.7069 8.45895C80.6619 9.76795 79.74 9.71996 78.783 9.68396C79.467 11.084 80.688 11.133 81.235 12.352C80.959 12.785 80.0709 12.234 80.0459 13.026C80.0259 13.674 80.678 13.726 80.996 14.082C81.664 14.833 82.8079 15.015 83.0959 16.332C82.2959 16.649 81.3019 15.655 80.9169 16.721C80.2879 18.464 80.3689 20.157 82.5959 20.698C81.6129 21.444 80.904 20.813 80.376 21.429C80.689 22.029 81.6279 21.929 81.5759 23.118C80.6759 22.947 79.5109 22.718 80.1129 24.54C80.4129 25.456 81.4999 25.755 81.5299 26.963C81.0869 27.471 80.5149 26.599 80.0609 27.323C80.1179 28.243 81.131 28.491 81.136 29.523C80.667 30.075 79.7259 28.666 79.4609 30.16C80.1729 31.368 79.2899 31.788 78.5609 32.282C78.447 32.287 78.3336 32.2641 78.2306 32.2153C78.1276 32.1665 78.038 32.0933 77.9697 32.002C77.9014 31.9108 77.8565 31.8042 77.8387 31.6917C77.821 31.5791 77.831 31.4638 77.8679 31.356C78.3729 29.77 77.7149 28.676 77.1439 27.515C76.9439 27.098 76.7179 26.515 77.0349 26.153C77.7539 25.327 77.0349 24.545 77.1819 24.053C77.7819 22.047 77.126 19.923 78.053 18.08C78.578 17.035 77.723 15.526 79.304 14.998C77.455 13.79 76.8839 11.728 77.4209 9.28098C77.7649 7.70998 76.4379 8.04295 75.6599 7.35095C75.5699 9.18195 75.788 11.089 73.621 10.739C73.58 11.006 73.5619 11.075 73.5609 11.139C73.5459 12.2 74.6029 13.229 73.6609 14.26C72.7359 15.271 72.087 13.88 71.261 13.76C71.094 13.735 70.906 13.837 70.725 13.842C70.6421 13.825 70.5638 13.7908 70.4949 13.7417C70.426 13.6927 70.3681 13.6297 70.325 13.557C69.539 12.623 69.1379 11.306 67.8939 10.563C69.5509 9.55596 70.3369 11.055 71.3209 11.319C71.8429 10.958 71.6209 10.629 71.5209 10.345C71.0279 8.87597 71.6409 8.49996 72.7949 8.57596C73.1799 8.60096 73.6499 8.98896 73.9569 8.45596C74.3159 7.82996 73.8029 7.42895 73.5469 7.04095C73.0319 6.25995 72.4409 5.55096 71.8099 4.71896C72.5919 4.23296 73.156 4.70496 73.746 4.80396C74.219 4.88296 74.587 4.93598 74.522 4.15198L80.7069 8.45895Z" fill="#B99678"/>
<path d="M70.3149 13.568L70.7689 13.645C72.6139 14.574 72.5839 16.745 72.7839 18.666C72.8839 19.666 72.0839 19.627 71.3839 19.546C71.8089 20.546 72.805 21.174 72.512 22.496C72.344 23.258 71.635 23.188 71.173 23.565C71.704 24.689 72.3729 25.695 72.8799 26.815C73.1459 27.396 73.5619 28.047 73.1799 28.735C72.7459 29.526 72.0799 28.967 71.7069 29C71.0939 31.04 71.6529 32.3 73.3849 32.7C73.5047 32.7584 73.6014 32.8555 73.6593 32.9756C73.7172 33.0957 73.733 33.2319 73.704 33.362C72.836 35.603 74.7779 36.539 74.8739 38.503C75.0249 38.213 75.074 38.161 75.074 38.113C75.124 35.746 74.7159 33.083 77.9479 32.826C78.1079 32.814 78.2809 32.416 78.4709 32.226C78.7029 31.485 79.8069 31.239 79.4519 30.165C79.8809 30.821 80.9959 31.25 79.5519 32.412C79.2769 32.633 80.391 33.779 80.7 34.625C79.8021 35.0879 78.865 35.4707 77.8999 35.769C77.0999 36.089 77.6069 36.491 77.4999 36.839L78.464 38.697C77.722 39.188 77.4799 38.051 76.8639 38.354C76.7749 39.267 77.438 39.795 77.564 40.622C76.798 41.247 75.655 39.53 75.173 41.428C73.793 40.35 72.0099 40.119 70.7019 38.891L73.4459 39.659C72.9829 37.994 71.7709 37.643 70.7969 36.68C71.2509 36.558 71.802 36.569 71.892 36.356C72.163 35.713 71.5209 35.698 71.2629 35.412C71.1389 35.275 71.005 35.15 70.876 35.019C70.585 34.725 69.9759 34.697 70.0469 34.119C70.1469 33.326 70.9259 33.926 71.3269 33.272L64.2479 27.936C66.0009 27.405 67.2119 28.447 68.5879 28.668C69.0279 27.497 67.776 27.493 67.714 26.522C68.714 25.982 69.7319 26.422 70.8839 26.276C70.3989 24.069 68.7009 23.34 67.4729 22.198C67.6559 21.689 67.9199 21.81 68.1409 21.758C68.8889 21.583 69.9849 22.25 70.3009 21.429C70.6649 20.481 69.7699 19.612 69.2709 18.829C68.7409 17.994 68.123 17.239 67.428 16.29C68.819 15.916 69.792 16.611 70.913 16.912C71.341 15.514 70.2399 14.736 70.3149 13.568Z" fill="#B59378"/>
<path d="M78.4779 32.225C78.8089 34.107 77.7518 33.991 76.7498 33.892C75.6298 33.781 74.9258 34.0979 75.6978 35.4639C76.3718 36.6559 75.1078 37.914 75.6708 39.191C75.8548 39.606 74.9189 39.657 74.6649 39.167C74.0109 37.903 73.9779 36.167 72.6899 35.374C72.6455 35.2836 72.6213 35.1846 72.6191 35.0839C72.6168 34.9832 72.6365 34.8832 72.6768 34.7909C74.4158 32.4669 72.3769 32.87 71.5479 32.457C70.9479 32.157 70.2649 31.843 70.2169 31.048C70.1539 29.986 71.1779 30.919 71.4619 30.109C71.3449 29.425 70.1809 29.238 70.6169 28.044C71.5169 27.724 71.9638 29.077 72.9838 28.612C72.4692 26.9164 71.6675 25.3216 70.6138 23.897C70.4368 23.61 69.8829 23.574 70.1849 22.997C70.3849 22.613 70.6849 22.721 70.9769 22.858C71.1733 22.963 71.4021 22.9905 71.6179 22.9349C71.8336 22.8794 72.0206 22.7448 72.1419 22.5579C72.4929 21.9739 72.0318 21.546 71.7808 21.12C71.3088 20.32 70.5389 19.767 70.3209 18.781C70.6109 18.43 70.8209 18.561 71.0389 18.622C71.4749 18.745 71.7818 19.558 72.2598 19.129C72.9008 18.556 72.0878 18.058 72.1188 17.493C72.2058 15.893 71.3989 14.8259 70.7729 13.6439C71.5409 12.2339 71.9339 13.4769 72.4279 13.8079C72.7719 14.0389 73.0689 14.4889 73.4969 13.9759C73.6211 13.81 73.6861 13.6072 73.6813 13.4C73.6766 13.1927 73.6025 12.9931 73.4709 12.833C72.9239 12.007 73.1348 10.897 72.6408 9.84496C73.0074 9.88627 73.3706 9.95308 73.7279 10.0449C75.0839 10.5349 75.3379 9.80896 75.0789 8.44496C74.9729 7.88696 74.5029 7.24495 75.1439 6.74495C75.7089 6.30395 76.1198 6.91397 76.5568 7.20397C76.8992 7.4416 77.2578 7.65509 77.6298 7.84294C78.4698 8.24294 78.9619 8.69996 77.8299 9.62496C77.1919 10.147 76.9929 10.708 77.7299 11.241C77.8669 11.341 78.0629 11.557 78.0369 11.687C77.5499 14.129 79.1869 14.2219 80.4859 14.6359C80.3069 15.4559 79.8079 15.509 79.3339 15.582C78.8189 15.662 78.3698 16.051 78.7448 16.509C79.5338 17.473 79.2929 17.968 78.2779 18.453C78.1631 18.4897 78.0598 18.5555 77.9779 18.644C77.8959 18.7324 77.8382 18.8405 77.8104 18.9578C77.7825 19.0751 77.7854 19.1976 77.8188 19.3134C77.8522 19.4292 77.9149 19.5345 78.0009 19.6189C78.8529 20.5939 78.4459 21.6939 77.8599 22.6009C77.1689 23.6709 77.2138 24.2259 78.2288 24.5799C78.4928 24.6719 78.8489 24.723 78.7989 25.185C78.7791 25.35 78.6997 25.5021 78.5755 25.6126C78.4514 25.7231 78.291 25.7844 78.1248 25.785C77.4948 25.885 76.9369 26.085 77.4029 26.941C78.1829 28.384 79.2278 29.701 78.2028 31.741C78.1558 31.827 78.3779 32.062 78.4779 32.225Z" fill="#DEB490"/>
<path d="M68.8329 75.381C73.0053 73.169 77.3906 71.3842 81.9219 70.0539C81.9219 70.0539 81.839 70.0539 83.522 69.7929C83.522 69.7929 85.6149 69.6389 87.6219 69.5629C87.94 69.3308 88.2318 69.0645 88.4919 68.7689L87.7319 67.1489L78.8779 67.4129L68.2209 72.4329L67.006 75.2969C67.006 75.2969 67.4729 76.083 68.8329 75.381Z" fill="url(#paint5_radial_236_970)"/>
<path d="M62.5939 75.381C58.4214 73.1689 54.0362 71.3842 49.5049 70.0539C49.5049 70.0539 49.5879 70.0539 47.9049 69.7929C47.9049 69.7929 45.8119 69.6389 43.8049 69.5629C43.4863 69.3311 43.1942 69.0648 42.934 68.7689L43.6949 67.1489L52.549 67.4129L63.2059 72.4329L64.4209 75.2969C64.4209 75.2969 63.9529 76.083 62.5939 75.381Z" fill="url(#paint6_radial_236_970)"/>
</g>
<defs>
<linearGradient id="paint0_linear_236_970" x1="66.0549" y1="92.931" x2="66.0549" y2="74.2789" gradientUnits="userSpaceOnUse">
<stop offset="0.128" stop-color="#F5CFA3"/>
<stop offset="0.406" stop-color="#F3CA9E"/>
<stop offset="1" stop-color="#F2C498"/>
</linearGradient>
<linearGradient id="paint1_linear_236_970" x1="70.3135" y1="76.63" x2="70.3135" y2="87.096" gradientUnits="userSpaceOnUse">
<stop stop-color="#EDBC94"/>
<stop offset="0.628" stop-color="#EDBD95"/>
<stop offset="0.854" stop-color="#F0C49A"/>
<stop offset="1" stop-color="#F5CFA3"/>
</linearGradient>
<linearGradient id="paint2_linear_236_970" x1="61.8151" y1="76.63" x2="61.8151" y2="87.096" gradientUnits="userSpaceOnUse">
<stop stop-color="#EDBC94"/>
<stop offset="0.628" stop-color="#EDBD95"/>
<stop offset="0.854" stop-color="#F0C49A"/>
<stop offset="1" stop-color="#F5CFA3"/>
</linearGradient>
<radialGradient id="paint3_radial_236_970" cx="0" cy="0" r="1" gradientUnits="userSpaceOnUse" gradientTransform="translate(-98.8943 36.3379) scale(26.3889 26.3761)">
<stop stop-color="#F4CAA6"/>
<stop offset="0.668" stop-color="#F3C9A4"/>
<stop offset="0.908" stop-color="#F2C69D"/>
<stop offset="1" stop-color="#F2C498"/>
</radialGradient>
<radialGradient id="paint4_radial_236_970" cx="0" cy="0" r="1" gradientUnits="userSpaceOnUse" gradientTransform="translate(74.9284 43.989) scale(8.01349 8.01034)">
<stop stop-color="#F4CAA6"/>
<stop offset="0.668" stop-color="#F3C9A4"/>
<stop offset="0.908" stop-color="#F2C69D"/>
<stop offset="1" stop-color="#F2C498"/>
</radialGradient>
<radialGradient id="paint5_radial_236_970" cx="0" cy="0" r="1" gradientUnits="userSpaceOnUse" gradientTransform="translate(-1087.77 71.4107) scale(8.1802 8.17417)">
<stop stop-color="#F4CAA6"/>
<stop offset="0.668" stop-color="#F3C9A4"/>
<stop offset="0.908" stop-color="#F2C69D"/>
<stop offset="1" stop-color="#F2C498"/>
</radialGradient>
<radialGradient id="paint6_radial_236_970" cx="0" cy="0" r="1" gradientUnits="userSpaceOnUse" gradientTransform="translate(-1097.32 71.4107) scale(8.18057 8.17417)">
<stop stop-color="#F4CAA6"/>
<stop offset="0.668" stop-color="#F3C9A4"/>
<stop offset="0.908" stop-color="#F2C69D"/>
<stop offset="1" stop-color="#F2C498"/>
</radialGradient>
<clipPath id="clip0_236_970">
<rect width="132.109" height="125.748" fill="white"/>
</clipPath>
</defs>
</svg>
